# MagicaVoxel @ Ephtracy

# group
o 

# material
mtllib postedapraça.mtl
usemtl palette

# normals
vn 0 0 -1
vn 0 0 1
vn -1 0 0
vn 1 0 0
vn 0 -1 0
vn 0 1 0

# texcoords
vt 0.185547 0.5
vt 0.435547 0.5

# verts
v 5.9 0 -7.1
v 6.2 0 -7.1
v 5.9 0.3 -7.1
v 6.2 0.3 -7.1
v 5.9 1.9 -7.1
v 6.2 1.9 -7.1
v 5.9 2 -7.1
v 6.2 2 -7.1
v 5.9 2.3 -7.1
v 6.2 2.3 -7.1
v 6 0.3 -7
v 6.1 0.3 -7
v 6 1.9 -7
v 6.1 1.9 -7
v 6 2.3 -7
v 6.1 2.3 -7
v 6 2.4 -7
v 6.1 2.4 -7
v 6 0.3 -6.9
v 6.1 0.3 -6.9
v 6 1.9 -6.9
v 6.1 1.9 -6.9
v 6 2.3 -6.9
v 6.1 2.3 -6.9
v 6 2.4 -6.9
v 6.1 2.4 -6.9
v 5.9 0 -6.8
v 6.2 0 -6.8
v 5.9 0.3 -6.8
v 6.2 0.3 -6.8
v 5.9 1.9 -6.8
v 6.2 1.9 -6.8
v 5.9 2 -6.8
v 6.2 2 -6.8
v 5.9 2.3 -6.8
v 6.2 2.3 -6.8
v 5.9 0 -7.1
v 5.9 0.3 -7.1
v 5.9 1.9 -7.1
v 5.9 2 -7.1
v 5.9 2.3 -7.1
v 5.9 0 -6.8
v 5.9 0.3 -6.8
v 5.9 1.9 -6.8
v 5.9 2 -6.8
v 5.9 2.3 -6.8
v 6 0.3 -7
v 6 1.9 -7
v 6 2.3 -7
v 6 2.4 -7
v 6 0.3 -6.9
v 6 1.9 -6.9
v 6 2.3 -6.9
v 6 2.4 -6.9
v 6.1 0.3 -7
v 6.1 1.9 -7
v 6.1 2.3 -7
v 6.1 2.4 -7
v 6.1 0.3 -6.9
v 6.1 1.9 -6.9
v 6.1 2.3 -6.9
v 6.1 2.4 -6.9
v 6.2 0 -7.1
v 6.2 0.3 -7.1
v 6.2 1.9 -7.1
v 6.2 2 -7.1
v 6.2 2.3 -7.1
v 6.2 0 -6.8
v 6.2 0.3 -6.8
v 6.2 1.9 -6.8
v 6.2 2 -6.8
v 6.2 2.3 -6.8
v 5.9 0 -7.1
v 5.9 0 -6.8
v 6.2 0 -7.1
v 6.2 0 -6.8
v 5.9 1.9 -7.1
v 5.9 1.9 -6.8
v 6 1.9 -7
v 6 1.9 -6.9
v 6.1 1.9 -7
v 6.1 1.9 -6.9
v 6.2 1.9 -7.1
v 6.2 1.9 -6.8
v 5.9 0.3 -7.1
v 5.9 0.3 -6.8
v 6 0.3 -7
v 6 0.3 -6.9
v 6.1 0.3 -7
v 6.1 0.3 -6.9
v 6.2 0.3 -7.1
v 6.2 0.3 -6.8
v 5.9 2.3 -7.1
v 5.9 2.3 -6.8
v 6 2.3 -7
v 6 2.3 -6.9
v 6.1 2.3 -7
v 6.1 2.3 -6.9
v 6.2 2.3 -7.1
v 6.2 2.3 -6.8
v 6 2.4 -7
v 6 2.4 -6.9
v 6.1 2.4 -7
v 6.1 2.4 -6.9

# faces
f 3/2/1 2/2/1 1/2/1
f 4/2/1 2/2/1 3/2/1
f 7/2/1 6/2/1 5/2/1
f 8/2/1 6/2/1 7/2/1
f 9/1/1 8/1/1 7/1/1
f 10/1/1 8/1/1 9/1/1
f 13/2/1 12/2/1 11/2/1
f 14/2/1 12/2/1 13/2/1
f 17/1/1 16/1/1 15/1/1
f 18/1/1 16/1/1 17/1/1
f 19/2/2 20/2/2 21/2/2
f 21/2/2 20/2/2 22/2/2
f 23/1/2 24/1/2 25/1/2
f 25/1/2 24/1/2 26/1/2
f 27/2/2 28/2/2 29/2/2
f 29/2/2 28/2/2 30/2/2
f 31/2/2 32/2/2 33/2/2
f 33/2/2 32/2/2 34/2/2
f 33/1/2 34/1/2 35/1/2
f 35/1/2 34/1/2 36/1/2
f 42/2/3 38/2/3 37/2/3
f 43/2/3 38/2/3 42/2/3
f 44/2/3 40/2/3 39/2/3
f 45/1/3 41/1/3 40/1/3
f 45/2/3 40/2/3 44/2/3
f 46/1/3 41/1/3 45/1/3
f 51/2/3 48/2/3 47/2/3
f 52/2/3 48/2/3 51/2/3
f 53/1/3 50/1/3 49/1/3
f 54/1/3 50/1/3 53/1/3
f 55/2/4 56/2/4 59/2/4
f 59/2/4 56/2/4 60/2/4
f 57/1/4 58/1/4 61/1/4
f 61/1/4 58/1/4 62/1/4
f 63/2/4 64/2/4 68/2/4
f 68/2/4 64/2/4 69/2/4
f 65/2/4 66/2/4 70/2/4
f 66/1/4 67/1/4 71/1/4
f 70/2/4 66/2/4 71/2/4
f 71/1/4 67/1/4 72/1/4
f 75/2/5 74/2/5 73/2/5
f 76/2/5 74/2/5 75/2/5
f 79/2/5 78/2/5 77/2/5
f 80/2/5 78/2/5 79/2/5
f 81/2/5 79/2/5 77/2/5
f 82/2/5 78/2/5 80/2/5
f 83/2/5 81/2/5 77/2/5
f 83/2/5 82/2/5 81/2/5
f 84/2/5 78/2/5 82/2/5
f 84/2/5 82/2/5 83/2/5
f 85/2/6 86/2/6 87/2/6
f 87/2/6 86/2/6 88/2/6
f 85/2/6 87/2/6 89/2/6
f 88/2/6 86/2/6 90/2/6
f 85/2/6 89/2/6 91/2/6
f 89/2/6 90/2/6 91/2/6
f 90/2/6 86/2/6 92/2/6
f 91/2/6 90/2/6 92/2/6
f 93/1/6 94/1/6 95/1/6
f 95/1/6 94/1/6 96/1/6
f 93/1/6 95/1/6 97/1/6
f 96/1/6 94/1/6 98/1/6
f 93/1/6 97/1/6 99/1/6
f 97/1/6 98/1/6 99/1/6
f 98/1/6 94/1/6 100/1/6
f 99/1/6 98/1/6 100/1/6
f 101/1/6 102/1/6 103/1/6
f 103/1/6 102/1/6 104/1/6
