# MagicaVoxel @ Ephtracy

# group
o 

# material
mtllib cadeira.mtl
usemtl palette

# normals
vn -1 0 0
vn 1 0 0
vn 0 0 1
vn 0 0 -1
vn 0 -1 0
vn 0 1 0

# texcoords
vt 0.376953 0.5
vt 0.427734 0.5

# verts
v -22.4 0 -15.1
v -22.4 0 -15.2
v -22.4 0 -15.6
v -22.4 0 -15.7
v -22.4 0.3 -15.2
v -22.4 0.3 -15.6
v -22.4 0.5 -15
v -22.4 0.5 -15.1
v -22.4 0.5 -15.7
v -22.4 0.5 -15.8
v -22.4 0.6 -15
v -22.4 0.6 -15.1
v -22.4 0.6 -15.2
v -22.4 0.6 -15.4
v -22.4 0.6 -15.5
v -22.4 0.6 -15.6
v -22.4 0.6 -15.7
v -22.4 0.6 -15.8
v -22.4 0.7 -15.2
v -22.4 0.7 -15.4
v -22.4 0.7 -15.5
v -22.4 0.7 -15.6
v -22.4 0.9 -15.1
v -22.4 0.9 -15.7
v -22 0 -15.1
v -22 0 -15.2
v -22 0 -15.6
v -22 0 -15.7
v -22 0.3 -15
v -22 0.3 -15.1
v -22 0.3 -15.2
v -22 0.3 -15.6
v -22 0.3 -15.7
v -22 0.3 -15.8
v -22 0.4 -15.1
v -22 0.4 -15.7
v -22 0.5 -15
v -22 0.5 -15.1
v -22 0.5 -15.7
v -22 0.5 -15.8
v -22.3 0 -15.1
v -22.3 0 -15.2
v -22.3 0 -15.6
v -22.3 0 -15.7
v -22.3 0.3 -15.1
v -22.3 0.3 -15.2
v -22.3 0.3 -15.6
v -22.3 0.3 -15.7
v -22.3 0.4 -15.1
v -22.3 0.4 -15.7
v -22.3 0.5 -15.1
v -22.3 0.5 -15.7
v -22.3 0.6 -15.1
v -22.3 0.6 -15.2
v -22.3 0.6 -15.4
v -22.3 0.6 -15.5
v -22.3 0.6 -15.6
v -22.3 0.6 -15.7
v -22.3 0.7 -15.2
v -22.3 0.7 -15.4
v -22.3 0.7 -15.5
v -22.3 0.7 -15.6
v -22.3 0.9 -15.1
v -22.3 0.9 -15.7
v -21.9 0 -15.1
v -21.9 0 -15.2
v -21.9 0 -15.6
v -21.9 0 -15.7
v -21.9 0.3 -15
v -21.9 0.3 -15.1
v -21.9 0.3 -15.2
v -21.9 0.3 -15.6
v -21.9 0.3 -15.7
v -21.9 0.3 -15.8
v -21.9 0.4 -15.1
v -21.9 0.4 -15.7
v -21.9 0.6 -15
v -21.9 0.6 -15.1
v -21.9 0.6 -15.7
v -21.9 0.6 -15.8
v -22.4 0.5 -15
v -22.4 0.6 -15
v -22 0.3 -15
v -22 0.5 -15
v -21.9 0.3 -15
v -21.9 0.6 -15
v -22.4 0 -15.1
v -22.4 0.5 -15.1
v -22.4 0.6 -15.1
v -22.4 0.9 -15.1
v -22.3 0 -15.1
v -22.3 0.3 -15.1
v -22.3 0.4 -15.1
v -22.3 0.5 -15.1
v -22.3 0.6 -15.1
v -22.3 0.9 -15.1
v -22 0 -15.1
v -22 0.3 -15.1
v -22 0.4 -15.1
v -21.9 0 -15.1
v -21.9 0.3 -15.1
v -22.4 0 -15.6
v -22.4 0.3 -15.6
v -22.3 0 -15.6
v -22.3 0.3 -15.6
v -22 0 -15.6
v -22 0.3 -15.6
v -21.9 0 -15.6
v -21.9 0.3 -15.6
v -22.3 0.5 -15.7
v -22.3 0.6 -15.7
v -22 0.4 -15.7
v -22 0.5 -15.7
v -21.9 0.4 -15.7
v -21.9 0.6 -15.7
v -22.3 0.5 -15.1
v -22.3 0.6 -15.1
v -22 0.4 -15.1
v -22 0.5 -15.1
v -21.9 0.4 -15.1
v -21.9 0.6 -15.1
v -22.4 0 -15.2
v -22.4 0.3 -15.2
v -22.3 0 -15.2
v -22.3 0.3 -15.2
v -22 0 -15.2
v -22 0.3 -15.2
v -21.9 0 -15.2
v -21.9 0.3 -15.2
v -22.4 0 -15.7
v -22.4 0.5 -15.7
v -22.4 0.6 -15.7
v -22.4 0.9 -15.7
v -22.3 0 -15.7
v -22.3 0.3 -15.7
v -22.3 0.4 -15.7
v -22.3 0.5 -15.7
v -22.3 0.6 -15.7
v -22.3 0.9 -15.7
v -22 0 -15.7
v -22 0.3 -15.7
v -22 0.4 -15.7
v -21.9 0 -15.7
v -21.9 0.3 -15.7
v -22.4 0.5 -15.8
v -22.4 0.6 -15.8
v -22 0.3 -15.8
v -22 0.5 -15.8
v -21.9 0.3 -15.8
v -21.9 0.6 -15.8
v -22.4 0 -15.1
v -22.3 0 -15.1
v -22 0 -15.1
v -21.9 0 -15.1
v -22.4 0 -15.2
v -22.3 0 -15.2
v -22 0 -15.2
v -21.9 0 -15.2
v -22.4 0 -15.6
v -22.3 0 -15.6
v -22 0 -15.6
v -21.9 0 -15.6
v -22.4 0 -15.7
v -22.3 0 -15.7
v -22 0 -15.7
v -21.9 0 -15.7
v -22 0.3 -15
v -21.9 0.3 -15
v -22.3 0.3 -15.1
v -22 0.3 -15.1
v -21.9 0.3 -15.1
v -22.4 0.3 -15.2
v -22.3 0.3 -15.2
v -22 0.3 -15.2
v -21.9 0.3 -15.2
v -22.4 0.3 -15.6
v -22.3 0.3 -15.6
v -22 0.3 -15.6
v -21.9 0.3 -15.6
v -22.3 0.3 -15.7
v -22 0.3 -15.7
v -21.9 0.3 -15.7
v -22 0.3 -15.8
v -21.9 0.3 -15.8
v -22.4 0.5 -15
v -22 0.5 -15
v -22.4 0.5 -15.1
v -22.3 0.5 -15.1
v -22 0.5 -15.1
v -22.4 0.5 -15.7
v -22.3 0.5 -15.7
v -22 0.5 -15.7
v -22.4 0.5 -15.8
v -22 0.5 -15.8
v -22.3 0.4 -15.1
v -22 0.4 -15.1
v -21.9 0.4 -15.1
v -22.3 0.4 -15.7
v -22 0.4 -15.7
v -21.9 0.4 -15.7
v -22.4 0.6 -15
v -21.9 0.6 -15
v -22.4 0.6 -15.1
v -22.3 0.6 -15.1
v -21.9 0.6 -15.1
v -22.4 0.6 -15.7
v -22.3 0.6 -15.7
v -21.9 0.6 -15.7
v -22.4 0.6 -15.8
v -21.9 0.6 -15.8
v -22.4 0.9 -15.1
v -22.3 0.9 -15.1
v -22.4 0.9 -15.7
v -22.3 0.9 -15.7

# faces
f 5/2/1 2/2/1 1/2/1
f 6/2/1 4/2/1 3/2/1
f 8/2/1 5/2/1 1/2/1
f 8/2/1 6/2/1 5/2/1
f 9/2/1 4/2/1 6/2/1
f 9/2/1 6/2/1 8/2/1
f 11/2/1 8/2/1 7/2/1
f 11/2/1 10/2/1 9/2/1
f 11/2/1 9/2/1 8/2/1
f 12/2/1 10/2/1 11/2/1
f 13/2/1 10/2/1 12/2/1
f 14/2/1 10/2/1 13/2/1
f 15/2/1 10/2/1 14/2/1
f 16/2/1 10/2/1 15/2/1
f 17/2/1 10/2/1 16/2/1
f 18/2/1 10/2/1 17/2/1
f 19/2/1 13/2/1 12/2/1
f 19/1/1 14/1/1 13/1/1
f 20/2/1 15/2/1 14/2/1
f 20/1/1 14/1/1 19/1/1
f 21/1/1 16/1/1 15/1/1
f 21/2/1 15/2/1 20/2/1
f 22/2/1 17/2/1 16/2/1
f 22/1/1 16/1/1 21/1/1
f 23/2/1 21/2/1 20/2/1
f 23/2/1 20/2/1 19/2/1
f 23/2/1 22/2/1 21/2/1
f 23/2/1 19/2/1 12/2/1
f 24/2/1 17/2/1 22/2/1
f 24/2/1 22/2/1 23/2/1
f 30/2/1 26/2/1 25/2/1
f 31/2/1 26/2/1 30/2/1
f 32/2/1 28/2/1 27/2/1
f 33/2/1 28/2/1 32/2/1
f 35/2/1 30/2/1 29/2/1
f 36/2/1 34/2/1 33/2/1
f 37/2/1 35/2/1 29/2/1
f 38/2/1 35/2/1 37/2/1
f 39/2/1 34/2/1 36/2/1
f 40/2/1 34/2/1 39/2/1
f 41/2/2 42/2/2 45/2/2
f 45/2/2 42/2/2 46/2/2
f 43/2/2 44/2/2 47/2/2
f 47/2/2 44/2/2 48/2/2
f 49/2/2 50/2/2 51/2/2
f 51/2/2 50/2/2 52/2/2
f 51/2/2 52/2/2 53/2/2
f 53/2/2 52/2/2 54/2/2
f 54/2/2 52/2/2 55/2/2
f 55/2/2 52/2/2 56/2/2
f 56/2/2 52/2/2 57/2/2
f 57/2/2 52/2/2 58/2/2
f 53/2/2 54/2/2 59/2/2
f 54/1/2 55/1/2 59/1/2
f 55/2/2 56/2/2 60/2/2
f 59/1/2 55/1/2 60/1/2
f 56/1/2 57/1/2 61/1/2
f 60/2/2 56/2/2 61/2/2
f 57/2/2 58/2/2 62/2/2
f 61/1/2 57/1/2 62/1/2
f 60/2/2 61/2/2 63/2/2
f 53/2/2 59/2/2 63/2/2
f 61/2/2 62/2/2 63/2/2
f 59/2/2 60/2/2 63/2/2
f 62/2/2 58/2/2 64/2/2
f 63/2/2 62/2/2 64/2/2
f 65/2/2 66/2/2 70/2/2
f 70/2/2 66/2/2 71/2/2
f 67/2/2 68/2/2 72/2/2
f 72/2/2 68/2/2 73/2/2
f 70/2/2 71/2/2 75/2/2
f 73/2/2 74/2/2 75/2/2
f 72/2/2 73/2/2 75/2/2
f 71/2/2 72/2/2 75/2/2
f 69/2/2 70/2/2 75/2/2
f 75/2/2 74/2/2 76/2/2
f 69/2/2 75/2/2 77/2/2
f 77/2/2 75/2/2 78/2/2
f 76/2/2 74/2/2 79/2/2
f 79/2/2 74/2/2 80/2/2
f 84/2/3 82/2/3 81/2/3
f 85/2/3 84/2/3 83/2/3
f 86/2/3 82/2/3 84/2/3
f 86/2/3 84/2/3 85/2/3
f 91/2/3 88/2/3 87/2/3
f 92/2/3 88/2/3 91/2/3
f 93/2/3 88/2/3 92/2/3
f 94/2/3 88/2/3 93/2/3
f 95/2/3 90/2/3 89/2/3
f 96/2/3 90/2/3 95/2/3
f 98/2/3 93/2/3 92/2/3
f 99/2/3 93/2/3 98/2/3
f 100/2/3 98/2/3 97/2/3
f 101/2/3 98/2/3 100/2/3
f 104/2/3 103/2/3 102/2/3
f 105/2/3 103/2/3 104/2/3
f 108/2/3 107/2/3 106/2/3
f 109/2/3 107/2/3 108/2/3
f 113/2/3 111/2/3 110/2/3
f 114/2/3 113/2/3 112/2/3
f 115/2/3 111/2/3 113/2/3
f 115/2/3 113/2/3 114/2/3
f 116/2/4 117/2/4 119/2/4
f 118/2/4 119/2/4 120/2/4
f 119/2/4 117/2/4 121/2/4
f 120/2/4 119/2/4 121/2/4
f 122/2/4 123/2/4 124/2/4
f 124/2/4 123/2/4 125/2/4
f 126/2/4 127/2/4 128/2/4
f 128/2/4 127/2/4 129/2/4
f 130/2/4 131/2/4 134/2/4
f 134/2/4 131/2/4 135/2/4
f 135/2/4 131/2/4 136/2/4
f 136/2/4 131/2/4 137/2/4
f 132/2/4 133/2/4 138/2/4
f 138/2/4 133/2/4 139/2/4
f 135/2/4 136/2/4 141/2/4
f 141/2/4 136/2/4 142/2/4
f 140/2/4 141/2/4 143/2/4
f 143/2/4 141/2/4 144/2/4
f 145/2/4 146/2/4 148/2/4
f 147/2/4 148/2/4 149/2/4
f 148/2/4 146/2/4 150/2/4
f 149/2/4 148/2/4 150/2/4
f 155/2/5 152/2/5 151/2/5
f 156/2/5 152/2/5 155/2/5
f 157/2/5 154/2/5 153/2/5
f 158/2/5 154/2/5 157/2/5
f 163/2/5 160/2/5 159/2/5
f 164/2/5 160/2/5 163/2/5
f 165/2/5 162/2/5 161/2/5
f 166/2/5 162/2/5 165/2/5
f 170/2/5 168/2/5 167/2/5
f 171/2/5 168/2/5 170/2/5
f 173/2/5 170/2/5 169/2/5
f 174/2/5 170/2/5 173/2/5
f 176/2/5 173/2/5 172/2/5
f 176/2/5 175/2/5 174/2/5
f 176/2/5 174/2/5 173/2/5
f 177/2/5 175/2/5 176/2/5
f 178/2/5 175/2/5 177/2/5
f 179/2/5 175/2/5 178/2/5
f 180/2/5 178/2/5 177/2/5
f 181/2/5 178/2/5 180/2/5
f 183/2/5 182/2/5 181/2/5
f 184/2/5 182/2/5 183/2/5
f 187/2/5 186/2/5 185/2/5
f 188/2/5 186/2/5 187/2/5
f 189/2/5 186/2/5 188/2/5
f 193/2/5 191/2/5 190/2/5
f 193/2/5 192/2/5 191/2/5
f 194/2/5 192/2/5 193/2/5
f 195/2/6 196/2/6 198/2/6
f 196/2/6 197/2/6 198/2/6
f 198/2/6 197/2/6 199/2/6
f 199/2/6 197/2/6 200/2/6
f 201/2/6 202/2/6 203/2/6
f 203/2/6 202/2/6 204/2/6
f 204/2/6 202/2/6 205/2/6
f 206/2/6 207/2/6 209/2/6
f 207/2/6 208/2/6 209/2/6
f 209/2/6 208/2/6 210/2/6
f 211/2/6 212/2/6 213/2/6
f 213/2/6 212/2/6 214/2/6
