# MagicaVoxel @ Ephtracy

# group
o 

# material
mtllib bruninho-sentado.mtl
usemtl palette

# normals
vn -1 0 0
vn 1 0 0
vn 0 0 1
vn 0 0 -1
vn 0 -1 0
vn 0 1 0

# texcoords
vt 0.0761719 0.5
vt 0.146484 0.5
vt 0.158203 0.5
vt 0.181641 0.5
vt 0.185547 0.5
vt 0.212891 0.5
vt 0.220703 0.5
vt 0.376953 0.5
vt 0.380859 0.5

# verts
v -0.4 0.3 0.1
v -0.4 0.3 -0.1
v -0.4 0.4 0.1
v -0.4 0.4 -0.1
v -0.4 0.5 0.1
v -0.4 0.5 -0.1
v -0.4 0.6 0.1
v -0.4 0.6 -0.1
v -0.4 0.9 0.3
v -0.4 0.9 0
v -0.4 0.9 -0.1
v -0.4 1.1 0.5
v -0.4 1.1 0.3
v -0.4 1.1 0
v -0.4 1.1 -0.1
v -0.4 1.1 -0.2
v -0.4 1.2 0.5
v -0.4 1.2 0.3
v -0.4 1.4 0.3
v -0.4 1.4 -0.2
v -0.3 0.1 0.1
v -0.3 0.1 -0.1
v -0.3 0.1 -0.3
v -0.3 0.2 -0.1
v -0.3 0.2 -0.2
v -0.3 0.3 0.1
v -0.3 0.3 -0.1
v -0.3 0.3 -0.2
v -0.3 0.3 -0.3
v -0.3 0.7 0.2
v -0.3 0.7 -0.2
v -0.3 0.8 0.3
v -0.3 0.8 0.2
v -0.3 0.9 0.3
v -0.3 0.9 0.2
v -0.3 0.9 0
v -0.3 0.9 -0.1
v -0.3 0.9 -0.2
v -0.3 1.1 -0.1
v -0.3 1.1 -0.2
v -0.1 0.6 0.1
v -0.1 0.6 -0.1
v -0.1 0.7 0.1
v -0.1 0.7 -0.1
v 0.1 0.1 0.1
v 0.1 0.1 -0.1
v 0.1 0.1 -0.3
v 0.1 0.2 0.1
v 0.1 0.2 -0.1
v 0.1 0.2 -0.2
v 0.1 0.3 -0.2
v 0.1 0.3 -0.3
v -0.1 0.1 0.1
v -0.1 0.1 -0.1
v -0.1 0.1 -0.3
v -0.1 0.2 0.1
v -0.1 0.2 -0.1
v -0.1 0.2 -0.2
v -0.1 0.3 -0.2
v -0.1 0.3 -0.3
v 0.1 0.6 0.1
v 0.1 0.6 -0.1
v 0.1 0.7 0.1
v 0.1 0.7 -0.1
v 0.3 0.1 0.1
v 0.3 0.1 -0.1
v 0.3 0.1 -0.3
v 0.3 0.2 -0.1
v 0.3 0.2 -0.2
v 0.3 0.3 0.1
v 0.3 0.3 -0.1
v 0.3 0.3 -0.2
v 0.3 0.3 -0.3
v 0.3 0.7 0.2
v 0.3 0.7 -0.2
v 0.3 0.8 0.3
v 0.3 0.8 0.2
v 0.3 0.9 0.3
v 0.3 0.9 0.2
v 0.3 0.9 0.1
v 0.3 0.9 0
v 0.3 0.9 -0.1
v 0.3 0.9 -0.2
v 0.3 1 0.1
v 0.3 1 0
v 0.3 1 -0.1
v 0.3 1.1 -0.1
v 0.3 1.1 -0.2
v 0.4 0.3 0.1
v 0.4 0.3 -0.1
v 0.4 0.4 0.1
v 0.4 0.4 -0.1
v 0.4 0.5 0.1
v 0.4 0.5 -0.1
v 0.4 0.6 0.1
v 0.4 0.6 -0.1
v 0.4 0.9 0.3
v 0.4 0.9 0.1
v 0.4 0.9 0
v 0.4 0.9 -0.1
v 0.4 1 0.1
v 0.4 1 0
v 0.4 1 -0.1
v 0.4 1.1 0.5
v 0.4 1.1 0.3
v 0.4 1.1 0
v 0.4 1.1 -0.1
v 0.4 1.1 -0.2
v 0.4 1.2 0.5
v 0.4 1.2 0.3
v 0.4 1.4 0.3
v 0.4 1.4 -0.2
v -0.4 1.1 0.5
v -0.4 1.2 0.5
v 0.4 1.1 0.5
v 0.4 1.2 0.5
v -0.4 0.9 0.3
v -0.4 1.1 0.3
v -0.4 1.2 0.3
v -0.4 1.4 0.3
v -0.3 0.8 0.3
v -0.3 0.9 0.3
v 0.3 0.8 0.3
v 0.3 0.9 0.3
v 0.4 0.9 0.3
v 0.4 1.1 0.3
v 0.4 1.2 0.3
v 0.4 1.4 0.3
v -0.3 0.7 0.2
v -0.3 0.8 0.2
v 0.3 0.7 0.2
v 0.3 0.8 0.2
v -0.4 0.3 0.1
v -0.4 0.4 0.1
v -0.4 0.5 0.1
v -0.4 0.6 0.1
v -0.3 0.1 0.1
v -0.3 0.3 0.1
v -0.3 0.4 0.1
v -0.3 0.5 0.1
v -0.1 0.1 0.1
v -0.1 0.2 0.1
v -0.1 0.4 0.1
v -0.1 0.5 0.1
v -0.1 0.6 0.1
v -0.1 0.7 0.1
v 0.1 0.1 0.1
v 0.1 0.2 0.1
v 0.1 0.4 0.1
v 0.1 0.5 0.1
v 0.1 0.6 0.1
v 0.1 0.7 0.1
v 0.3 0.1 0.1
v 0.3 0.3 0.1
v 0.3 0.4 0.1
v 0.3 0.5 0.1
v 0.4 0.3 0.1
v 0.4 0.4 0.1
v 0.4 0.5 0.1
v 0.4 0.6 0.1
v 0.3 0.9 0
v 0.3 1 0
v 0.4 0.9 0
v 0.4 1 0
v -0.3 0.2 -0.2
v -0.3 0.3 -0.2
v -0.1 0.2 -0.2
v -0.1 0.3 -0.2
v 0.1 0.2 -0.2
v 0.1 0.3 -0.2
v 0.3 0.2 -0.2
v 0.3 0.3 -0.2
v 0.3 0.9 0.1
v 0.3 1 0.1
v 0.4 0.9 0.1
v 0.4 1 0.1
v -0.4 0.3 -0.1
v -0.4 0.4 -0.1
v -0.4 0.5 -0.1
v -0.4 0.6 -0.1
v -0.4 0.9 -0.1
v -0.4 1.1 -0.1
v -0.3 0.2 -0.1
v -0.3 0.3 -0.1
v -0.3 0.4 -0.1
v -0.3 0.5 -0.1
v -0.3 0.9 -0.1
v -0.3 1.1 -0.1
v -0.1 0.2 -0.1
v -0.1 0.6 -0.1
v -0.1 0.7 -0.1
v 0.1 0.2 -0.1
v 0.1 0.4 -0.1
v 0.1 0.5 -0.1
v 0.1 0.6 -0.1
v 0.1 0.7 -0.1
v 0.2 0.4 -0.1
v 0.2 0.5 -0.1
v 0.3 0.2 -0.1
v 0.3 0.3 -0.1
v 0.3 0.4 -0.1
v 0.3 0.5 -0.1
v 0.3 0.9 -0.1
v 0.3 1 -0.1
v 0.3 1.1 -0.1
v 0.4 0.3 -0.1
v 0.4 0.4 -0.1
v 0.4 0.5 -0.1
v 0.4 0.6 -0.1
v 0.4 0.9 -0.1
v 0.4 1 -0.1
v 0.4 1.1 -0.1
v -0.4 1.1 -0.2
v -0.4 1.4 -0.2
v -0.3 0.7 -0.2
v -0.3 0.9 -0.2
v -0.3 1.1 -0.2
v -0.2 0.9 -0.2
v -0.2 1 -0.2
v -0.1 0.7 -0.2
v -0.1 0.8 -0.2
v -0.1 0.9 -0.2
v -0.1 1 -0.2
v -0.1 1.1 -0.2
v -0.1 1.2 -0.2
v -0.1 1.3 -0.2
v 0.1 0.7 -0.2
v 0.1 0.8 -0.2
v 0.1 0.9 -0.2
v 0.1 1 -0.2
v 0.1 1.1 -0.2
v 0.1 1.2 -0.2
v 0.1 1.3 -0.2
v 0.2 0.9 -0.2
v 0.2 1 -0.2
v 0.3 0.7 -0.2
v 0.3 0.9 -0.2
v 0.3 1.1 -0.2
v 0.4 1.1 -0.2
v 0.4 1.4 -0.2
v -0.3 0.1 -0.3
v -0.3 0.3 -0.3
v -0.1 0.1 -0.3
v -0.1 0.3 -0.3
v 0.1 0.1 -0.3
v 0.1 0.3 -0.3
v 0.3 0.1 -0.3
v 0.3 0.3 -0.3
v -0.3 0.1 0.1
v -0.1 0.1 0.1
v 0.1 0.1 0.1
v 0.3 0.1 0.1
v -0.3 0.1 -0.1
v -0.1 0.1 -0.1
v 0.1 0.1 -0.1
v 0.3 0.1 -0.1
v -0.3 0.1 -0.3
v -0.1 0.1 -0.3
v 0.1 0.1 -0.3
v 0.3 0.1 -0.3
v -0.1 0.2 0.1
v 0.1 0.2 0.1
v -0.1 0.2 -0.1
v 0.1 0.2 -0.1
v -0.4 0.3 0.1
v -0.3 0.3 0.1
v 0.3 0.3 0.1
v 0.4 0.3 0.1
v -0.4 0.3 -0.1
v -0.3 0.3 -0.1
v 0.3 0.3 -0.1
v 0.4 0.3 -0.1
v -0.3 0.7 0.2
v 0.3 0.7 0.2
v -0.1 0.7 0.1
v 0.1 0.7 0.1
v -0.1 0.7 -0.1
v 0.1 0.7 -0.1
v -0.3 0.7 -0.2
v -0.1 0.7 -0.2
v 0.1 0.7 -0.2
v 0.3 0.7 -0.2
v -0.3 0.8 0.3
v 0.3 0.8 0.3
v -0.3 0.8 0.2
v 0.3 0.8 0.2
v -0.4 0.9 0.3
v -0.3 0.9 0.3
v 0.3 0.9 0.3
v 0.4 0.9 0.3
v -0.3 0.9 0.2
v 0.3 0.9 0.2
v 0.3 0.9 0.1
v 0.4 0.9 0.1
v -0.4 0.9 0
v -0.3 0.9 0
v 0.3 0.9 0
v 0.4 0.9 0
v -0.4 0.9 -0.1
v -0.3 0.9 -0.1
v 0.3 0.9 -0.1
v 0.4 0.9 -0.1
v 0.3 1 0.1
v 0.4 1 0.1
v 0.3 1 0
v 0.4 1 0
v -0.4 1.1 0.5
v 0.4 1.1 0.5
v -0.4 1.1 0.3
v 0.4 1.1 0.3
v -0.4 1.1 -0.1
v -0.3 1.1 -0.1
v 0.3 1.1 -0.1
v 0.4 1.1 -0.1
v -0.4 1.1 -0.2
v -0.3 1.1 -0.2
v 0.3 1.1 -0.2
v 0.4 1.1 -0.2
v -0.3 0.2 -0.1
v -0.1 0.2 -0.1
v 0.1 0.2 -0.1
v 0.3 0.2 -0.1
v -0.3 0.2 -0.2
v -0.1 0.2 -0.2
v 0.1 0.2 -0.2
v 0.3 0.2 -0.2
v -0.3 0.3 -0.2
v -0.1 0.3 -0.2
v 0.1 0.3 -0.2
v 0.3 0.3 -0.2
v -0.3 0.3 -0.3
v -0.1 0.3 -0.3
v 0.1 0.3 -0.3
v 0.3 0.3 -0.3
v -0.4 0.6 0.1
v -0.1 0.6 0.1
v 0.1 0.6 0.1
v 0.4 0.6 0.1
v -0.4 0.6 -0.1
v -0.1 0.6 -0.1
v 0.1 0.6 -0.1
v 0.4 0.6 -0.1
v -0.4 1.2 0.5
v 0.4 1.2 0.5
v -0.4 1.2 0.3
v 0.4 1.2 0.3
v -0.4 1.4 0.3
v 0.4 1.4 0.3
v -0.4 1.4 -0.2
v 0.4 1.4 -0.2

# faces
f 3/2/1 2/2/1 1/2/1
f 4/2/1 2/2/1 3/2/1
f 5/9/1 4/9/1 3/9/1
f 6/9/1 4/9/1 5/9/1
f 7/5/1 6/5/1 5/5/1
f 8/5/1 6/5/1 7/5/1
f 13/3/1 10/3/1 9/3/1
f 14/2/1 11/2/1 10/2/1
f 14/3/1 10/3/1 13/3/1
f 15/2/1 11/2/1 14/2/1
f 17/6/1 15/6/1 14/6/1
f 17/6/1 16/6/1 15/6/1
f 17/6/1 13/6/1 12/6/1
f 17/6/1 14/6/1 13/6/1
f 18/6/1 16/6/1 17/6/1
f 19/6/1 16/6/1 18/6/1
f 20/6/1 16/6/1 19/6/1
f 24/7/1 22/7/1 21/7/1
f 24/2/1 23/2/1 22/2/1
f 25/2/1 23/2/1 24/2/1
f 26/7/1 24/7/1 21/7/1
f 27/7/1 24/7/1 26/7/1
f 28/2/1 23/2/1 25/2/1
f 29/2/1 23/2/1 28/2/1
f 33/2/1 31/2/1 30/2/1
f 34/3/1 33/3/1 32/3/1
f 35/2/1 31/2/1 33/2/1
f 35/3/1 33/3/1 34/3/1
f 36/2/1 31/2/1 35/2/1
f 37/2/1 31/2/1 36/2/1
f 38/2/1 31/2/1 37/2/1
f 39/8/1 38/8/1 37/8/1
f 40/8/1 38/8/1 39/8/1
f 43/2/1 42/2/1 41/2/1
f 44/2/1 42/2/1 43/2/1
f 48/7/1 46/7/1 45/7/1
f 49/2/1 47/2/1 46/2/1
f 49/7/1 46/7/1 48/7/1
f 50/2/1 47/2/1 49/2/1
f 51/2/1 47/2/1 50/2/1
f 52/2/1 47/2/1 51/2/1
f 53/7/2 54/7/2 56/7/2
f 54/2/2 55/2/2 57/2/2
f 56/7/2 54/7/2 57/7/2
f 57/2/2 55/2/2 58/2/2
f 58/2/2 55/2/2 59/2/2
f 59/2/2 55/2/2 60/2/2
f 61/2/2 62/2/2 63/2/2
f 63/2/2 62/2/2 64/2/2
f 65/7/2 66/7/2 68/7/2
f 66/2/2 67/2/2 68/2/2
f 68/2/2 67/2/2 69/2/2
f 65/7/2 68/7/2 70/7/2
f 70/7/2 68/7/2 71/7/2
f 69/2/2 67/2/2 72/2/2
f 72/2/2 67/2/2 73/2/2
f 74/2/2 75/2/2 77/2/2
f 76/3/2 77/3/2 78/3/2
f 77/2/2 75/2/2 79/2/2
f 78/3/2 77/3/2 79/3/2
f 79/2/2 75/2/2 80/2/2
f 80/2/2 75/2/2 81/2/2
f 81/2/2 75/2/2 82/2/2
f 82/2/2 75/2/2 83/2/2
f 80/2/2 81/2/2 84/2/2
f 84/2/2 81/2/2 85/2/2
f 82/8/2 83/8/2 86/8/2
f 86/8/2 83/8/2 87/8/2
f 87/8/2 83/8/2 88/8/2
f 89/2/2 90/2/2 91/2/2
f 91/2/2 90/2/2 92/2/2
f 91/9/2 92/9/2 93/9/2
f 93/9/2 92/9/2 94/9/2
f 93/5/2 94/5/2 95/5/2
f 95/5/2 94/5/2 96/5/2
f 97/3/2 98/3/2 101/3/2
f 99/4/2 100/4/2 102/4/2
f 102/4/2 100/4/2 103/4/2
f 97/3/2 101/3/2 105/3/2
f 101/3/2 102/3/2 105/3/2
f 102/2/2 103/2/2 106/2/2
f 105/3/2 102/3/2 106/3/2
f 106/2/2 103/2/2 107/2/2
f 106/6/2 107/6/2 109/6/2
f 107/6/2 108/6/2 109/6/2
f 105/6/2 106/6/2 109/6/2
f 104/6/2 105/6/2 109/6/2
f 109/6/2 108/6/2 110/6/2
f 110/6/2 108/6/2 111/6/2
f 111/6/2 108/6/2 112/6/2
f 115/6/3 114/6/3 113/6/3
f 116/6/3 114/6/3 115/6/3
f 122/3/3 118/3/3 117/3/3
f 123/3/3 122/3/3 121/3/3
f 124/3/3 118/3/3 122/3/3
f 124/3/3 122/3/3 123/3/3
f 125/3/3 118/3/3 124/3/3
f 126/3/3 118/3/3 125/3/3
f 127/6/3 120/6/3 119/6/3
f 128/6/3 120/6/3 127/6/3
f 131/2/3 130/2/3 129/2/3
f 132/2/3 130/2/3 131/2/3
f 138/2/3 134/2/3 133/2/3
f 139/9/3 135/9/3 134/9/3
f 139/2/3 134/2/3 138/2/3
f 140/5/3 136/5/3 135/5/3
f 140/9/3 135/9/3 139/9/3
f 141/7/3 138/7/3 137/7/3
f 142/7/3 138/7/3 141/7/3
f 143/5/3 139/5/3 138/5/3
f 143/5/3 140/5/3 139/5/3
f 144/5/3 136/5/3 140/5/3
f 144/5/3 140/5/3 143/5/3
f 145/5/3 136/5/3 144/5/3
f 148/7/3 138/7/3 142/7/3
f 149/5/3 143/5/3 138/5/3
f 149/9/3 144/9/3 143/9/3
f 150/5/3 145/5/3 144/5/3
f 150/9/3 144/9/3 149/9/3
f 151/2/3 146/2/3 145/2/3
f 151/5/3 145/5/3 150/5/3
f 152/2/3 146/2/3 151/2/3
f 153/7/3 148/7/3 147/7/3
f 154/5/3 149/5/3 138/5/3
f 154/7/3 148/7/3 153/7/3
f 154/5/3 150/5/3 149/5/3
f 154/5/3 151/5/3 150/5/3
f 154/7/3 138/7/3 148/7/3
f 155/5/3 151/5/3 154/5/3
f 156/5/3 151/5/3 155/5/3
f 157/2/3 155/2/3 154/2/3
f 158/9/3 156/9/3 155/9/3
f 158/2/3 155/2/3 157/2/3
f 159/5/3 151/5/3 156/5/3
f 159/9/3 156/9/3 158/9/3
f 160/5/3 151/5/3 159/5/3
f 163/4/3 162/4/3 161/4/3
f 164/4/3 162/4/3 163/4/3
f 167/2/3 166/2/3 165/2/3
f 168/2/3 166/2/3 167/2/3
f 171/2/3 170/2/3 169/2/3
f 172/2/3 170/2/3 171/2/3
f 173/3/4 174/3/4 175/3/4
f 175/3/4 174/3/4 176/3/4
f 177/2/4 178/2/4 184/2/4
f 178/9/4 179/9/4 185/9/4
f 184/2/4 178/2/4 185/2/4
f 179/5/4 180/5/4 186/5/4
f 185/9/4 179/9/4 186/9/4
f 181/2/4 182/2/4 187/2/4
f 187/2/4 182/2/4 188/2/4
f 183/7/4 184/7/4 189/7/4
f 186/5/4 180/5/4 190/5/4
f 184/5/4 185/5/4 190/5/4
f 185/5/4 186/5/4 190/5/4
f 189/7/4 184/7/4 192/7/4
f 184/5/4 190/5/4 193/5/4
f 193/5/4 190/5/4 194/5/4
f 190/2/4 191/2/4 195/2/4
f 194/5/4 190/5/4 195/5/4
f 195/2/4 191/2/4 196/2/4
f 193/9/4 194/9/4 197/9/4
f 184/5/4 193/5/4 197/5/4
f 194/5/4 195/5/4 198/5/4
f 197/9/4 194/9/4 198/9/4
f 192/7/4 184/7/4 199/7/4
f 184/5/4 197/5/4 200/5/4
f 199/7/4 184/7/4 200/7/4
f 197/5/4 198/5/4 200/5/4
f 200/5/4 198/5/4 201/5/4
f 198/5/4 195/5/4 202/5/4
f 201/5/4 198/5/4 202/5/4
f 200/2/4 201/2/4 206/2/4
f 201/9/4 202/9/4 207/9/4
f 206/2/4 201/2/4 207/2/4
f 202/5/4 195/5/4 208/5/4
f 207/9/4 202/9/4 208/9/4
f 208/5/4 195/5/4 209/5/4
f 203/4/4 204/4/4 210/4/4
f 204/2/4 205/2/4 211/2/4
f 210/4/4 204/4/4 211/4/4
f 211/2/4 205/2/4 212/2/4
f 213/6/4 214/6/4 217/6/4
f 215/2/4 216/2/4 218/2/4
f 216/8/4 217/8/4 218/8/4
f 218/8/4 217/8/4 219/8/4
f 215/2/4 218/2/4 220/2/4
f 220/2/4 218/2/4 221/2/4
f 218/3/4 219/3/4 222/3/4
f 221/2/4 218/2/4 222/2/4
f 219/8/4 217/8/4 223/8/4
f 222/3/4 219/3/4 223/3/4
f 217/6/4 214/6/4 224/6/4
f 223/8/4 217/8/4 224/8/4
f 224/6/4 214/6/4 225/6/4
f 225/6/4 214/6/4 226/6/4
f 220/1/4 221/1/4 227/1/4
f 222/2/4 223/2/4 228/2/4
f 227/1/4 221/1/4 228/1/4
f 221/2/4 222/2/4 228/2/4
f 223/2/4 224/2/4 228/2/4
f 228/2/4 224/2/4 229/2/4
f 229/2/4 224/2/4 230/2/4
f 224/6/4 225/6/4 231/6/4
f 230/2/4 224/2/4 231/2/4
f 225/2/4 226/2/4 232/2/4
f 231/6/4 225/6/4 232/6/4
f 226/6/4 214/6/4 233/6/4
f 232/2/4 226/2/4 233/2/4
f 229/3/4 230/3/4 234/3/4
f 227/2/4 228/2/4 234/2/4
f 228/2/4 229/2/4 234/2/4
f 230/8/4 231/8/4 235/8/4
f 234/3/4 230/3/4 235/3/4
f 227/2/4 234/2/4 236/2/4
f 234/8/4 235/8/4 237/8/4
f 236/2/4 234/2/4 237/2/4
f 235/8/4 231/8/4 238/8/4
f 237/8/4 235/8/4 238/8/4
f 231/6/4 232/6/4 238/6/4
f 232/6/4 233/6/4 238/6/4
f 238/6/4 233/6/4 239/6/4
f 233/6/4 214/6/4 240/6/4
f 239/6/4 233/6/4 240/6/4
f 241/2/4 242/2/4 243/2/4
f 243/2/4 242/2/4 244/2/4
f 245/2/4 246/2/4 247/2/4
f 247/2/4 246/2/4 248/2/4
f 253/7/5 250/7/5 249/7/5
f 254/7/5 250/7/5 253/7/5
f 255/7/5 252/7/5 251/7/5
f 256/7/5 252/7/5 255/7/5
f 257/2/5 254/2/5 253/2/5
f 258/2/5 254/2/5 257/2/5
f 259/2/5 256/2/5 255/2/5
f 260/2/5 256/2/5 259/2/5
f 263/7/5 262/7/5 261/7/5
f 264/7/5 262/7/5 263/7/5
f 269/2/5 266/2/5 265/2/5
f 270/2/5 266/2/5 269/2/5
f 271/2/5 268/2/5 267/2/5
f 272/2/5 268/2/5 271/2/5
f 275/2/5 274/2/5 273/2/5
f 276/2/5 274/2/5 275/2/5
f 277/2/5 275/2/5 273/2/5
f 278/2/5 274/2/5 276/2/5
f 279/2/5 277/2/5 273/2/5
f 280/1/5 278/1/5 277/1/5
f 280/2/5 277/2/5 279/2/5
f 281/2/5 274/2/5 278/2/5
f 281/1/5 278/1/5 280/1/5
f 282/2/5 274/2/5 281/2/5
f 285/3/5 284/3/5 283/3/5
f 286/3/5 284/3/5 285/3/5
f 291/3/5 288/3/5 287/3/5
f 292/3/5 290/3/5 289/3/5
f 293/3/5 290/3/5 292/3/5
f 294/3/5 290/3/5 293/3/5
f 295/3/5 291/3/5 287/3/5
f 296/3/5 291/3/5 295/3/5
f 299/2/5 296/2/5 295/2/5
f 300/2/5 296/2/5 299/2/5
f 301/4/5 298/4/5 297/4/5
f 302/4/5 298/4/5 301/4/5
f 305/3/5 304/3/5 303/3/5
f 306/3/5 304/3/5 305/3/5
f 309/6/5 308/6/5 307/6/5
f 310/6/5 308/6/5 309/6/5
f 315/6/5 312/6/5 311/6/5
f 316/6/5 312/6/5 315/6/5
f 317/6/5 314/6/5 313/6/5
f 318/6/5 314/6/5 317/6/5
f 319/2/6 320/2/6 323/2/6
f 323/2/6 320/2/6 324/2/6
f 321/2/6 322/2/6 325/2/6
f 325/2/6 322/2/6 326/2/6
f 327/2/6 328/2/6 331/2/6
f 331/2/6 328/2/6 332/2/6
f 329/2/6 330/2/6 333/2/6
f 333/2/6 330/2/6 334/2/6
f 335/5/6 336/5/6 339/5/6
f 339/5/6 336/5/6 340/5/6
f 337/5/6 338/5/6 341/5/6
f 341/5/6 338/5/6 342/5/6
f 343/6/6 344/6/6 345/6/6
f 345/6/6 344/6/6 346/6/6
f 347/6/6 348/6/6 349/6/6
f 349/6/6 348/6/6 350/6/6
