# MagicaVoxel @ Ephtracy

# group
o 

# material
mtllib bruninho.mtl
usemtl palette

# normals
vn -1 0 0
vn 1 0 0
vn 0 0 1
vn 0 0 -1
vn 0 -1 0
vn 0 1 0

# texcoords
vt 0.0761719 0.5
vt 0.146484 0.5
vt 0.158203 0.5
vt 0.181641 0.5
vt 0.185547 0.5
vt 0.212891 0.5
vt 0.220703 0.5
vt 0.376953 0.5
vt 0.380859 0.5

# verts
v -0.4 0.3 0.1
v -0.4 0.3 -0.1
v -0.4 0.4 0.1
v -0.4 0.4 -0.1
v -0.4 0.5 0.1
v -0.4 0.5 -0.1
v -0.4 0.6 0.1
v -0.4 0.6 -0.1
v -0.4 0.9 0.3
v -0.4 0.9 0
v -0.4 0.9 -0.1
v -0.4 1.1 0.5
v -0.4 1.1 0.3
v -0.4 1.1 0
v -0.4 1.1 -0.1
v -0.4 1.1 -0.2
v -0.4 1.2 0.5
v -0.4 1.2 0.3
v -0.4 1.4 0.3
v -0.4 1.4 -0.2
v -0.3 0 0.1
v -0.3 0 -0.2
v -0.3 0.1 0.1
v -0.3 0.1 -0.1
v -0.3 0.1 -0.2
v -0.3 0.3 0.1
v -0.3 0.3 -0.1
v -0.3 0.7 0.2
v -0.3 0.7 -0.2
v -0.3 0.8 0.3
v -0.3 0.8 0.2
v -0.3 0.9 0.3
v -0.3 0.9 0.2
v -0.3 0.9 0
v -0.3 0.9 -0.1
v -0.3 0.9 -0.2
v -0.3 1.1 -0.1
v -0.3 1.1 -0.2
v -0.1 0.6 0.1
v -0.1 0.6 -0.1
v -0.1 0.7 0.1
v -0.1 0.7 -0.1
v 0.1 0 0.1
v 0.1 0 -0.2
v 0.1 0.1 0.1
v 0.1 0.1 -0.1
v 0.1 0.1 -0.2
v 0.1 0.2 0.1
v 0.1 0.2 -0.1
v -0.1 0 0.1
v -0.1 0 -0.2
v -0.1 0.1 0.1
v -0.1 0.1 -0.1
v -0.1 0.1 -0.2
v -0.1 0.2 0.1
v -0.1 0.2 -0.1
v 0.1 0.6 0.1
v 0.1 0.6 -0.1
v 0.1 0.7 0.1
v 0.1 0.7 -0.1
v 0.3 0 0.1
v 0.3 0 -0.2
v 0.3 0.1 0.1
v 0.3 0.1 -0.1
v 0.3 0.1 -0.2
v 0.3 0.3 0.1
v 0.3 0.3 -0.1
v 0.3 0.7 0.2
v 0.3 0.7 -0.2
v 0.3 0.8 0.3
v 0.3 0.8 0.2
v 0.3 0.9 0.3
v 0.3 0.9 0.2
v 0.3 0.9 0.1
v 0.3 0.9 0
v 0.3 0.9 -0.1
v 0.3 0.9 -0.2
v 0.3 1 0.1
v 0.3 1 0
v 0.3 1 -0.1
v 0.3 1.1 -0.1
v 0.3 1.1 -0.2
v 0.4 0.3 0.1
v 0.4 0.3 -0.1
v 0.4 0.4 0.1
v 0.4 0.4 -0.1
v 0.4 0.5 0.1
v 0.4 0.5 -0.1
v 0.4 0.6 0.1
v 0.4 0.6 -0.1
v 0.4 0.9 0.3
v 0.4 0.9 0.1
v 0.4 0.9 0
v 0.4 0.9 -0.1
v 0.4 1 0.1
v 0.4 1 0
v 0.4 1 -0.1
v 0.4 1.1 0.5
v 0.4 1.1 0.3
v 0.4 1.1 0
v 0.4 1.1 -0.1
v 0.4 1.1 -0.2
v 0.4 1.2 0.5
v 0.4 1.2 0.3
v 0.4 1.4 0.3
v 0.4 1.4 -0.2
v -0.4 1.1 0.5
v -0.4 1.2 0.5
v 0.4 1.1 0.5
v 0.4 1.2 0.5
v -0.4 0.9 0.3
v -0.4 1.1 0.3
v -0.4 1.2 0.3
v -0.4 1.4 0.3
v -0.3 0.8 0.3
v -0.3 0.9 0.3
v 0.3 0.8 0.3
v 0.3 0.9 0.3
v 0.4 0.9 0.3
v 0.4 1.1 0.3
v 0.4 1.2 0.3
v 0.4 1.4 0.3
v -0.3 0.7 0.2
v -0.3 0.8 0.2
v 0.3 0.7 0.2
v 0.3 0.8 0.2
v -0.4 0.3 0.1
v -0.4 0.4 0.1
v -0.4 0.5 0.1
v -0.4 0.6 0.1
v -0.3 0 0.1
v -0.3 0.1 0.1
v -0.3 0.3 0.1
v -0.3 0.4 0.1
v -0.3 0.5 0.1
v -0.1 0 0.1
v -0.1 0.1 0.1
v -0.1 0.2 0.1
v -0.1 0.4 0.1
v -0.1 0.5 0.1
v -0.1 0.6 0.1
v -0.1 0.7 0.1
v 0.1 0 0.1
v 0.1 0.1 0.1
v 0.1 0.2 0.1
v 0.1 0.4 0.1
v 0.1 0.5 0.1
v 0.1 0.6 0.1
v 0.1 0.7 0.1
v 0.3 0 0.1
v 0.3 0.1 0.1
v 0.3 0.3 0.1
v 0.3 0.4 0.1
v 0.3 0.5 0.1
v 0.4 0.3 0.1
v 0.4 0.4 0.1
v 0.4 0.5 0.1
v 0.4 0.6 0.1
v 0.3 0.9 0
v 0.3 1 0
v 0.4 0.9 0
v 0.4 1 0
v 0.3 0.9 0.1
v 0.3 1 0.1
v 0.4 0.9 0.1
v 0.4 1 0.1
v -0.4 0.3 -0.1
v -0.4 0.4 -0.1
v -0.4 0.5 -0.1
v -0.4 0.6 -0.1
v -0.4 0.9 -0.1
v -0.4 1.1 -0.1
v -0.3 0.1 -0.1
v -0.3 0.3 -0.1
v -0.3 0.4 -0.1
v -0.3 0.5 -0.1
v -0.3 0.9 -0.1
v -0.3 1.1 -0.1
v -0.1 0.1 -0.1
v -0.1 0.2 -0.1
v -0.1 0.6 -0.1
v -0.1 0.7 -0.1
v 0.1 0.1 -0.1
v 0.1 0.2 -0.1
v 0.1 0.4 -0.1
v 0.1 0.5 -0.1
v 0.1 0.6 -0.1
v 0.1 0.7 -0.1
v 0.2 0.4 -0.1
v 0.2 0.5 -0.1
v 0.3 0.1 -0.1
v 0.3 0.3 -0.1
v 0.3 0.4 -0.1
v 0.3 0.5 -0.1
v 0.3 0.9 -0.1
v 0.3 1 -0.1
v 0.3 1.1 -0.1
v 0.4 0.3 -0.1
v 0.4 0.4 -0.1
v 0.4 0.5 -0.1
v 0.4 0.6 -0.1
v 0.4 0.9 -0.1
v 0.4 1 -0.1
v 0.4 1.1 -0.1
v -0.4 1.1 -0.2
v -0.4 1.4 -0.2
v -0.3 0 -0.2
v -0.3 0.1 -0.2
v -0.3 0.7 -0.2
v -0.3 0.9 -0.2
v -0.3 1.1 -0.2
v -0.2 0.9 -0.2
v -0.2 1 -0.2
v -0.1 0 -0.2
v -0.1 0.1 -0.2
v -0.1 0.7 -0.2
v -0.1 0.8 -0.2
v -0.1 0.9 -0.2
v -0.1 1 -0.2
v -0.1 1.1 -0.2
v -0.1 1.2 -0.2
v -0.1 1.3 -0.2
v 0.1 0 -0.2
v 0.1 0.1 -0.2
v 0.1 0.7 -0.2
v 0.1 0.8 -0.2
v 0.1 0.9 -0.2
v 0.1 1 -0.2
v 0.1 1.1 -0.2
v 0.1 1.2 -0.2
v 0.1 1.3 -0.2
v 0.2 0.9 -0.2
v 0.2 1 -0.2
v 0.3 0 -0.2
v 0.3 0.1 -0.2
v 0.3 0.7 -0.2
v 0.3 0.9 -0.2
v 0.3 1.1 -0.2
v 0.4 1.1 -0.2
v 0.4 1.4 -0.2
v -0.3 0 0.1
v -0.1 0 0.1
v 0.1 0 0.1
v 0.3 0 0.1
v -0.3 0 -0.2
v -0.1 0 -0.2
v 0.1 0 -0.2
v 0.3 0 -0.2
v -0.1 0.2 0.1
v 0.1 0.2 0.1
v -0.1 0.2 -0.1
v 0.1 0.2 -0.1
v -0.4 0.3 0.1
v -0.3 0.3 0.1
v 0.3 0.3 0.1
v 0.4 0.3 0.1
v -0.4 0.3 -0.1
v -0.3 0.3 -0.1
v 0.3 0.3 -0.1
v 0.4 0.3 -0.1
v -0.3 0.7 0.2
v 0.3 0.7 0.2
v -0.1 0.7 0.1
v 0.1 0.7 0.1
v -0.1 0.7 -0.1
v 0.1 0.7 -0.1
v -0.3 0.7 -0.2
v -0.1 0.7 -0.2
v 0.1 0.7 -0.2
v 0.3 0.7 -0.2
v -0.3 0.8 0.3
v 0.3 0.8 0.3
v -0.3 0.8 0.2
v 0.3 0.8 0.2
v -0.4 0.9 0.3
v -0.3 0.9 0.3
v 0.3 0.9 0.3
v 0.4 0.9 0.3
v -0.3 0.9 0.2
v 0.3 0.9 0.2
v 0.3 0.9 0.1
v 0.4 0.9 0.1
v -0.4 0.9 0
v -0.3 0.9 0
v 0.3 0.9 0
v 0.4 0.9 0
v -0.4 0.9 -0.1
v -0.3 0.9 -0.1
v 0.3 0.9 -0.1
v 0.4 0.9 -0.1
v 0.3 1 0.1
v 0.4 1 0.1
v 0.3 1 0
v 0.4 1 0
v -0.4 1.1 0.5
v 0.4 1.1 0.5
v -0.4 1.1 0.3
v 0.4 1.1 0.3
v -0.4 1.1 -0.1
v -0.3 1.1 -0.1
v 0.3 1.1 -0.1
v 0.4 1.1 -0.1
v -0.4 1.1 -0.2
v -0.3 1.1 -0.2
v 0.3 1.1 -0.2
v 0.4 1.1 -0.2
v -0.3 0.1 -0.1
v -0.1 0.1 -0.1
v 0.1 0.1 -0.1
v 0.3 0.1 -0.1
v -0.3 0.1 -0.2
v -0.1 0.1 -0.2
v 0.1 0.1 -0.2
v 0.3 0.1 -0.2
v -0.4 0.6 0.1
v -0.1 0.6 0.1
v 0.1 0.6 0.1
v 0.4 0.6 0.1
v -0.4 0.6 -0.1
v -0.1 0.6 -0.1
v 0.1 0.6 -0.1
v 0.4 0.6 -0.1
v -0.4 1.2 0.5
v 0.4 1.2 0.5
v -0.4 1.2 0.3
v 0.4 1.2 0.3
v -0.4 1.4 0.3
v 0.4 1.4 0.3
v -0.4 1.4 -0.2
v 0.4 1.4 -0.2

# faces
f 3/2/1 2/2/1 1/2/1
f 4/2/1 2/2/1 3/2/1
f 5/9/1 4/9/1 3/9/1
f 6/9/1 4/9/1 5/9/1
f 7/5/1 6/5/1 5/5/1
f 8/5/1 6/5/1 7/5/1
f 13/3/1 10/3/1 9/3/1
f 14/2/1 11/2/1 10/2/1
f 14/3/1 10/3/1 13/3/1
f 15/2/1 11/2/1 14/2/1
f 17/6/1 15/6/1 14/6/1
f 17/6/1 16/6/1 15/6/1
f 17/6/1 13/6/1 12/6/1
f 17/6/1 14/6/1 13/6/1
f 18/6/1 16/6/1 17/6/1
f 19/6/1 16/6/1 18/6/1
f 20/6/1 16/6/1 19/6/1
f 23/2/1 22/2/1 21/2/1
f 24/2/1 22/2/1 23/2/1
f 25/2/1 22/2/1 24/2/1
f 26/7/1 24/7/1 23/7/1
f 27/7/1 24/7/1 26/7/1
f 31/2/1 29/2/1 28/2/1
f 32/3/1 31/3/1 30/3/1
f 33/2/1 29/2/1 31/2/1
f 33/3/1 31/3/1 32/3/1
f 34/2/1 29/2/1 33/2/1
f 35/2/1 29/2/1 34/2/1
f 36/2/1 29/2/1 35/2/1
f 37/8/1 36/8/1 35/8/1
f 38/8/1 36/8/1 37/8/1
f 41/2/1 40/2/1 39/2/1
f 42/2/1 40/2/1 41/2/1
f 45/2/1 44/2/1 43/2/1
f 46/2/1 44/2/1 45/2/1
f 47/2/1 44/2/1 46/2/1
f 48/7/1 46/7/1 45/7/1
f 49/7/1 46/7/1 48/7/1
f 50/2/2 51/2/2 52/2/2
f 52/2/2 51/2/2 53/2/2
f 53/2/2 51/2/2 54/2/2
f 52/7/2 53/7/2 55/7/2
f 55/7/2 53/7/2 56/7/2
f 57/2/2 58/2/2 59/2/2
f 59/2/2 58/2/2 60/2/2
f 61/2/2 62/2/2 63/2/2
f 63/2/2 62/2/2 64/2/2
f 64/2/2 62/2/2 65/2/2
f 63/7/2 64/7/2 66/7/2
f 66/7/2 64/7/2 67/7/2
f 68/2/2 69/2/2 71/2/2
f 70/3/2 71/3/2 72/3/2
f 71/2/2 69/2/2 73/2/2
f 72/3/2 71/3/2 73/3/2
f 73/2/2 69/2/2 74/2/2
f 74/2/2 69/2/2 75/2/2
f 75/2/2 69/2/2 76/2/2
f 76/2/2 69/2/2 77/2/2
f 74/2/2 75/2/2 78/2/2
f 78/2/2 75/2/2 79/2/2
f 76/8/2 77/8/2 80/8/2
f 80/8/2 77/8/2 81/8/2
f 81/8/2 77/8/2 82/8/2
f 83/2/2 84/2/2 85/2/2
f 85/2/2 84/2/2 86/2/2
f 85/9/2 86/9/2 87/9/2
f 87/9/2 86/9/2 88/9/2
f 87/5/2 88/5/2 89/5/2
f 89/5/2 88/5/2 90/5/2
f 91/3/2 92/3/2 95/3/2
f 93/4/2 94/4/2 96/4/2
f 96/4/2 94/4/2 97/4/2
f 91/3/2 95/3/2 99/3/2
f 95/3/2 96/3/2 99/3/2
f 96/2/2 97/2/2 100/2/2
f 99/3/2 96/3/2 100/3/2
f 100/2/2 97/2/2 101/2/2
f 100/6/2 101/6/2 103/6/2
f 101/6/2 102/6/2 103/6/2
f 99/6/2 100/6/2 103/6/2
f 98/6/2 99/6/2 103/6/2
f 103/6/2 102/6/2 104/6/2
f 104/6/2 102/6/2 105/6/2
f 105/6/2 102/6/2 106/6/2
f 109/6/3 108/6/3 107/6/3
f 110/6/3 108/6/3 109/6/3
f 116/3/3 112/3/3 111/3/3
f 117/3/3 116/3/3 115/3/3
f 118/3/3 112/3/3 116/3/3
f 118/3/3 116/3/3 117/3/3
f 119/3/3 112/3/3 118/3/3
f 120/3/3 112/3/3 119/3/3
f 121/6/3 114/6/3 113/6/3
f 122/6/3 114/6/3 121/6/3
f 125/2/3 124/2/3 123/2/3
f 126/2/3 124/2/3 125/2/3
f 133/2/3 128/2/3 127/2/3
f 134/9/3 129/9/3 128/9/3
f 134/2/3 128/2/3 133/2/3
f 135/5/3 130/5/3 129/5/3
f 135/9/3 129/9/3 134/9/3
f 136/2/3 132/2/3 131/2/3
f 137/7/3 133/7/3 132/7/3
f 137/2/3 132/2/3 136/2/3
f 138/7/3 133/7/3 137/7/3
f 139/5/3 134/5/3 133/5/3
f 139/5/3 135/5/3 134/5/3
f 140/5/3 130/5/3 135/5/3
f 140/5/3 135/5/3 139/5/3
f 141/5/3 130/5/3 140/5/3
f 145/7/3 133/7/3 138/7/3
f 146/5/3 139/5/3 133/5/3
f 146/9/3 140/9/3 139/9/3
f 147/5/3 141/5/3 140/5/3
f 147/9/3 140/9/3 146/9/3
f 148/2/3 142/2/3 141/2/3
f 148/5/3 141/5/3 147/5/3
f 149/2/3 142/2/3 148/2/3
f 150/2/3 144/2/3 143/2/3
f 151/7/3 145/7/3 144/7/3
f 151/2/3 144/2/3 150/2/3
f 152/5/3 147/5/3 146/5/3
f 152/7/3 145/7/3 151/7/3
f 152/5/3 146/5/3 133/5/3
f 152/5/3 148/5/3 147/5/3
f 152/7/3 133/7/3 145/7/3
f 153/5/3 148/5/3 152/5/3
f 154/5/3 148/5/3 153/5/3
f 155/2/3 153/2/3 152/2/3
f 156/9/3 154/9/3 153/9/3
f 156/2/3 153/2/3 155/2/3
f 157/5/3 148/5/3 154/5/3
f 157/9/3 154/9/3 156/9/3
f 158/5/3 148/5/3 157/5/3
f 161/4/3 160/4/3 159/4/3
f 162/4/3 160/4/3 161/4/3
f 163/3/4 164/3/4 165/3/4
f 165/3/4 164/3/4 166/3/4
f 167/2/4 168/2/4 174/2/4
f 168/9/4 169/9/4 175/9/4
f 174/2/4 168/2/4 175/2/4
f 169/5/4 170/5/4 176/5/4
f 175/9/4 169/9/4 176/9/4
f 171/2/4 172/2/4 177/2/4
f 177/2/4 172/2/4 178/2/4
f 173/7/4 174/7/4 179/7/4
f 179/7/4 174/7/4 180/7/4
f 176/5/4 170/5/4 181/5/4
f 174/5/4 175/5/4 181/5/4
f 175/5/4 176/5/4 181/5/4
f 180/7/4 174/7/4 184/7/4
f 174/5/4 181/5/4 185/5/4
f 185/5/4 181/5/4 186/5/4
f 181/2/4 182/2/4 187/2/4
f 186/5/4 181/5/4 187/5/4
f 187/2/4 182/2/4 188/2/4
f 185/9/4 186/9/4 189/9/4
f 174/5/4 185/5/4 189/5/4
f 186/5/4 187/5/4 190/5/4
f 189/9/4 186/9/4 190/9/4
f 183/7/4 184/7/4 191/7/4
f 184/7/4 174/7/4 192/7/4
f 191/7/4 184/7/4 192/7/4
f 174/5/4 189/5/4 192/5/4
f 189/5/4 190/5/4 192/5/4
f 192/5/4 190/5/4 193/5/4
f 190/5/4 187/5/4 194/5/4
f 193/5/4 190/5/4 194/5/4
f 192/2/4 193/2/4 198/2/4
f 193/9/4 194/9/4 199/9/4
f 198/2/4 193/2/4 199/2/4
f 194/5/4 187/5/4 200/5/4
f 199/9/4 194/9/4 200/9/4
f 200/5/4 187/5/4 201/5/4
f 195/4/4 196/4/4 202/4/4
f 196/2/4 197/2/4 203/2/4
f 202/4/4 196/4/4 203/4/4
f 203/2/4 197/2/4 204/2/4
f 205/6/4 206/6/4 211/6/4
f 209/2/4 210/2/4 212/2/4
f 210/8/4 211/8/4 212/8/4
f 212/8/4 211/8/4 213/8/4
f 207/2/4 208/2/4 214/2/4
f 214/2/4 208/2/4 215/2/4
f 209/2/4 212/2/4 216/2/4
f 216/2/4 212/2/4 217/2/4
f 212/3/4 213/3/4 218/3/4
f 217/2/4 212/2/4 218/2/4
f 213/8/4 211/8/4 219/8/4
f 218/3/4 213/3/4 219/3/4
f 211/6/4 206/6/4 220/6/4
f 219/8/4 211/8/4 220/8/4
f 220/6/4 206/6/4 221/6/4
f 221/6/4 206/6/4 222/6/4
f 216/1/4 217/1/4 225/1/4
f 218/2/4 219/2/4 226/2/4
f 225/1/4 217/1/4 226/1/4
f 217/2/4 218/2/4 226/2/4
f 219/2/4 220/2/4 226/2/4
f 226/2/4 220/2/4 227/2/4
f 227/2/4 220/2/4 228/2/4
f 220/6/4 221/6/4 229/6/4
f 228/2/4 220/2/4 229/2/4
f 221/2/4 222/2/4 230/2/4
f 229/6/4 221/6/4 230/6/4
f 222/6/4 206/6/4 231/6/4
f 230/2/4 222/2/4 231/2/4
f 227/3/4 228/3/4 232/3/4
f 225/2/4 226/2/4 232/2/4
f 226/2/4 227/2/4 232/2/4
f 228/8/4 229/8/4 233/8/4
f 232/3/4 228/3/4 233/3/4
f 223/2/4 224/2/4 234/2/4
f 234/2/4 224/2/4 235/2/4
f 225/2/4 232/2/4 236/2/4
f 232/8/4 233/8/4 237/8/4
f 236/2/4 232/2/4 237/2/4
f 229/6/4 230/6/4 238/6/4
f 237/8/4 233/8/4 238/8/4
f 233/8/4 229/8/4 238/8/4
f 230/6/4 231/6/4 238/6/4
f 238/6/4 231/6/4 239/6/4
f 231/6/4 206/6/4 240/6/4
f 239/6/4 231/6/4 240/6/4
f 245/2/5 242/2/5 241/2/5
f 246/2/5 242/2/5 245/2/5
f 247/2/5 244/2/5 243/2/5
f 248/2/5 244/2/5 247/2/5
f 251/7/5 250/7/5 249/7/5
f 252/7/5 250/7/5 251/7/5
f 257/2/5 254/2/5 253/2/5
f 258/2/5 254/2/5 257/2/5
f 259/2/5 256/2/5 255/2/5
f 260/2/5 256/2/5 259/2/5
f 263/2/5 262/2/5 261/2/5
f 264/2/5 262/2/5 263/2/5
f 265/2/5 263/2/5 261/2/5
f 266/2/5 262/2/5 264/2/5
f 267/2/5 265/2/5 261/2/5
f 268/1/5 266/1/5 265/1/5
f 268/2/5 265/2/5 267/2/5
f 269/2/5 262/2/5 266/2/5
f 269/1/5 266/1/5 268/1/5
f 270/2/5 262/2/5 269/2/5
f 273/3/5 272/3/5 271/3/5
f 274/3/5 272/3/5 273/3/5
f 279/3/5 276/3/5 275/3/5
f 280/3/5 278/3/5 277/3/5
f 281/3/5 278/3/5 280/3/5
f 282/3/5 278/3/5 281/3/5
f 283/3/5 279/3/5 275/3/5
f 284/3/5 279/3/5 283/3/5
f 287/2/5 284/2/5 283/2/5
f 288/2/5 284/2/5 287/2/5
f 289/4/5 286/4/5 285/4/5
f 290/4/5 286/4/5 289/4/5
f 293/3/5 292/3/5 291/3/5
f 294/3/5 292/3/5 293/3/5
f 297/6/5 296/6/5 295/6/5
f 298/6/5 296/6/5 297/6/5
f 303/6/5 300/6/5 299/6/5
f 304/6/5 300/6/5 303/6/5
f 305/6/5 302/6/5 301/6/5
f 306/6/5 302/6/5 305/6/5
f 307/2/6 308/2/6 311/2/6
f 311/2/6 308/2/6 312/2/6
f 309/2/6 310/2/6 313/2/6
f 313/2/6 310/2/6 314/2/6
f 315/5/6 316/5/6 319/5/6
f 319/5/6 316/5/6 320/5/6
f 317/5/6 318/5/6 321/5/6
f 321/5/6 318/5/6 322/5/6
f 323/6/6 324/6/6 325/6/6
f 325/6/6 324/6/6 326/6/6
f 327/6/6 328/6/6 329/6/6
f 329/6/6 328/6/6 330/6/6
