# MagicaVoxel @ Ephtracy

# group
o 

# material
mtllib arvorepequena.mtl
usemtl palette

# normals
vn -1 0 0
vn 1 0 0
vn 0 0 1
vn 0 0 -1
vn 0 -1 0
vn 0 1 0

# texcoords
vt 0.0527344 0.5
vt 0.115234 0.5
vt 0.119141 0.5

# verts
v -9 1.1 2.4
v -9 1.1 1.8
v -9 2.6 2.2
v -9 2.6 2.1
v -9 2.6 1.9
v -9 2.6 1.8
v -9 2.7 2.4
v -9 2.7 2.3
v -9 2.7 1.9
v -9 2.7 1.8
v -9 2.8 2.3
v -9 2.8 2.2
v -9 2.8 1.9
v -9 2.8 1.8
v -9 2.9 2.1
v -9 2.9 1.9
v -9 3.1 2.4
v -9 3.1 1.8
v -8.9 1 2.4
v -8.9 1 1.8
v -8.9 1.1 2.5
v -8.9 1.1 2.4
v -8.9 1.1 1.8
v -8.9 1.1 1.7
v -8.9 2.6 1.8
v -8.9 2.7 2.5
v -8.9 2.7 2.4
v -8.9 2.7 1.8
v -8.9 2.7 1.7
v -8.9 2.8 1.8
v -8.9 3.1 2.5
v -8.9 3.1 2.4
v -8.9 3.1 2.3
v -8.9 3.1 1.9
v -8.9 3.1 1.8
v -8.9 3.1 1.7
v -8.9 3.2 2.3
v -8.9 3.2 1.9
v -8.8 3.1 2.4
v -8.8 3.1 2.3
v -8.8 3.1 1.9
v -8.8 3.1 1.8
v -8.8 3.2 2.4
v -8.8 3.2 2.3
v -8.8 3.2 1.9
v -8.8 3.2 1.8
v -8.7 0 2.2
v -8.7 0 2
v -8.7 1 2.2
v -8.7 1 2
v -8.5 0 2.2
v -8.5 0 2
v -8.5 1 2.2
v -8.5 1 2
v -8.4 1 1.9
v -8.4 1 1.8
v -8.4 1.1 1.9
v -8.4 1.1 1.8
v -8.4 3.1 2.4
v -8.4 3.1 2.3
v -8.4 3.1 1.9
v -8.4 3.1 1.8
v -8.4 3.2 2.4
v -8.4 3.2 2.3
v -8.4 3.2 1.9
v -8.4 3.2 1.8
v -8.3 1 2.4
v -8.3 1 1.9
v -8.3 1.1 2.5
v -8.3 1.1 2.4
v -8.3 1.1 1.9
v -8.3 1.1 1.8
v -8.3 1.1 1.7
v -8.3 2.6 2.4
v -8.3 2.6 1.8
v -8.3 2.6 1.7
v -8.3 2.7 2.5
v -8.3 2.7 2.4
v -8.3 2.7 1.8
v -8.3 2.7 1.7
v -8.3 2.8 2.4
v -8.3 2.8 1.8
v -8.3 2.8 1.7
v -8.3 3.1 2.5
v -8.3 3.1 2.4
v -8.3 3.1 2.3
v -8.3 3.1 1.9
v -8.3 3.1 1.8
v -8.3 3.1 1.7
v -8.3 3.2 2.3
v -8.3 3.2 1.9
v -8.2 1.1 2.4
v -8.2 1.1 1.8
v -8.2 2.6 2.4
v -8.2 2.6 2.3
v -8.2 2.6 2.1
v -8.2 2.6 2
v -8.2 2.7 2.4
v -8.2 2.7 2.3
v -8.2 2.7 1.9
v -8.2 2.7 1.8
v -8.2 2.8 2.4
v -8.2 2.8 2.3
v -8.2 2.8 2
v -8.2 2.8 1.9
v -8.2 2.9 2.3
v -8.2 2.9 2.1
v -8.2 3.1 2.4
v -8.2 3.1 1.8
v -8.9 1.1 2.5
v -8.9 2.7 2.5
v -8.9 3.1 2.5
v -8.8 2.7 2.5
v -8.8 2.8 2.5
v -8.6 2.5 2.5
v -8.6 2.7 2.5
v -8.5 2.5 2.5
v -8.5 2.7 2.5
v -8.5 2.8 2.5
v -8.3 1.1 2.5
v -8.3 2.7 2.5
v -8.3 3.1 2.5
v -9 1.1 2.4
v -9 2.7 2.4
v -9 3.1 2.4
v -8.9 1 2.4
v -8.9 1.1 2.4
v -8.9 2.7 2.4
v -8.9 3.1 2.4
v -8.8 3.1 2.4
v -8.8 3.2 2.4
v -8.4 3.1 2.4
v -8.4 3.2 2.4
v -8.3 1 2.4
v -8.3 1.1 2.4
v -8.3 2.6 2.4
v -8.3 2.7 2.4
v -8.3 2.8 2.4
v -8.3 3.1 2.4
v -8.2 1.1 2.4
v -8.2 2.6 2.4
v -8.2 2.7 2.4
v -8.2 2.8 2.4
v -8.2 3.1 2.4
v -8.9 3.1 2.3
v -8.9 3.2 2.3
v -8.8 3.1 2.3
v -8.8 3.2 2.3
v -8.4 3.1 2.3
v -8.4 3.2 2.3
v -8.3 3.1 2.3
v -8.3 3.2 2.3
v -8.7 0 2.2
v -8.7 1 2.2
v -8.5 0 2.2
v -8.5 1 2.2
v -8.7 0 2
v -8.7 1 2
v -8.5 0 2
v -8.5 1 2
v -8.9 3.1 1.9
v -8.9 3.2 1.9
v -8.8 3.1 1.9
v -8.8 3.2 1.9
v -8.4 1 1.9
v -8.4 1.1 1.9
v -8.4 3.1 1.9
v -8.4 3.2 1.9
v -8.3 1 1.9
v -8.3 1.1 1.9
v -8.3 3.1 1.9
v -8.3 3.2 1.9
v -9 1.1 1.8
v -9 2.6 1.8
v -9 2.7 1.8
v -9 2.8 1.8
v -9 3.1 1.8
v -8.9 1 1.8
v -8.9 1.1 1.8
v -8.9 2.6 1.8
v -8.9 2.7 1.8
v -8.9 2.8 1.8
v -8.9 3.1 1.8
v -8.8 3.1 1.8
v -8.8 3.2 1.8
v -8.4 1 1.8
v -8.4 1.1 1.8
v -8.4 3.1 1.8
v -8.4 3.2 1.8
v -8.3 1.1 1.8
v -8.3 2.6 1.8
v -8.3 2.7 1.8
v -8.3 2.8 1.8
v -8.3 3.1 1.8
v -8.2 1.1 1.8
v -8.2 2.7 1.8
v -8.2 3.1 1.8
v -8.9 1.1 1.7
v -8.9 2.7 1.7
v -8.9 3.1 1.7
v -8.8 2.7 1.7
v -8.8 2.8 1.7
v -8.7 2.6 1.7
v -8.7 2.8 1.7
v -8.6 2.6 1.7
v -8.6 2.9 1.7
v -8.4 2.6 1.7
v -8.4 2.7 1.7
v -8.4 2.8 1.7
v -8.4 2.9 1.7
v -8.3 1.1 1.7
v -8.3 2.6 1.7
v -8.3 2.7 1.7
v -8.3 2.8 1.7
v -8.3 3.1 1.7
v -8.7 0 2.2
v -8.5 0 2.2
v -8.7 0 2
v -8.5 0 2
v -8.9 1 2.4
v -8.3 1 2.4
v -8.7 1 2.2
v -8.5 1 2.2
v -8.7 1 2
v -8.5 1 2
v -8.4 1 1.9
v -8.3 1 1.9
v -8.9 1 1.8
v -8.4 1 1.8
v -8.9 1.1 2.5
v -8.3 1.1 2.5
v -9 1.1 2.4
v -8.9 1.1 2.4
v -8.3 1.1 2.4
v -8.2 1.1 2.4
v -8.4 1.1 1.9
v -8.3 1.1 1.9
v -9 1.1 1.8
v -8.9 1.1 1.8
v -8.4 1.1 1.8
v -8.3 1.1 1.8
v -8.2 1.1 1.8
v -8.9 1.1 1.7
v -8.3 1.1 1.7
v -8.9 3.1 2.5
v -8.3 3.1 2.5
v -9 3.1 2.4
v -8.9 3.1 2.4
v -8.8 3.1 2.4
v -8.4 3.1 2.4
v -8.3 3.1 2.4
v -8.2 3.1 2.4
v -8.9 3.1 2.3
v -8.8 3.1 2.3
v -8.4 3.1 2.3
v -8.3 3.1 2.3
v -8.9 3.1 1.9
v -8.8 3.1 1.9
v -8.4 3.1 1.9
v -8.3 3.1 1.9
v -9 3.1 1.8
v -8.9 3.1 1.8
v -8.8 3.1 1.8
v -8.4 3.1 1.8
v -8.3 3.1 1.8
v -8.2 3.1 1.8
v -8.9 3.1 1.7
v -8.3 3.1 1.7
v -8.8 3.2 2.4
v -8.4 3.2 2.4
v -8.9 3.2 2.3
v -8.8 3.2 2.3
v -8.4 3.2 2.3
v -8.3 3.2 2.3
v -8.9 3.2 1.9
v -8.8 3.2 1.9
v -8.4 3.2 1.9
v -8.3 3.2 1.9
v -8.8 3.2 1.8
v -8.4 3.2 1.8

# faces
f 3/2/1 2/2/1 1/2/1
f 4/2/1 2/2/1 3/2/1
f 5/2/1 2/2/1 4/2/1
f 6/2/1 2/2/1 5/2/1
f 7/2/1 3/2/1 1/2/1
f 8/2/1 3/2/1 7/2/1
f 9/2/1 5/2/1 4/2/1
f 9/3/1 6/3/1 5/3/1
f 10/3/1 6/3/1 9/3/1
f 11/2/1 3/2/1 8/2/1
f 11/3/1 8/3/1 7/3/1
f 12/3/1 4/3/1 3/3/1
f 12/2/1 3/2/1 11/2/1
f 13/2/1 10/2/1 9/2/1
f 13/2/1 9/2/1 4/2/1
f 14/2/1 10/2/1 13/2/1
f 15/3/1 4/3/1 12/3/1
f 15/3/1 12/3/1 11/3/1
f 15/2/1 13/2/1 4/2/1
f 16/3/1 14/3/1 13/3/1
f 16/2/1 13/2/1 15/2/1
f 17/3/1 11/3/1 7/3/1
f 17/3/1 15/3/1 11/3/1
f 17/3/1 16/3/1 15/3/1
f 18/3/1 14/3/1 16/3/1
f 18/3/1 16/3/1 17/3/1
f 22/2/1 20/2/1 19/2/1
f 23/2/1 20/2/1 22/2/1
f 25/2/1 24/2/1 23/2/1
f 26/2/1 22/2/1 21/2/1
f 27/2/1 22/2/1 26/2/1
f 28/2/1 24/2/1 25/2/1
f 29/2/1 24/2/1 28/2/1
f 30/3/1 29/3/1 28/3/1
f 31/3/1 27/3/1 26/3/1
f 32/3/1 27/3/1 31/3/1
f 35/3/1 29/3/1 30/3/1
f 36/3/1 29/3/1 35/3/1
f 37/3/1 34/3/1 33/3/1
f 38/3/1 34/3/1 37/3/1
f 43/3/1 40/3/1 39/3/1
f 44/3/1 40/3/1 43/3/1
f 45/3/1 42/3/1 41/3/1
f 46/3/1 42/3/1 45/3/1
f 49/1/1 48/1/1 47/1/1
f 50/1/1 48/1/1 49/1/1
f 51/1/2 52/1/2 53/1/2
f 53/1/2 52/1/2 54/1/2
f 55/2/2 56/2/2 57/2/2
f 57/2/2 56/2/2 58/2/2
f 59/3/2 60/3/2 63/3/2
f 63/3/2 60/3/2 64/3/2
f 61/3/2 62/3/2 65/3/2
f 65/3/2 62/3/2 66/3/2
f 67/2/2 68/2/2 70/2/2
f 70/2/2 68/2/2 71/2/2
f 69/2/2 70/2/2 74/2/2
f 72/2/2 73/2/2 75/2/2
f 75/2/2 73/2/2 76/2/2
f 69/2/2 74/2/2 77/2/2
f 77/2/2 74/2/2 78/2/2
f 75/3/2 76/3/2 79/3/2
f 79/3/2 76/3/2 80/3/2
f 77/3/2 78/3/2 81/3/2
f 79/2/2 80/2/2 82/2/2
f 82/2/2 80/2/2 83/2/2
f 77/3/2 81/3/2 84/3/2
f 84/3/2 81/3/2 85/3/2
f 82/3/2 83/3/2 88/3/2
f 88/3/2 83/3/2 89/3/2
f 86/3/2 87/3/2 90/3/2
f 90/3/2 87/3/2 91/3/2
f 92/2/2 93/2/2 94/2/2
f 94/2/2 93/2/2 95/2/2
f 95/2/2 93/2/2 96/2/2
f 96/2/2 93/2/2 97/2/2
f 94/3/2 95/3/2 98/3/2
f 95/2/2 96/2/2 99/2/2
f 98/3/2 95/3/2 99/3/2
f 97/2/2 93/2/2 100/2/2
f 100/2/2 93/2/2 101/2/2
f 98/2/2 99/2/2 102/2/2
f 99/2/2 96/2/2 103/2/2
f 102/2/2 99/2/2 103/2/2
f 96/3/2 97/3/2 104/3/2
f 97/2/2 100/2/2 104/2/2
f 100/3/2 101/3/2 105/3/2
f 104/2/2 100/2/2 105/2/2
f 103/2/2 96/2/2 106/2/2
f 102/3/2 103/3/2 106/3/2
f 104/3/2 105/3/2 107/3/2
f 106/2/2 96/2/2 107/2/2
f 96/3/2 104/3/2 107/3/2
f 102/3/2 106/3/2 108/3/2
f 106/3/2 107/3/2 108/3/2
f 105/3/2 101/3/2 109/3/2
f 108/3/2 107/3/2 109/3/2
f 107/3/2 105/3/2 109/3/2
f 113/2/3 111/2/3 110/2/3
f 113/3/3 112/3/3 111/3/3
f 114/3/3 112/3/3 113/3/3
f 115/2/3 113/2/3 110/2/3
f 115/2/3 114/2/3 113/2/3
f 116/2/3 114/2/3 115/2/3
f 117/2/3 115/2/3 110/2/3
f 117/3/3 116/3/3 115/3/3
f 118/2/3 114/2/3 116/2/3
f 118/3/3 116/3/3 117/3/3
f 119/3/3 112/3/3 114/3/3
f 119/2/3 114/2/3 118/2/3
f 120/2/3 118/2/3 117/2/3
f 120/2/3 117/2/3 110/2/3
f 121/3/3 119/3/3 118/3/3
f 121/2/3 118/2/3 120/2/3
f 122/3/3 112/3/3 119/3/3
f 122/3/3 119/3/3 121/3/3
f 127/2/3 124/2/3 123/2/3
f 128/3/3 125/3/3 124/3/3
f 128/2/3 124/2/3 127/2/3
f 129/3/3 125/3/3 128/3/3
f 132/3/3 131/3/3 130/3/3
f 133/3/3 131/3/3 132/3/3
f 134/2/3 127/2/3 126/2/3
f 135/2/3 127/2/3 134/2/3
f 140/2/3 136/2/3 135/2/3
f 141/3/3 137/3/3 136/3/3
f 141/2/3 136/2/3 140/2/3
f 142/2/3 138/2/3 137/2/3
f 142/3/3 137/3/3 141/3/3
f 143/3/3 139/3/3 138/3/3
f 143/2/3 138/2/3 142/2/3
f 144/3/3 139/3/3 143/3/3
f 147/3/3 146/3/3 145/3/3
f 148/3/3 146/3/3 147/3/3
f 151/3/3 150/3/3 149/3/3
f 152/3/3 150/3/3 151/3/3
f 155/1/3 154/1/3 153/1/3
f 156/1/3 154/1/3 155/1/3
f 157/1/4 158/1/4 159/1/4
f 159/1/4 158/1/4 160/1/4
f 161/3/4 162/3/4 163/3/4
f 163/3/4 162/3/4 164/3/4
f 165/2/4 166/2/4 169/2/4
f 169/2/4 166/2/4 170/2/4
f 167/3/4 168/3/4 171/3/4
f 171/3/4 168/3/4 172/3/4
f 173/2/4 174/2/4 179/2/4
f 174/3/4 175/3/4 180/3/4
f 179/2/4 174/2/4 180/2/4
f 175/2/4 176/2/4 181/2/4
f 180/3/4 175/3/4 181/3/4
f 176/3/4 177/3/4 182/3/4
f 181/2/4 176/2/4 182/2/4
f 182/3/4 177/3/4 183/3/4
f 178/2/4 179/2/4 186/2/4
f 186/2/4 179/2/4 187/2/4
f 184/3/4 185/3/4 188/3/4
f 188/3/4 185/3/4 189/3/4
f 190/2/4 191/2/4 195/2/4
f 191/2/4 192/2/4 195/2/4
f 193/3/4 194/3/4 196/3/4
f 195/2/4 192/2/4 196/2/4
f 192/3/4 193/3/4 196/3/4
f 196/3/4 194/3/4 197/3/4
f 198/2/4 199/2/4 201/2/4
f 199/3/4 200/3/4 201/3/4
f 201/3/4 200/3/4 202/3/4
f 198/2/4 201/2/4 203/2/4
f 201/2/4 202/2/4 203/2/4
f 202/3/4 200/3/4 204/3/4
f 203/2/4 202/2/4 204/2/4
f 198/2/4 203/2/4 205/2/4
f 203/3/4 204/3/4 205/3/4
f 204/3/4 200/3/4 206/3/4
f 205/3/4 204/3/4 206/3/4
f 198/2/4 205/2/4 207/2/4
f 205/2/4 206/2/4 207/2/4
f 207/2/4 206/2/4 208/2/4
f 208/2/4 206/2/4 209/2/4
f 206/3/4 200/3/4 210/3/4
f 209/2/4 206/2/4 210/2/4
f 198/2/4 207/2/4 211/2/4
f 207/3/4 208/3/4 212/3/4
f 211/2/4 207/2/4 212/2/4
f 208/2/4 209/2/4 213/2/4
f 212/3/4 208/3/4 213/3/4
f 209/3/4 210/3/4 214/3/4
f 213/2/4 209/2/4 214/2/4
f 210/3/4 200/3/4 215/3/4
f 214/3/4 210/3/4 215/3/4
f 218/1/5 217/1/5 216/1/5
f 219/1/5 217/1/5 218/1/5
f 222/2/5 221/2/5 220/2/5
f 223/2/5 221/2/5 222/2/5
f 224/2/5 222/2/5 220/2/5
f 225/2/5 221/2/5 223/2/5
f 226/2/5 221/2/5 225/2/5
f 226/2/5 225/2/5 224/2/5
f 227/2/5 221/2/5 226/2/5
f 228/2/5 224/2/5 220/2/5
f 228/2/5 226/2/5 224/2/5
f 229/2/5 226/2/5 228/2/5
f 233/2/5 231/2/5 230/2/5
f 234/2/5 231/2/5 233/2/5
f 237/2/5 235/2/5 234/2/5
f 238/2/5 233/2/5 232/2/5
f 239/2/5 233/2/5 238/2/5
f 240/2/5 237/2/5 236/2/5
f 241/2/5 235/2/5 237/2/5
f 241/2/5 237/2/5 240/2/5
f 242/2/5 235/2/5 241/2/5
f 243/2/5 240/2/5 239/2/5
f 243/2/5 241/2/5 240/2/5
f 244/2/5 241/2/5 243/2/5
f 245/3/6 246/3/6 248/3/6
f 248/3/6 246/3/6 249/3/6
f 249/3/6 246/3/6 250/3/6
f 250/3/6 246/3/6 251/3/6
f 247/3/6 248/3/6 253/3/6
f 248/3/6 249/3/6 253/3/6
f 253/3/6 249/3/6 254/3/6
f 251/3/6 252/3/6 255/3/6
f 250/3/6 251/3/6 255/3/6
f 255/3/6 252/3/6 256/3/6
f 247/3/6 253/3/6 257/3/6
f 256/3/6 252/3/6 260/3/6
f 257/3/6 258/3/6 261/3/6
f 247/3/6 257/3/6 261/3/6
f 261/3/6 258/3/6 262/3/6
f 262/3/6 258/3/6 263/3/6
f 259/3/6 260/3/6 264/3/6
f 260/3/6 252/3/6 265/3/6
f 264/3/6 260/3/6 265/3/6
f 265/3/6 252/3/6 266/3/6
f 262/3/6 263/3/6 267/3/6
f 263/3/6 264/3/6 267/3/6
f 264/3/6 265/3/6 267/3/6
f 267/3/6 265/3/6 268/3/6
f 269/3/6 270/3/6 272/3/6
f 272/3/6 270/3/6 273/3/6
f 271/3/6 272/3/6 275/3/6
f 273/3/6 274/3/6 275/3/6
f 272/3/6 273/3/6 275/3/6
f 275/3/6 274/3/6 276/3/6
f 276/3/6 274/3/6 277/3/6
f 277/3/6 274/3/6 278/3/6
f 276/3/6 277/3/6 279/3/6
f 279/3/6 277/3/6 280/3/6
