# MagicaVoxel @ Ephtracy

# group
o 

# material
mtllib gasolina.mtl
usemtl palette

# normals
vn 1 0 0
vn -1 0 0
vn 0 0 -1
vn 0 0 1
vn 0 -1 0
vn 0 1 0

# texcoords
vt 0.00585938 0.5
vt 0.533203 0.5
vt 0.537109 0.5

# verts
v -10.5 0 -7.4
v -10.5 0 -6.8
v -10.5 0.1 -7.5
v -10.5 0.1 -7.4
v -10.5 0.1 -6.8
v -10.5 0.1 -6.7
v -10.5 0.2 -7.4
v -10.5 0.2 -7.3
v -10.5 0.2 -6.9
v -10.5 0.2 -6.8
v -10.5 0.3 -7.4
v -10.5 0.3 -7.3
v -10.5 0.3 -6.9
v -10.5 0.3 -6.8
v -10.5 0.4 -7.4
v -10.5 0.4 -7.3
v -10.5 0.4 -6.9
v -10.5 0.4 -6.8
v -10.5 0.5 -7.4
v -10.5 0.5 -7.3
v -10.5 0.5 -6.9
v -10.5 0.5 -6.8
v -10.5 0.6 -7.3
v -10.5 0.6 -7.2
v -10.5 0.6 -6.8
v -10.5 0.6 -6.7
v -10.5 0.7 -7.4
v -10.5 0.7 -7.3
v -10.5 0.7 -7.2
v -10.5 0.7 -7
v -10.5 0.7 -6.9
v -10.5 0.7 -6.8
v -10.5 0.8 -7.5
v -10.5 0.8 -7.4
v -10.5 0.8 -7
v -10.5 0.8 -6.9
v -10.6 0.6 -6.8
v -10.6 0.6 -6.7
v -10.6 0.7 -6.9
v -10.6 0.7 -6.8
v -10.6 0.7 -6.7
v -10.6 0.7 -6.6
v -10.6 0.8 -7.5
v -10.6 0.8 -7.4
v -10.6 0.8 -7
v -10.6 0.8 -6.9
v -10.6 0.8 -6.8
v -10.6 0.8 -6.6
v -10.6 0.8 -6.5
v -10.6 0.9 -7.5
v -10.6 0.9 -7
v -10.6 0.9 -6.8
v -10.6 0.9 -6.5
v -10.7 0.6 -6.8
v -10.7 0.6 -6.7
v -10.7 0.7 -6.9
v -10.7 0.7 -6.8
v -10.7 0.7 -6.7
v -10.7 0.7 -6.6
v -10.7 0.8 -7.5
v -10.7 0.8 -7.4
v -10.7 0.8 -7
v -10.7 0.8 -6.9
v -10.7 0.8 -6.8
v -10.7 0.8 -6.6
v -10.7 0.8 -6.5
v -10.7 0.9 -7.5
v -10.7 0.9 -7
v -10.7 0.9 -6.8
v -10.7 0.9 -6.5
v -10.8 0 -7.4
v -10.8 0 -6.8
v -10.8 0.1 -7.5
v -10.8 0.1 -7.4
v -10.8 0.1 -6.8
v -10.8 0.1 -6.7
v -10.8 0.2 -7.4
v -10.8 0.2 -7.3
v -10.8 0.2 -6.9
v -10.8 0.2 -6.8
v -10.8 0.3 -7.4
v -10.8 0.3 -7.3
v -10.8 0.3 -6.9
v -10.8 0.3 -6.8
v -10.8 0.4 -7.4
v -10.8 0.4 -7.3
v -10.8 0.4 -6.9
v -10.8 0.4 -6.8
v -10.8 0.5 -7.4
v -10.8 0.5 -7.3
v -10.8 0.5 -6.9
v -10.8 0.5 -6.8
v -10.8 0.6 -7.3
v -10.8 0.6 -7.2
v -10.8 0.6 -6.8
v -10.8 0.6 -6.7
v -10.8 0.7 -7.4
v -10.8 0.7 -7.3
v -10.8 0.7 -7.2
v -10.8 0.7 -7
v -10.8 0.7 -6.9
v -10.8 0.7 -6.8
v -10.8 0.8 -7.5
v -10.8 0.8 -7.4
v -10.8 0.8 -7
v -10.8 0.8 -6.9
v -10.5 0.1 -7.5
v -10.5 0.8 -7.5
v -10.6 0.8 -7.5
v -10.6 0.9 -7.5
v -10.7 0.8 -7.5
v -10.7 0.9 -7.5
v -10.8 0.1 -7.5
v -10.8 0.8 -7.5
v -10.5 0 -7.4
v -10.5 0.1 -7.4
v -10.8 0 -7.4
v -10.8 0.1 -7.4
v -10.5 0.6 -7.2
v -10.5 0.7 -7.2
v -10.8 0.6 -7.2
v -10.8 0.7 -7.2
v -10.5 0.7 -7
v -10.5 0.8 -7
v -10.6 0.8 -7
v -10.7 0.8 -7
v -10.8 0.7 -7
v -10.8 0.8 -7
v -10.6 0.8 -6.8
v -10.6 0.9 -6.8
v -10.7 0.8 -6.8
v -10.7 0.9 -6.8
v -10.5 0.7 -7.4
v -10.5 0.8 -7.4
v -10.6 0.8 -7.4
v -10.7 0.8 -7.4
v -10.8 0.7 -7.4
v -10.8 0.8 -7.4
v -10.5 0.6 -7.3
v -10.5 0.7 -7.3
v -10.8 0.6 -7.3
v -10.8 0.7 -7.3
v -10.6 0.8 -7
v -10.6 0.9 -7
v -10.7 0.8 -7
v -10.7 0.9 -7
v -10.5 0.7 -6.9
v -10.5 0.8 -6.9
v -10.6 0.7 -6.9
v -10.6 0.8 -6.9
v -10.7 0.7 -6.9
v -10.7 0.8 -6.9
v -10.8 0.7 -6.9
v -10.8 0.8 -6.9
v -10.5 0 -6.8
v -10.5 0.1 -6.8
v -10.5 0.6 -6.8
v -10.5 0.7 -6.8
v -10.6 0.6 -6.8
v -10.6 0.7 -6.8
v -10.7 0.6 -6.8
v -10.7 0.7 -6.8
v -10.8 0 -6.8
v -10.8 0.1 -6.8
v -10.8 0.6 -6.8
v -10.8 0.7 -6.8
v -10.5 0.1 -6.7
v -10.5 0.6 -6.7
v -10.6 0.6 -6.7
v -10.6 0.7 -6.7
v -10.7 0.6 -6.7
v -10.7 0.7 -6.7
v -10.8 0.1 -6.7
v -10.8 0.6 -6.7
v -10.6 0.7 -6.6
v -10.6 0.8 -6.6
v -10.7 0.7 -6.6
v -10.7 0.8 -6.6
v -10.6 0.8 -6.5
v -10.6 0.9 -6.5
v -10.7 0.8 -6.5
v -10.7 0.9 -6.5
v -10.5 0 -7.4
v -10.8 0 -7.4
v -10.5 0 -6.8
v -10.8 0 -6.8
v -10.5 0.1 -7.5
v -10.8 0.1 -7.5
v -10.5 0.1 -7.4
v -10.8 0.1 -7.4
v -10.5 0.1 -6.8
v -10.8 0.1 -6.8
v -10.5 0.1 -6.7
v -10.8 0.1 -6.7
v -10.6 0.7 -6.7
v -10.7 0.7 -6.7
v -10.6 0.7 -6.6
v -10.7 0.7 -6.6
v -10.6 0.8 -7.4
v -10.7 0.8 -7.4
v -10.6 0.8 -7
v -10.7 0.8 -7
v -10.6 0.8 -6.6
v -10.7 0.8 -6.6
v -10.6 0.8 -6.5
v -10.7 0.8 -6.5
v -10.5 0.6 -7.3
v -10.8 0.6 -7.3
v -10.5 0.6 -7.2
v -10.8 0.6 -7.2
v -10.5 0.6 -6.8
v -10.6 0.6 -6.8
v -10.7 0.6 -6.8
v -10.8 0.6 -6.8
v -10.5 0.6 -6.7
v -10.6 0.6 -6.7
v -10.7 0.6 -6.7
v -10.8 0.6 -6.7
v -10.5 0.7 -7.4
v -10.8 0.7 -7.4
v -10.5 0.7 -7.3
v -10.8 0.7 -7.3
v -10.5 0.7 -7.2
v -10.8 0.7 -7.2
v -10.5 0.7 -7
v -10.8 0.7 -7
v -10.5 0.7 -6.9
v -10.6 0.7 -6.9
v -10.7 0.7 -6.9
v -10.8 0.7 -6.9
v -10.5 0.7 -6.8
v -10.6 0.7 -6.8
v -10.7 0.7 -6.8
v -10.8 0.7 -6.8
v -10.5 0.8 -7.5
v -10.6 0.8 -7.5
v -10.7 0.8 -7.5
v -10.8 0.8 -7.5
v -10.5 0.8 -7.4
v -10.6 0.8 -7.4
v -10.7 0.8 -7.4
v -10.8 0.8 -7.4
v -10.5 0.8 -7
v -10.6 0.8 -7
v -10.7 0.8 -7
v -10.8 0.8 -7
v -10.5 0.8 -6.9
v -10.6 0.8 -6.9
v -10.7 0.8 -6.9
v -10.8 0.8 -6.9
v -10.6 0.8 -6.8
v -10.7 0.8 -6.8
v -10.6 0.9 -7.5
v -10.7 0.9 -7.5
v -10.6 0.9 -7
v -10.7 0.9 -7
v -10.6 0.9 -6.8
v -10.7 0.9 -6.8
v -10.6 0.9 -6.5
v -10.7 0.9 -6.5

# faces
f 4/3/1 2/3/1 1/3/1
f 5/3/1 2/3/1 4/3/1
f 7/3/1 4/3/1 3/3/1
f 7/3/1 6/3/1 5/3/1
f 7/3/1 5/3/1 4/3/1
f 8/3/1 6/3/1 7/3/1
f 9/3/1 6/3/1 8/3/1
f 10/3/1 6/3/1 9/3/1
f 11/3/1 7/3/1 3/3/1
f 11/2/1 8/2/1 7/2/1
f 12/3/1 9/3/1 8/3/1
f 12/2/1 8/2/1 11/2/1
f 13/2/1 10/2/1 9/2/1
f 13/3/1 9/3/1 12/3/1
f 14/3/1 6/3/1 10/3/1
f 14/2/1 10/2/1 13/2/1
f 15/3/1 12/3/1 11/3/1
f 15/3/1 11/3/1 3/3/1
f 16/2/1 13/2/1 12/2/1
f 16/3/1 12/3/1 15/3/1
f 17/3/1 14/3/1 13/3/1
f 17/2/1 13/2/1 16/2/1
f 18/3/1 6/3/1 14/3/1
f 18/3/1 14/3/1 17/3/1
f 19/3/1 15/3/1 3/3/1
f 19/2/1 16/2/1 15/2/1
f 20/3/1 17/3/1 16/3/1
f 20/2/1 16/2/1 19/2/1
f 21/2/1 18/2/1 17/2/1
f 21/3/1 17/3/1 20/3/1
f 22/3/1 6/3/1 18/3/1
f 22/2/1 18/2/1 21/2/1
f 23/3/1 21/3/1 20/3/1
f 23/3/1 20/3/1 19/3/1
f 23/3/1 22/3/1 21/3/1
f 24/3/1 22/3/1 23/3/1
f 25/3/1 6/3/1 22/3/1
f 25/3/1 22/3/1 24/3/1
f 26/3/1 6/3/1 25/3/1
f 27/3/1 19/3/1 3/3/1
f 27/3/1 23/3/1 19/3/1
f 28/3/1 23/3/1 27/3/1
f 29/3/1 25/3/1 24/3/1
f 30/3/1 25/3/1 29/3/1
f 31/3/1 25/3/1 30/3/1
f 32/3/1 25/3/1 31/3/1
f 33/3/1 27/3/1 3/3/1
f 34/3/1 27/3/1 33/3/1
f 35/3/1 31/3/1 30/3/1
f 36/3/1 31/3/1 35/3/1
f 40/1/1 38/1/1 37/1/1
f 41/1/1 38/1/1 40/1/1
f 46/1/1 40/1/1 39/1/1
f 46/1/1 41/1/1 40/1/1
f 46/1/1 42/1/1 41/1/1
f 47/1/1 42/1/1 46/1/1
f 48/1/1 42/1/1 47/1/1
f 50/3/1 45/3/1 44/3/1
f 50/3/1 44/3/1 43/3/1
f 51/3/1 45/3/1 50/3/1
f 52/1/1 49/1/1 48/1/1
f 52/1/1 48/1/1 47/1/1
f 53/1/1 49/1/1 52/1/1
f 54/1/2 55/1/2 57/1/2
f 57/1/2 55/1/2 58/1/2
f 56/1/2 57/1/2 63/1/2
f 57/1/2 58/1/2 63/1/2
f 58/1/2 59/1/2 63/1/2
f 63/1/2 59/1/2 64/1/2
f 64/1/2 59/1/2 65/1/2
f 61/3/2 62/3/2 67/3/2
f 60/3/2 61/3/2 67/3/2
f 67/3/2 62/3/2 68/3/2
f 65/1/2 66/1/2 69/1/2
f 64/1/2 65/1/2 69/1/2
f 69/1/2 66/1/2 70/1/2
f 71/3/2 72/3/2 74/3/2
f 74/3/2 72/3/2 75/3/2
f 73/3/2 74/3/2 77/3/2
f 75/3/2 76/3/2 77/3/2
f 74/3/2 75/3/2 77/3/2
f 77/3/2 76/3/2 78/3/2
f 78/3/2 76/3/2 79/3/2
f 79/3/2 76/3/2 80/3/2
f 73/3/2 77/3/2 81/3/2
f 77/2/2 78/2/2 81/2/2
f 78/3/2 79/3/2 82/3/2
f 81/2/2 78/2/2 82/2/2
f 79/2/2 80/2/2 83/2/2
f 82/3/2 79/3/2 83/3/2
f 80/3/2 76/3/2 84/3/2
f 83/2/2 80/2/2 84/2/2
f 81/3/2 82/3/2 85/3/2
f 73/3/2 81/3/2 85/3/2
f 82/2/2 83/2/2 86/2/2
f 85/3/2 82/3/2 86/3/2
f 83/3/2 84/3/2 87/3/2
f 86/2/2 83/2/2 87/2/2
f 84/3/2 76/3/2 88/3/2
f 87/3/2 84/3/2 88/3/2
f 73/3/2 85/3/2 89/3/2
f 85/2/2 86/2/2 89/2/2
f 86/3/2 87/3/2 90/3/2
f 89/2/2 86/2/2 90/2/2
f 87/2/2 88/2/2 91/2/2
f 90/3/2 87/3/2 91/3/2
f 88/3/2 76/3/2 92/3/2
f 91/2/2 88/2/2 92/2/2
f 90/3/2 91/3/2 93/3/2
f 89/3/2 90/3/2 93/3/2
f 91/3/2 92/3/2 93/3/2
f 93/3/2 92/3/2 94/3/2
f 92/3/2 76/3/2 95/3/2
f 94/3/2 92/3/2 95/3/2
f 95/3/2 76/3/2 96/3/2
f 73/3/2 89/3/2 97/3/2
f 89/3/2 93/3/2 97/3/2
f 97/3/2 93/3/2 98/3/2
f 94/3/2 95/3/2 99/3/2
f 99/3/2 95/3/2 100/3/2
f 100/3/2 95/3/2 101/3/2
f 101/3/2 95/3/2 102/3/2
f 73/3/2 97/3/2 103/3/2
f 103/3/2 97/3/2 104/3/2
f 100/3/2 101/3/2 105/3/2
f 105/3/2 101/3/2 106/3/2
f 109/3/3 108/3/3 107/3/3
f 111/3/3 109/3/3 107/3/3
f 111/3/3 110/3/3 109/3/3
f 112/3/3 110/3/3 111/3/3
f 113/3/3 111/3/3 107/3/3
f 114/3/3 111/3/3 113/3/3
f 117/3/3 116/3/3 115/3/3
f 118/3/3 116/3/3 117/3/3
f 121/3/3 120/3/3 119/3/3
f 122/3/3 120/3/3 121/3/3
f 125/3/3 124/3/3 123/3/3
f 126/3/3 125/3/3 123/3/3
f 127/3/3 126/3/3 123/3/3
f 128/3/3 126/3/3 127/3/3
f 131/1/3 130/1/3 129/1/3
f 132/1/3 130/1/3 131/1/3
f 133/3/4 134/3/4 135/3/4
f 133/3/4 135/3/4 136/3/4
f 133/3/4 136/3/4 137/3/4
f 137/3/4 136/3/4 138/3/4
f 139/3/4 140/3/4 141/3/4
f 141/3/4 140/3/4 142/3/4
f 143/3/4 144/3/4 145/3/4
f 145/3/4 144/3/4 146/3/4
f 147/3/4 148/3/4 149/3/4
f 149/3/4 148/3/4 150/3/4
f 151/3/4 152/3/4 153/3/4
f 153/3/4 152/3/4 154/3/4
f 157/3/4 158/3/4 159/3/4
f 159/3/4 158/3/4 160/3/4
f 155/3/4 156/3/4 163/3/4
f 163/3/4 156/3/4 164/3/4
f 161/3/4 162/3/4 165/3/4
f 165/3/4 162/3/4 166/3/4
f 167/3/4 168/3/4 169/3/4
f 167/3/4 169/3/4 171/3/4
f 169/1/4 170/1/4 171/1/4
f 171/1/4 170/1/4 172/1/4
f 167/3/4 171/3/4 173/3/4
f 173/3/4 171/3/4 174/3/4
f 175/1/4 176/1/4 177/1/4
f 177/1/4 176/1/4 178/1/4
f 179/1/4 180/1/4 181/1/4
f 181/1/4 180/1/4 182/1/4
f 185/3/5 184/3/5 183/3/5
f 186/3/5 184/3/5 185/3/5
f 189/3/5 188/3/5 187/3/5
f 190/3/5 188/3/5 189/3/5
f 193/3/5 192/3/5 191/3/5
f 194/3/5 192/3/5 193/3/5
f 197/1/5 196/1/5 195/1/5
f 198/1/5 196/1/5 197/1/5
f 201/3/5 200/3/5 199/3/5
f 202/3/5 200/3/5 201/3/5
f 205/1/5 204/1/5 203/1/5
f 206/1/5 204/1/5 205/1/5
f 207/3/6 208/3/6 209/3/6
f 209/3/6 208/3/6 210/3/6
f 211/3/6 212/3/6 215/3/6
f 215/3/6 212/3/6 216/3/6
f 213/3/6 214/3/6 217/3/6
f 217/3/6 214/3/6 218/3/6
f 219/3/6 220/3/6 221/3/6
f 221/3/6 220/3/6 222/3/6
f 223/3/6 224/3/6 225/3/6
f 225/3/6 224/3/6 226/3/6
f 227/3/6 228/3/6 231/3/6
f 231/3/6 228/3/6 232/3/6
f 229/3/6 230/3/6 233/3/6
f 233/3/6 230/3/6 234/3/6
f 235/3/6 236/3/6 239/3/6
f 239/3/6 236/3/6 240/3/6
f 237/3/6 238/3/6 241/3/6
f 241/3/6 238/3/6 242/3/6
f 243/3/6 244/3/6 247/3/6
f 245/3/6 246/3/6 247/3/6
f 244/3/6 245/3/6 247/3/6
f 247/3/6 246/3/6 248/3/6
f 248/3/6 246/3/6 249/3/6
f 249/3/6 246/3/6 250/3/6
f 248/1/6 249/1/6 251/1/6
f 251/1/6 249/1/6 252/1/6
f 253/3/6 254/3/6 255/3/6
f 255/3/6 254/3/6 256/3/6
f 257/1/6 258/1/6 259/1/6
f 259/1/6 258/1/6 260/1/6
