# MagicaVoxel @ Ephtracy

# group
o 

# material
mtllib pagodinhoSENTADO.mtl
usemtl palette

# normals
vn -1 0 0
vn 1 0 0
vn 0 0 1
vn 0 0 -1
vn 0 -1 0
vn 0 1 0

# texcoords
vt 0.00195312 0.5
vt 0.0253906 0.5
vt 0.158203 0.5
vt 0.361328 0.5
vt 0.376953 0.5

# verts
v -0.4 0.3 0.1
v -0.4 0.3 -0.1
v -0.4 0.4 0.1
v -0.4 0.4 -0.1
v -0.4 0.6 0.1
v -0.4 0.6 -0.1
v -0.4 0.9 0.2
v -0.4 0.9 0
v -0.4 0.9 -0.1
v -0.4 1.1 0
v -0.4 1.1 -0.1
v -0.4 1.1 -0.2
v -0.4 1.2 0.2
v -0.4 1.2 -0.2
v -0.3 0.2 0.1
v -0.3 0.2 -0.2
v -0.3 0.2 -0.4
v -0.3 0.3 0.1
v -0.3 0.3 -0.1
v -0.3 0.3 -0.2
v -0.3 0.3 -0.3
v -0.3 0.4 -0.1
v -0.3 0.4 -0.3
v -0.3 0.4 -0.4
v -0.3 0.6 -0.1
v -0.3 0.6 -0.2
v -0.3 0.7 0.2
v -0.3 0.7 -0.2
v -0.3 0.9 0.3
v -0.3 0.9 0.2
v -0.3 0.9 0
v -0.3 0.9 -0.1
v -0.3 0.9 -0.2
v -0.3 1.1 -0.1
v -0.3 1.1 -0.2
v -0.3 1.2 0.3
v -0.3 1.2 0.2
v -0.3 1.2 -0.1
v -0.3 1.3 0.2
v -0.3 1.3 -0.1
v -0.2 1.3 0.2
v -0.2 1.3 -0.1
v -0.2 1.4 0.2
v -0.2 1.4 -0.1
v -0.1 0.6 0.1
v -0.1 0.6 0
v -0.1 0.6 -0.1
v -0.1 0.7 0.1
v -0.1 0.7 -0.1
v -0.1 1.2 -0.1
v -0.1 1.2 -0.2
v -0.1 1.3 -0.1
v -0.1 1.3 -0.2
v 0.1 0.2 -0.1
v 0.1 0.2 -0.2
v 0.1 0.2 -0.4
v 0.1 0.3 -0.1
v 0.1 0.3 -0.2
v 0.1 0.3 -0.3
v 0.1 0.4 -0.3
v 0.1 0.4 -0.4
v 0.1 0.5 -0.1
v 0.1 0.5 -0.2
v 0.2 0.5 -0.1
v 0.2 0.5 -0.2
v 0.2 0.6 -0.1
v 0.2 0.6 -0.2
v -0.2 0.5 -0.1
v -0.2 0.5 -0.2
v -0.2 0.6 -0.1
v -0.2 0.6 -0.2
v -0.1 0.2 -0.1
v -0.1 0.2 -0.2
v -0.1 0.2 -0.4
v -0.1 0.3 -0.1
v -0.1 0.3 -0.2
v -0.1 0.3 -0.3
v -0.1 0.4 -0.3
v -0.1 0.4 -0.4
v -0.1 0.5 -0.1
v -0.1 0.5 -0.2
v 0.1 0.6 0.1
v 0.1 0.6 0
v 0.1 0.6 -0.1
v 0.1 0.7 0.1
v 0.1 0.7 -0.1
v 0.1 1.2 -0.1
v 0.1 1.2 -0.2
v 0.1 1.3 -0.1
v 0.1 1.3 -0.2
v 0.2 1.3 0.2
v 0.2 1.3 -0.1
v 0.2 1.4 0.2
v 0.2 1.4 -0.1
v 0.3 0.2 0.1
v 0.3 0.2 -0.2
v 0.3 0.2 -0.4
v 0.3 0.3 0.1
v 0.3 0.3 -0.1
v 0.3 0.3 -0.2
v 0.3 0.3 -0.3
v 0.3 0.4 -0.1
v 0.3 0.4 -0.3
v 0.3 0.4 -0.4
v 0.3 0.6 -0.1
v 0.3 0.6 -0.2
v 0.3 0.7 0.2
v 0.3 0.7 -0.2
v 0.3 0.9 0.3
v 0.3 0.9 0.2
v 0.3 0.9 0.1
v 0.3 0.9 0
v 0.3 0.9 -0.1
v 0.3 0.9 -0.2
v 0.3 1 0.1
v 0.3 1 0
v 0.3 1.1 -0.1
v 0.3 1.1 -0.2
v 0.3 1.2 0.3
v 0.3 1.2 0.2
v 0.3 1.2 -0.1
v 0.3 1.3 0.2
v 0.3 1.3 -0.1
v 0.4 0.3 0.1
v 0.4 0.3 -0.1
v 0.4 0.4 0.1
v 0.4 0.4 -0.1
v 0.4 0.6 0.1
v 0.4 0.6 -0.1
v 0.4 0.9 0.2
v 0.4 0.9 0.1
v 0.4 0.9 0
v 0.4 0.9 -0.1
v 0.4 1 0.1
v 0.4 1 0
v 0.4 1.1 0
v 0.4 1.1 -0.1
v 0.4 1.1 -0.2
v 0.4 1.2 0.2
v 0.4 1.2 -0.2
v -0.3 0.9 0.3
v -0.3 1.2 0.3
v 0.3 0.9 0.3
v 0.3 1.2 0.3
v -0.4 0.9 0.2
v -0.4 1.2 0.2
v -0.3 0.7 0.2
v -0.3 0.9 0.2
v -0.3 1.2 0.2
v -0.3 1.3 0.2
v -0.2 1.3 0.2
v -0.2 1.4 0.2
v 0.2 1.3 0.2
v 0.2 1.4 0.2
v 0.3 0.7 0.2
v 0.3 0.9 0.2
v 0.3 1.2 0.2
v 0.3 1.3 0.2
v 0.4 0.9 0.2
v 0.4 1.2 0.2
v -0.4 0.3 0.1
v -0.4 0.4 0.1
v -0.4 0.6 0.1
v -0.3 0.2 0.1
v -0.3 0.3 0.1
v -0.3 0.4 0.1
v -0.1 0.6 0.1
v -0.1 0.7 0.1
v 0.1 0.6 0.1
v 0.1 0.7 0.1
v 0.3 0.2 0.1
v 0.3 0.3 0.1
v 0.3 0.4 0.1
v 0.4 0.3 0.1
v 0.4 0.4 0.1
v 0.4 0.6 0.1
v 0.3 0.9 0
v 0.3 1 0
v 0.4 0.9 0
v 0.4 1 0
v -0.3 0.3 -0.3
v -0.3 0.4 -0.3
v -0.1 0.3 -0.3
v -0.1 0.4 -0.3
v 0.1 0.3 -0.3
v 0.1 0.4 -0.3
v 0.3 0.3 -0.3
v 0.3 0.4 -0.3
v 0.3 0.9 0.1
v 0.3 1 0.1
v 0.4 0.9 0.1
v 0.4 1 0.1
v -0.4 0.3 -0.1
v -0.4 0.4 -0.1
v -0.4 0.6 -0.1
v -0.4 0.9 -0.1
v -0.4 1.1 -0.1
v -0.3 0.3 -0.1
v -0.3 0.4 -0.1
v -0.3 0.6 -0.1
v -0.3 0.9 -0.1
v -0.3 1.1 -0.1
v -0.3 1.2 -0.1
v -0.3 1.3 -0.1
v -0.2 0.5 -0.1
v -0.2 0.6 -0.1
v -0.2 1.3 -0.1
v -0.2 1.4 -0.1
v -0.1 0.2 -0.1
v -0.1 0.3 -0.1
v -0.1 0.5 -0.1
v -0.1 0.6 -0.1
v -0.1 0.7 -0.1
v -0.1 1.2 -0.1
v -0.1 1.3 -0.1
v 0.1 0.2 -0.1
v 0.1 0.3 -0.1
v 0.1 0.5 -0.1
v 0.1 0.6 -0.1
v 0.1 0.7 -0.1
v 0.1 1.2 -0.1
v 0.1 1.3 -0.1
v 0.2 0.5 -0.1
v 0.2 0.6 -0.1
v 0.2 1.3 -0.1
v 0.2 1.4 -0.1
v 0.3 0.3 -0.1
v 0.3 0.4 -0.1
v 0.3 0.6 -0.1
v 0.3 0.9 -0.1
v 0.3 1.1 -0.1
v 0.3 1.2 -0.1
v 0.3 1.3 -0.1
v 0.4 0.3 -0.1
v 0.4 0.4 -0.1
v 0.4 0.6 -0.1
v 0.4 0.9 -0.1
v 0.4 1.1 -0.1
v -0.4 1.1 -0.2
v -0.4 1.2 -0.2
v -0.3 0.3 -0.2
v -0.3 0.6 -0.2
v -0.3 0.7 -0.2
v -0.3 0.9 -0.2
v -0.3 1.1 -0.2
v -0.3 1.2 -0.2
v -0.2 0.5 -0.2
v -0.2 0.6 -0.2
v -0.2 0.7 -0.2
v -0.2 0.8 -0.2
v -0.2 0.9 -0.2
v -0.2 1 -0.2
v -0.1 0.3 -0.2
v -0.1 0.5 -0.2
v -0.1 0.9 -0.2
v -0.1 1 -0.2
v -0.1 1.1 -0.2
v -0.1 1.2 -0.2
v -0.1 1.3 -0.2
v 0.1 0.3 -0.2
v 0.1 0.5 -0.2
v 0.1 0.9 -0.2
v 0.1 1 -0.2
v 0.1 1.1 -0.2
v 0.1 1.2 -0.2
v 0.1 1.3 -0.2
v 0.2 0.5 -0.2
v 0.2 0.6 -0.2
v 0.2 0.7 -0.2
v 0.2 0.8 -0.2
v 0.2 0.9 -0.2
v 0.2 1 -0.2
v 0.3 0.3 -0.2
v 0.3 0.6 -0.2
v 0.3 0.7 -0.2
v 0.3 0.9 -0.2
v 0.3 1.1 -0.2
v 0.3 1.2 -0.2
v 0.4 1.1 -0.2
v 0.4 1.2 -0.2
v -0.3 0.2 -0.4
v -0.3 0.4 -0.4
v -0.1 0.2 -0.4
v -0.1 0.4 -0.4
v 0.1 0.2 -0.4
v 0.1 0.4 -0.4
v 0.3 0.2 -0.4
v 0.3 0.4 -0.4
v -0.3 0.2 0.1
v 0.3 0.2 0.1
v -0.1 0.2 -0.1
v 0.1 0.2 -0.1
v -0.3 0.2 -0.2
v -0.1 0.2 -0.2
v 0.1 0.2 -0.2
v 0.3 0.2 -0.2
v -0.3 0.2 -0.4
v -0.1 0.2 -0.4
v 0.1 0.2 -0.4
v 0.3 0.2 -0.4
v -0.4 0.3 0.1
v -0.3 0.3 0.1
v 0.3 0.3 0.1
v 0.4 0.3 0.1
v -0.4 0.3 -0.1
v -0.3 0.3 -0.1
v 0.3 0.3 -0.1
v 0.4 0.3 -0.1
v -0.3 0.7 0.2
v 0.3 0.7 0.2
v -0.1 0.7 0.1
v 0.1 0.7 0.1
v -0.2 0.7 -0.1
v -0.1 0.7 -0.1
v 0.1 0.7 -0.1
v 0.2 0.7 -0.1
v -0.3 0.7 -0.2
v -0.2 0.7 -0.2
v 0.2 0.7 -0.2
v 0.3 0.7 -0.2
v -0.3 0.9 0.3
v 0.3 0.9 0.3
v -0.4 0.9 0.2
v -0.3 0.9 0.2
v 0.3 0.9 0.2
v 0.4 0.9 0.2
v 0.3 0.9 0.1
v 0.4 0.9 0.1
v -0.4 0.9 0
v -0.3 0.9 0
v 0.3 0.9 0
v 0.4 0.9 0
v -0.4 0.9 -0.1
v -0.3 0.9 -0.1
v 0.3 0.9 -0.1
v 0.4 0.9 -0.1
v 0.3 1 0.1
v 0.4 1 0.1
v 0.3 1 0
v 0.4 1 0
v -0.4 1.1 -0.1
v -0.3 1.1 -0.1
v 0.3 1.1 -0.1
v 0.4 1.1 -0.1
v -0.4 1.1 -0.2
v -0.3 1.1 -0.2
v 0.3 1.1 -0.2
v 0.4 1.1 -0.2
v -0.3 0.3 -0.2
v -0.1 0.3 -0.2
v 0.1 0.3 -0.2
v 0.3 0.3 -0.2
v -0.3 0.3 -0.3
v -0.1 0.3 -0.3
v 0.1 0.3 -0.3
v 0.3 0.3 -0.3
v -0.3 0.4 -0.3
v -0.1 0.4 -0.3
v 0.1 0.4 -0.3
v 0.3 0.4 -0.3
v -0.3 0.4 -0.4
v -0.1 0.4 -0.4
v 0.1 0.4 -0.4
v 0.3 0.4 -0.4
v -0.2 0.5 -0.1
v -0.1 0.5 -0.1
v 0.1 0.5 -0.1
v 0.2 0.5 -0.1
v -0.2 0.5 -0.2
v -0.1 0.5 -0.2
v 0.1 0.5 -0.2
v 0.2 0.5 -0.2
v -0.4 0.6 0.1
v -0.1 0.6 0.1
v 0.1 0.6 0.1
v 0.4 0.6 0.1
v -0.2 0.6 0
v -0.1 0.6 0
v 0.1 0.6 0
v 0.2 0.6 0
v -0.4 0.6 -0.1
v -0.3 0.6 -0.1
v -0.2 0.6 -0.1
v -0.1 0.6 -0.1
v 0.1 0.6 -0.1
v 0.2 0.6 -0.1
v 0.3 0.6 -0.1
v 0.4 0.6 -0.1
v -0.3 0.6 -0.2
v -0.2 0.6 -0.2
v 0.2 0.6 -0.2
v 0.3 0.6 -0.2
v -0.3 1.2 0.3
v 0.3 1.2 0.3
v -0.4 1.2 0.2
v -0.3 1.2 0.2
v 0.3 1.2 0.2
v 0.4 1.2 0.2
v -0.3 1.2 -0.1
v -0.1 1.2 -0.1
v 0.1 1.2 -0.1
v 0.3 1.2 -0.1
v -0.4 1.2 -0.2
v -0.3 1.2 -0.2
v -0.1 1.2 -0.2
v 0.1 1.2 -0.2
v 0.3 1.2 -0.2
v 0.4 1.2 -0.2
v -0.3 1.3 0.2
v -0.2 1.3 0.2
v 0.2 1.3 0.2
v 0.3 1.3 0.2
v -0.3 1.3 -0.1
v -0.2 1.3 -0.1
v -0.1 1.3 -0.1
v 0.1 1.3 -0.1
v 0.2 1.3 -0.1
v 0.3 1.3 -0.1
v -0.1 1.3 -0.2
v 0.1 1.3 -0.2
v -0.2 1.4 0.2
v 0.2 1.4 0.2
v -0.2 1.4 -0.1
v 0.2 1.4 -0.1

# faces
f 3/2/1 2/2/1 1/2/1
f 4/2/1 2/2/1 3/2/1
f 5/1/1 4/1/1 3/1/1
f 6/1/1 4/1/1 5/1/1
f 10/3/1 8/3/1 7/3/1
f 10/2/1 9/2/1 8/2/1
f 11/2/1 9/2/1 10/2/1
f 13/3/1 11/3/1 10/3/1
f 13/3/1 12/3/1 11/3/1
f 13/3/1 10/3/1 7/3/1
f 14/3/1 12/3/1 13/3/1
f 18/4/1 16/4/1 15/4/1
f 19/4/1 16/4/1 18/4/1
f 20/2/1 17/2/1 16/2/1
f 20/4/1 16/4/1 19/4/1
f 21/2/1 17/2/1 20/2/1
f 22/1/1 20/1/1 19/1/1
f 23/2/1 17/2/1 21/2/1
f 24/2/1 17/2/1 23/2/1
f 25/1/1 20/1/1 22/1/1
f 26/1/1 20/1/1 25/1/1
f 30/2/1 28/2/1 27/2/1
f 31/2/1 28/2/1 30/2/1
f 32/2/1 28/2/1 31/2/1
f 33/2/1 28/2/1 32/2/1
f 34/5/1 33/5/1 32/5/1
f 35/5/1 33/5/1 34/5/1
f 36/3/1 30/3/1 29/3/1
f 37/3/1 30/3/1 36/3/1
f 39/3/1 38/3/1 37/3/1
f 40/3/1 38/3/1 39/3/1
f 43/3/1 42/3/1 41/3/1
f 44/3/1 42/3/1 43/3/1
f 48/2/1 46/2/1 45/2/1
f 48/2/1 47/2/1 46/2/1
f 49/2/1 47/2/1 48/2/1
f 52/3/1 51/3/1 50/3/1
f 53/3/1 51/3/1 52/3/1
f 57/4/1 55/4/1 54/4/1
f 58/2/1 56/2/1 55/2/1
f 58/4/1 55/4/1 57/4/1
f 59/2/1 56/2/1 58/2/1
f 60/2/1 56/2/1 59/2/1
f 61/2/1 56/2/1 60/2/1
f 62/1/1 58/1/1 57/1/1
f 63/1/1 58/1/1 62/1/1
f 66/1/1 65/1/1 64/1/1
f 67/1/1 65/1/1 66/1/1
f 68/1/2 69/1/2 70/1/2
f 70/1/2 69/1/2 71/1/2
f 72/4/2 73/4/2 75/4/2
f 73/2/2 74/2/2 76/2/2
f 75/4/2 73/4/2 76/4/2
f 76/2/2 74/2/2 77/2/2
f 77/2/2 74/2/2 78/2/2
f 78/2/2 74/2/2 79/2/2
f 75/1/2 76/1/2 80/1/2
f 80/1/2 76/1/2 81/1/2
f 82/2/2 83/2/2 85/2/2
f 83/2/2 84/2/2 85/2/2
f 85/2/2 84/2/2 86/2/2
f 87/3/2 88/3/2 89/3/2
f 89/3/2 88/3/2 90/3/2
f 91/3/2 92/3/2 93/3/2
f 93/3/2 92/3/2 94/3/2
f 95/4/2 96/4/2 98/4/2
f 98/4/2 96/4/2 99/4/2
f 96/2/2 97/2/2 100/2/2
f 99/4/2 96/4/2 100/4/2
f 100/2/2 97/2/2 101/2/2
f 99/1/2 100/1/2 102/1/2
f 101/2/2 97/2/2 103/2/2
f 103/2/2 97/2/2 104/2/2
f 102/1/2 100/1/2 105/1/2
f 105/1/2 100/1/2 106/1/2
f 107/2/2 108/2/2 110/2/2
f 110/2/2 108/2/2 111/2/2
f 111/2/2 108/2/2 112/2/2
f 112/2/2 108/2/2 113/2/2
f 113/2/2 108/2/2 114/2/2
f 111/2/2 112/2/2 115/2/2
f 115/2/2 112/2/2 116/2/2
f 113/5/2 114/5/2 117/5/2
f 117/5/2 114/5/2 118/5/2
f 109/3/2 110/3/2 119/3/2
f 119/3/2 110/3/2 120/3/2
f 120/3/2 121/3/2 122/3/2
f 122/3/2 121/3/2 123/3/2
f 124/2/2 125/2/2 126/2/2
f 126/2/2 125/2/2 127/2/2
f 126/1/2 127/1/2 128/1/2
f 128/1/2 127/1/2 129/1/2
f 130/3/2 131/3/2 134/3/2
f 132/2/2 133/2/2 135/2/2
f 135/2/2 133/2/2 136/2/2
f 134/3/2 135/3/2 136/3/2
f 136/2/2 133/2/2 137/2/2
f 136/3/2 137/3/2 139/3/2
f 137/3/2 138/3/2 139/3/2
f 134/3/2 136/3/2 139/3/2
f 130/3/2 134/3/2 139/3/2
f 139/3/2 138/3/2 140/3/2
f 143/3/3 142/3/3 141/3/3
f 144/3/3 142/3/3 143/3/3
f 148/3/3 146/3/3 145/3/3
f 149/3/3 146/3/3 148/3/3
f 151/3/3 150/3/3 149/3/3
f 153/3/3 151/3/3 149/3/3
f 153/3/3 152/3/3 151/3/3
f 154/3/3 152/3/3 153/3/3
f 155/2/3 148/2/3 147/2/3
f 156/2/3 148/2/3 155/2/3
f 157/3/3 153/3/3 149/3/3
f 158/3/3 153/3/3 157/3/3
f 159/3/3 157/3/3 156/3/3
f 160/3/3 157/3/3 159/3/3
f 165/2/3 162/2/3 161/2/3
f 166/1/3 163/1/3 162/1/3
f 166/2/3 162/2/3 165/2/3
f 167/1/3 166/1/3 165/1/3
f 167/1/3 163/1/3 166/1/3
f 169/1/3 167/1/3 165/1/3
f 169/2/3 168/2/3 167/2/3
f 170/2/3 168/2/3 169/2/3
f 171/4/3 165/4/3 164/4/3
f 172/1/3 169/1/3 165/1/3
f 172/4/3 165/4/3 171/4/3
f 173/1/3 169/1/3 172/1/3
f 174/2/3 173/2/3 172/2/3
f 175/1/3 169/1/3 173/1/3
f 175/2/3 173/2/3 174/2/3
f 176/1/3 169/1/3 175/1/3
f 179/2/3 178/2/3 177/2/3
f 180/2/3 178/2/3 179/2/3
f 183/2/3 182/2/3 181/2/3
f 184/2/3 182/2/3 183/2/3
f 187/2/3 186/2/3 185/2/3
f 188/2/3 186/2/3 187/2/3
f 189/3/4 190/3/4 191/3/4
f 191/3/4 190/3/4 192/3/4
f 193/2/4 194/2/4 198/2/4
f 194/1/4 195/1/4 199/1/4
f 198/2/4 194/2/4 199/2/4
f 199/1/4 195/1/4 200/1/4
f 196/2/4 197/2/4 201/2/4
f 201/2/4 197/2/4 202/2/4
f 203/3/4 204/3/4 207/3/4
f 205/5/4 206/5/4 211/5/4
f 211/5/4 206/5/4 212/5/4
f 203/3/4 207/3/4 214/3/4
f 207/3/4 208/3/4 214/3/4
f 214/3/4 208/3/4 215/3/4
f 209/4/4 210/4/4 216/4/4
f 211/5/4 212/5/4 217/5/4
f 216/4/4 210/4/4 217/4/4
f 210/5/4 211/5/4 217/5/4
f 217/5/4 212/5/4 218/5/4
f 212/2/4 213/2/4 219/2/4
f 218/5/4 212/5/4 219/5/4
f 219/2/4 213/2/4 220/2/4
f 215/3/4 208/3/4 222/3/4
f 218/5/4 219/5/4 223/5/4
f 223/5/4 219/5/4 224/5/4
f 221/3/4 222/3/4 225/3/4
f 222/3/4 208/3/4 225/3/4
f 225/3/4 208/3/4 226/3/4
f 221/3/4 225/3/4 232/3/4
f 232/3/4 225/3/4 233/3/4
f 227/2/4 228/2/4 234/2/4
f 228/1/4 229/1/4 235/1/4
f 234/2/4 228/2/4 235/2/4
f 235/1/4 229/1/4 236/1/4
f 230/2/4 231/2/4 237/2/4
f 237/2/4 231/2/4 238/2/4
f 239/3/4 240/3/4 245/3/4
f 245/3/4 240/3/4 246/3/4
f 241/1/4 242/1/4 247/1/4
f 247/1/4 242/1/4 248/1/4
f 243/2/4 244/2/4 249/2/4
f 249/2/4 244/2/4 250/2/4
f 244/5/4 245/5/4 251/5/4
f 250/2/4 244/2/4 251/2/4
f 251/5/4 245/5/4 252/5/4
f 241/1/4 247/1/4 253/1/4
f 253/1/4 247/1/4 254/1/4
f 251/1/4 252/1/4 255/1/4
f 250/5/4 251/5/4 255/5/4
f 252/5/4 245/5/4 256/5/4
f 255/1/4 252/1/4 256/1/4
f 245/1/4 246/1/4 257/1/4
f 256/5/4 245/5/4 257/5/4
f 257/1/4 246/1/4 258/1/4
f 250/5/4 255/5/4 262/5/4
f 257/2/4 258/2/4 262/2/4
f 256/2/4 257/2/4 262/2/4
f 255/2/4 256/2/4 262/2/4
f 262/2/4 258/2/4 263/2/4
f 263/2/4 258/2/4 264/2/4
f 258/3/4 259/3/4 265/3/4
f 264/2/4 258/2/4 265/2/4
f 265/3/4 259/3/4 266/3/4
f 260/1/4 261/1/4 267/1/4
f 249/3/4 250/3/4 269/3/4
f 250/5/4 262/5/4 270/5/4
f 269/3/4 250/3/4 270/3/4
f 262/1/4 263/1/4 271/1/4
f 270/5/4 262/5/4 271/5/4
f 263/5/4 264/5/4 272/5/4
f 271/1/4 263/1/4 272/1/4
f 267/1/4 268/1/4 273/1/4
f 260/1/4 267/1/4 273/1/4
f 273/1/4 268/1/4 274/1/4
f 270/2/4 271/2/4 275/2/4
f 269/2/4 270/2/4 275/2/4
f 271/5/4 272/5/4 276/5/4
f 275/2/4 271/2/4 276/2/4
f 272/5/4 264/5/4 277/5/4
f 276/5/4 272/5/4 277/5/4
f 264/1/4 265/1/4 277/1/4
f 277/1/4 265/1/4 278/1/4
f 277/3/4 278/3/4 279/3/4
f 279/3/4 278/3/4 280/3/4
f 281/2/4 282/2/4 283/2/4
f 283/2/4 282/2/4 284/2/4
f 285/2/4 286/2/4 287/2/4
f 287/2/4 286/2/4 288/2/4
f 291/4/5 290/4/5 289/4/5
f 292/4/5 290/4/5 291/4/5
f 293/4/5 291/4/5 289/4/5
f 294/4/5 291/4/5 293/4/5
f 295/4/5 290/4/5 292/4/5
f 296/4/5 290/4/5 295/4/5
f 297/2/5 294/2/5 293/2/5
f 298/2/5 294/2/5 297/2/5
f 299/2/5 296/2/5 295/2/5
f 300/2/5 296/2/5 299/2/5
f 305/2/5 302/2/5 301/2/5
f 306/2/5 302/2/5 305/2/5
f 307/2/5 304/2/5 303/2/5
f 308/2/5 304/2/5 307/2/5
f 311/2/5 310/2/5 309/2/5
f 312/2/5 310/2/5 311/2/5
f 313/2/5 311/2/5 309/2/5
f 314/2/5 311/2/5 313/2/5
f 315/2/5 310/2/5 312/2/5
f 316/2/5 310/2/5 315/2/5
f 317/2/5 313/2/5 309/2/5
f 318/3/5 314/3/5 313/3/5
f 318/2/5 313/2/5 317/2/5
f 318/3/5 315/3/5 314/3/5
f 318/3/5 316/3/5 315/3/5
f 319/2/5 310/2/5 316/2/5
f 319/3/5 316/3/5 318/3/5
f 320/2/5 310/2/5 319/2/5
f 324/3/5 322/3/5 321/3/5
f 325/3/5 322/3/5 324/3/5
f 327/3/5 326/3/5 325/3/5
f 328/3/5 326/3/5 327/3/5
f 329/3/5 324/3/5 323/3/5
f 330/3/5 324/3/5 329/3/5
f 333/2/5 330/2/5 329/2/5
f 334/2/5 330/2/5 333/2/5
f 335/2/5 332/2/5 331/2/5
f 336/2/5 332/2/5 335/2/5
f 339/3/5 338/3/5 337/3/5
f 340/3/5 338/3/5 339/3/5
f 345/3/5 342/3/5 341/3/5
f 346/3/5 342/3/5 345/3/5
f 347/3/5 344/3/5 343/3/5
f 348/3/5 344/3/5 347/3/5
f 349/2/6 350/2/6 353/2/6
f 353/2/6 350/2/6 354/2/6
f 351/2/6 352/2/6 355/2/6
f 355/2/6 352/2/6 356/2/6
f 357/2/6 358/2/6 361/2/6
f 361/2/6 358/2/6 362/2/6
f 359/2/6 360/2/6 363/2/6
f 363/2/6 360/2/6 364/2/6
f 365/1/6 366/1/6 369/1/6
f 369/1/6 366/1/6 370/1/6
f 367/1/6 368/1/6 371/1/6
f 371/1/6 368/1/6 372/1/6
f 373/1/6 374/1/6 377/1/6
f 377/1/6 374/1/6 378/1/6
f 375/1/6 376/1/6 379/1/6
f 379/1/6 376/1/6 380/1/6
f 373/1/6 377/1/6 381/1/6
f 381/1/6 377/1/6 382/1/6
f 377/5/6 378/5/6 383/5/6
f 382/1/6 377/1/6 383/1/6
f 383/5/6 378/5/6 384/5/6
f 379/5/6 380/5/6 385/5/6
f 380/1/6 376/1/6 386/1/6
f 385/5/6 380/5/6 386/5/6
f 386/1/6 376/1/6 387/1/6
f 387/1/6 376/1/6 388/1/6
f 382/1/6 383/1/6 389/1/6
f 389/1/6 383/1/6 390/1/6
f 386/1/6 387/1/6 391/1/6
f 391/1/6 387/1/6 392/1/6
f 393/3/6 394/3/6 396/3/6
f 396/3/6 394/3/6 397/3/6
f 395/3/6 396/3/6 399/3/6
f 397/3/6 398/3/6 402/3/6
f 395/3/6 399/3/6 403/3/6
f 399/1/6 400/1/6 404/1/6
f 403/3/6 399/3/6 404/3/6
f 404/1/6 400/1/6 405/1/6
f 401/1/6 402/1/6 406/1/6
f 402/3/6 398/3/6 407/3/6
f 406/1/6 402/1/6 407/1/6
f 407/3/6 398/3/6 408/3/6
f 409/3/6 410/3/6 413/3/6
f 413/3/6 410/3/6 414/3/6
f 411/3/6 412/3/6 417/3/6
f 417/3/6 412/3/6 418/3/6
f 415/3/6 416/3/6 419/3/6
f 419/3/6 416/3/6 420/3/6
f 421/3/6 422/3/6 423/3/6
f 423/3/6 422/3/6 424/3/6
