# MagicaVoxel @ Ephtracy

# group
o 

# material
mtllib lixeira.mtl
usemtl palette

# normals
vn 1 0 0
vn -1 0 0
vn 0 0 -1
vn 0 0 1
vn 0 -1 0
vn 0 1 0

# texcoords
vt 0.193359 0.5
vt 0.435547 0.5
vt 0.490234 0.5

# verts
v -10.3 0 5.4
v -10.3 0 5.6
v -10.3 0.1 5.4
v -10.3 0.1 5.6
v -10.3 0.6 5.4
v -10.3 0.6 5.6
v -10.3 0.7 5.4
v -10.3 0.7 5.6
v -10.4 0 5.3
v -10.4 0 5.4
v -10.4 0 5.6
v -10.4 0 5.7
v -10.4 0.1 5.3
v -10.4 0.1 5.4
v -10.4 0.1 5.6
v -10.4 0.1 5.7
v -10.4 0.6 5.3
v -10.4 0.6 5.4
v -10.4 0.6 5.6
v -10.4 0.6 5.7
v -10.4 0.7 5.3
v -10.4 0.7 5.4
v -10.4 0.7 5.6
v -10.4 0.7 5.7
v -10.4 0.8 5.4
v -10.4 0.8 5.6
v -10.5 0 5.2
v -10.5 0 5.3
v -10.5 0 5.7
v -10.5 0 5.8
v -10.5 0.1 5.2
v -10.5 0.1 5.3
v -10.5 0.1 5.7
v -10.5 0.1 5.8
v -10.5 0.5 5.2
v -10.5 0.5 5.3
v -10.5 0.6 5.2
v -10.5 0.6 5.3
v -10.5 0.6 5.7
v -10.5 0.6 5.8
v -10.5 0.7 5.2
v -10.5 0.7 5.3
v -10.5 0.7 5.4
v -10.5 0.7 5.6
v -10.5 0.7 5.7
v -10.5 0.7 5.8
v -10.5 0.8 5.3
v -10.5 0.8 5.4
v -10.5 0.8 5.6
v -10.5 0.8 5.7
v -10.7 0 5.2
v -10.7 0 5.3
v -10.7 0 5.7
v -10.7 0 5.8
v -10.7 0.1 5.2
v -10.7 0.1 5.3
v -10.7 0.1 5.7
v -10.7 0.1 5.8
v -10.7 0.5 5.2
v -10.7 0.5 5.3
v -10.7 0.6 5.2
v -10.7 0.6 5.3
v -10.7 0.6 5.7
v -10.7 0.6 5.8
v -10.7 0.7 5.2
v -10.7 0.7 5.3
v -10.7 0.7 5.4
v -10.7 0.7 5.6
v -10.7 0.7 5.7
v -10.7 0.7 5.8
v -10.7 0.8 5.3
v -10.7 0.8 5.4
v -10.7 0.8 5.6
v -10.7 0.8 5.7
v -10.8 0 5.3
v -10.8 0 5.4
v -10.8 0 5.6
v -10.8 0 5.7
v -10.8 0.1 5.3
v -10.8 0.1 5.4
v -10.8 0.1 5.6
v -10.8 0.1 5.7
v -10.8 0.6 5.3
v -10.8 0.6 5.4
v -10.8 0.6 5.6
v -10.8 0.6 5.7
v -10.8 0.7 5.3
v -10.8 0.7 5.4
v -10.8 0.7 5.6
v -10.8 0.7 5.7
v -10.8 0.8 5.4
v -10.8 0.8 5.6
v -10.9 0 5.4
v -10.9 0 5.6
v -10.9 0.1 5.4
v -10.9 0.1 5.6
v -10.9 0.6 5.4
v -10.9 0.6 5.6
v -10.9 0.7 5.4
v -10.9 0.7 5.6
v -10.5 0 5.2
v -10.5 0.1 5.2
v -10.5 0.5 5.2
v -10.5 0.6 5.2
v -10.5 0.7 5.2
v -10.7 0 5.2
v -10.7 0.1 5.2
v -10.7 0.5 5.2
v -10.7 0.6 5.2
v -10.7 0.7 5.2
v -10.4 0 5.3
v -10.4 0.1 5.3
v -10.4 0.6 5.3
v -10.4 0.7 5.3
v -10.5 0 5.3
v -10.5 0.1 5.3
v -10.5 0.5 5.3
v -10.5 0.6 5.3
v -10.5 0.7 5.3
v -10.5 0.8 5.3
v -10.7 0 5.3
v -10.7 0.1 5.3
v -10.7 0.5 5.3
v -10.7 0.6 5.3
v -10.7 0.7 5.3
v -10.7 0.8 5.3
v -10.8 0 5.3
v -10.8 0.1 5.3
v -10.8 0.6 5.3
v -10.8 0.7 5.3
v -10.3 0 5.4
v -10.3 0.1 5.4
v -10.3 0.6 5.4
v -10.3 0.7 5.4
v -10.4 0 5.4
v -10.4 0.1 5.4
v -10.4 0.6 5.4
v -10.4 0.7 5.4
v -10.4 0.8 5.4
v -10.5 0.7 5.4
v -10.5 0.8 5.4
v -10.7 0.7 5.4
v -10.7 0.8 5.4
v -10.8 0 5.4
v -10.8 0.1 5.4
v -10.8 0.6 5.4
v -10.8 0.7 5.4
v -10.8 0.8 5.4
v -10.9 0 5.4
v -10.9 0.1 5.4
v -10.9 0.6 5.4
v -10.9 0.7 5.4
v -10.3 0 5.6
v -10.3 0.1 5.6
v -10.3 0.6 5.6
v -10.3 0.7 5.6
v -10.4 0 5.6
v -10.4 0.1 5.6
v -10.4 0.6 5.6
v -10.4 0.7 5.6
v -10.4 0.8 5.6
v -10.5 0.7 5.6
v -10.5 0.8 5.6
v -10.7 0.7 5.6
v -10.7 0.8 5.6
v -10.8 0 5.6
v -10.8 0.1 5.6
v -10.8 0.6 5.6
v -10.8 0.7 5.6
v -10.8 0.8 5.6
v -10.9 0 5.6
v -10.9 0.1 5.6
v -10.9 0.6 5.6
v -10.9 0.7 5.6
v -10.4 0 5.7
v -10.4 0.1 5.7
v -10.4 0.6 5.7
v -10.4 0.7 5.7
v -10.5 0 5.7
v -10.5 0.1 5.7
v -10.5 0.6 5.7
v -10.5 0.7 5.7
v -10.5 0.8 5.7
v -10.7 0 5.7
v -10.7 0.1 5.7
v -10.7 0.6 5.7
v -10.7 0.7 5.7
v -10.7 0.8 5.7
v -10.8 0 5.7
v -10.8 0.1 5.7
v -10.8 0.6 5.7
v -10.8 0.7 5.7
v -10.5 0 5.8
v -10.5 0.1 5.8
v -10.5 0.6 5.8
v -10.5 0.7 5.8
v -10.7 0 5.8
v -10.7 0.1 5.8
v -10.7 0.6 5.8
v -10.7 0.7 5.8
v -10.5 0 5.2
v -10.7 0 5.2
v -10.4 0 5.3
v -10.5 0 5.3
v -10.7 0 5.3
v -10.8 0 5.3
v -10.3 0 5.4
v -10.4 0 5.4
v -10.8 0 5.4
v -10.9 0 5.4
v -10.3 0 5.6
v -10.4 0 5.6
v -10.8 0 5.6
v -10.9 0 5.6
v -10.4 0 5.7
v -10.5 0 5.7
v -10.7 0 5.7
v -10.8 0 5.7
v -10.5 0 5.8
v -10.7 0 5.8
v -10.5 0.7 5.2
v -10.7 0.7 5.2
v -10.4 0.7 5.3
v -10.5 0.7 5.3
v -10.7 0.7 5.3
v -10.8 0.7 5.3
v -10.3 0.7 5.4
v -10.4 0.7 5.4
v -10.5 0.7 5.4
v -10.7 0.7 5.4
v -10.8 0.7 5.4
v -10.9 0.7 5.4
v -10.3 0.7 5.6
v -10.4 0.7 5.6
v -10.5 0.7 5.6
v -10.7 0.7 5.6
v -10.8 0.7 5.6
v -10.9 0.7 5.6
v -10.4 0.7 5.7
v -10.5 0.7 5.7
v -10.7 0.7 5.7
v -10.8 0.7 5.7
v -10.5 0.7 5.8
v -10.7 0.7 5.8
v -10.5 0.8 5.3
v -10.7 0.8 5.3
v -10.4 0.8 5.4
v -10.5 0.8 5.4
v -10.7 0.8 5.4
v -10.8 0.8 5.4
v -10.4 0.8 5.6
v -10.5 0.8 5.6
v -10.7 0.8 5.6
v -10.8 0.8 5.6
v -10.5 0.8 5.7
v -10.7 0.8 5.7

# faces
f 3/3/1 2/3/1 1/3/1
f 4/3/1 2/3/1 3/3/1
f 5/1/1 4/1/1 3/1/1
f 6/1/1 4/1/1 5/1/1
f 7/3/1 6/3/1 5/3/1
f 8/3/1 6/3/1 7/3/1
f 13/3/1 10/3/1 9/3/1
f 14/3/1 10/3/1 13/3/1
f 15/3/1 12/3/1 11/3/1
f 16/3/1 12/3/1 15/3/1
f 17/1/1 14/1/1 13/1/1
f 18/1/1 14/1/1 17/1/1
f 19/1/1 16/1/1 15/1/1
f 20/1/1 16/1/1 19/1/1
f 21/3/1 18/3/1 17/3/1
f 22/3/1 18/3/1 21/3/1
f 23/3/1 20/3/1 19/3/1
f 24/3/1 20/3/1 23/3/1
f 25/3/1 23/3/1 22/3/1
f 26/3/1 23/3/1 25/3/1
f 31/3/1 28/3/1 27/3/1
f 32/3/1 28/3/1 31/3/1
f 33/3/1 30/3/1 29/3/1
f 34/3/1 30/3/1 33/3/1
f 35/1/1 32/1/1 31/1/1
f 36/1/1 32/1/1 35/1/1
f 37/2/1 36/2/1 35/2/1
f 38/2/1 36/2/1 37/2/1
f 39/1/1 34/1/1 33/1/1
f 40/1/1 34/1/1 39/1/1
f 41/3/1 38/3/1 37/3/1
f 42/3/1 38/3/1 41/3/1
f 45/3/1 40/3/1 39/3/1
f 46/3/1 40/3/1 45/3/1
f 47/3/1 43/3/1 42/3/1
f 48/3/1 43/3/1 47/3/1
f 49/3/1 45/3/1 44/3/1
f 50/3/1 45/3/1 49/3/1
f 51/3/2 52/3/2 55/3/2
f 55/3/2 52/3/2 56/3/2
f 53/3/2 54/3/2 57/3/2
f 57/3/2 54/3/2 58/3/2
f 55/1/2 56/1/2 59/1/2
f 59/1/2 56/1/2 60/1/2
f 59/2/2 60/2/2 61/2/2
f 61/2/2 60/2/2 62/2/2
f 57/1/2 58/1/2 63/1/2
f 63/1/2 58/1/2 64/1/2
f 61/3/2 62/3/2 65/3/2
f 65/3/2 62/3/2 66/3/2
f 63/3/2 64/3/2 69/3/2
f 69/3/2 64/3/2 70/3/2
f 66/3/2 67/3/2 71/3/2
f 71/3/2 67/3/2 72/3/2
f 68/3/2 69/3/2 73/3/2
f 73/3/2 69/3/2 74/3/2
f 75/3/2 76/3/2 79/3/2
f 79/3/2 76/3/2 80/3/2
f 77/3/2 78/3/2 81/3/2
f 81/3/2 78/3/2 82/3/2
f 79/1/2 80/1/2 83/1/2
f 83/1/2 80/1/2 84/1/2
f 81/1/2 82/1/2 85/1/2
f 85/1/2 82/1/2 86/1/2
f 83/3/2 84/3/2 87/3/2
f 87/3/2 84/3/2 88/3/2
f 85/3/2 86/3/2 89/3/2
f 89/3/2 86/3/2 90/3/2
f 88/3/2 89/3/2 91/3/2
f 91/3/2 89/3/2 92/3/2
f 93/3/2 94/3/2 95/3/2
f 95/3/2 94/3/2 96/3/2
f 95/1/2 96/1/2 97/1/2
f 97/1/2 96/1/2 98/1/2
f 97/3/2 98/3/2 99/3/2
f 99/3/2 98/3/2 100/3/2
f 106/3/3 102/3/3 101/3/3
f 107/1/3 103/1/3 102/1/3
f 107/3/3 102/3/3 106/3/3
f 108/2/3 104/2/3 103/2/3
f 108/1/3 103/1/3 107/1/3
f 109/3/3 105/3/3 104/3/3
f 109/2/3 104/2/3 108/2/3
f 110/3/3 105/3/3 109/3/3
f 115/3/3 112/3/3 111/3/3
f 116/1/3 113/1/3 112/1/3
f 116/3/3 112/3/3 115/3/3
f 117/1/3 113/1/3 116/1/3
f 118/3/3 114/3/3 113/3/3
f 118/1/3 113/1/3 117/1/3
f 119/3/3 114/3/3 118/3/3
f 125/3/3 120/3/3 119/3/3
f 126/3/3 120/3/3 125/3/3
f 127/3/3 122/3/3 121/3/3
f 128/1/3 124/1/3 123/1/3
f 128/3/3 122/3/3 127/3/3
f 128/1/3 123/1/3 122/1/3
f 129/3/3 125/3/3 124/3/3
f 129/1/3 124/1/3 128/1/3
f 130/3/3 125/3/3 129/3/3
f 135/3/3 132/3/3 131/3/3
f 136/1/3 133/1/3 132/1/3
f 136/3/3 132/3/3 135/3/3
f 137/3/3 134/3/3 133/3/3
f 137/1/3 133/1/3 136/1/3
f 138/3/3 134/3/3 137/3/3
f 140/3/3 139/3/3 138/3/3
f 141/3/3 139/3/3 140/3/3
f 147/3/3 143/3/3 142/3/3
f 148/3/3 143/3/3 147/3/3
f 149/3/3 145/3/3 144/3/3
f 150/1/3 146/1/3 145/1/3
f 150/3/3 145/3/3 149/3/3
f 151/3/3 147/3/3 146/3/3
f 151/1/3 146/1/3 150/1/3
f 152/3/3 147/3/3 151/3/3
f 153/3/4 154/3/4 157/3/4
f 154/1/4 155/1/4 158/1/4
f 157/3/4 154/3/4 158/3/4
f 155/3/4 156/3/4 159/3/4
f 158/1/4 155/1/4 159/1/4
f 159/3/4 156/3/4 160/3/4
f 160/3/4 161/3/4 162/3/4
f 162/3/4 161/3/4 163/3/4
f 164/3/4 165/3/4 169/3/4
f 169/3/4 165/3/4 170/3/4
f 166/3/4 167/3/4 171/3/4
f 167/1/4 168/1/4 172/1/4
f 171/3/4 167/3/4 172/3/4
f 168/3/4 169/3/4 173/3/4
f 172/1/4 168/1/4 173/1/4
f 173/3/4 169/3/4 174/3/4
f 175/3/4 176/3/4 179/3/4
f 176/1/4 177/1/4 180/1/4
f 179/3/4 176/3/4 180/3/4
f 177/3/4 178/3/4 181/3/4
f 180/1/4 177/1/4 181/1/4
f 181/3/4 178/3/4 182/3/4
f 182/3/4 183/3/4 187/3/4
f 187/3/4 183/3/4 188/3/4
f 184/3/4 185/3/4 189/3/4
f 185/1/4 186/1/4 190/1/4
f 189/3/4 185/3/4 190/3/4
f 186/3/4 187/3/4 191/3/4
f 190/1/4 186/1/4 191/1/4
f 191/3/4 187/3/4 192/3/4
f 193/3/4 194/3/4 197/3/4
f 194/1/4 195/1/4 198/1/4
f 197/3/4 194/3/4 198/3/4
f 195/3/4 196/3/4 199/3/4
f 198/1/4 195/1/4 199/1/4
f 199/3/4 196/3/4 200/3/4
f 204/3/5 202/3/5 201/3/5
f 205/3/5 202/3/5 204/3/5
f 208/3/5 204/3/5 203/3/5
f 208/3/5 206/3/5 205/3/5
f 208/3/5 205/3/5 204/3/5
f 209/3/5 206/3/5 208/3/5
f 211/3/5 208/3/5 207/3/5
f 211/3/5 210/3/5 209/3/5
f 211/3/5 209/3/5 208/3/5
f 212/3/5 210/3/5 211/3/5
f 213/3/5 210/3/5 212/3/5
f 214/3/5 210/3/5 213/3/5
f 215/3/5 213/3/5 212/3/5
f 216/3/5 213/3/5 215/3/5
f 217/3/5 213/3/5 216/3/5
f 218/3/5 213/3/5 217/3/5
f 219/3/5 217/3/5 216/3/5
f 220/3/5 217/3/5 219/3/5
f 221/3/6 222/3/6 224/3/6
f 224/3/6 222/3/6 225/3/6
f 223/3/6 224/3/6 228/3/6
f 228/3/6 224/3/6 229/3/6
f 225/3/6 226/3/6 230/3/6
f 230/3/6 226/3/6 231/3/6
f 227/3/6 228/3/6 233/3/6
f 233/3/6 228/3/6 234/3/6
f 231/3/6 232/3/6 237/3/6
f 237/3/6 232/3/6 238/3/6
f 234/3/6 235/3/6 239/3/6
f 239/3/6 235/3/6 240/3/6
f 236/3/6 237/3/6 241/3/6
f 241/3/6 237/3/6 242/3/6
f 240/3/6 241/3/6 243/3/6
f 243/3/6 241/3/6 244/3/6
f 245/3/6 246/3/6 248/3/6
f 248/3/6 246/3/6 249/3/6
f 247/3/6 248/3/6 251/3/6
f 249/3/6 250/3/6 251/3/6
f 248/3/6 249/3/6 251/3/6
f 251/3/6 250/3/6 252/3/6
f 252/3/6 250/3/6 253/3/6
f 253/3/6 250/3/6 254/3/6
f 252/3/6 253/3/6 255/3/6
f 255/3/6 253/3/6 256/3/6
