# MagicaVoxel @ Ephtracy

# group
o 

# material
mtllib flamenguistasentado.mtl
usemtl palette

# normals
vn -1 0 0
vn 1 0 0
vn 0 0 1
vn 0 0 -1
vn 0 -1 0
vn 0 1 0

# texcoords
vt 0.00195312 0.5
vt 0.0253906 0.5
vt 0.0644531 0.5
vt 0.0761719 0.5
vt 0.158203 0.5
vt 0.173828 0.5
vt 0.376953 0.5

# verts
v -0.4 0.3 0.1
v -0.4 0.3 -0.1
v -0.4 0.4 0.1
v -0.4 0.4 -0.1
v -0.4 0.5 0.1
v -0.4 0.5 -0.1
v -0.4 0.6 0.1
v -0.4 0.6 -0.1
v -0.4 0.8 0
v -0.4 0.8 -0.1
v -0.4 1 0
v -0.4 1 -0.1
v -0.3 0.1 0.1
v -0.3 0.1 -0.1
v -0.3 0.1 -0.3
v -0.3 0.2 -0.1
v -0.3 0.2 -0.2
v -0.3 0.3 0.1
v -0.3 0.3 -0.1
v -0.3 0.3 -0.2
v -0.3 0.3 -0.3
v -0.3 0.7 0.2
v -0.3 0.7 -0.2
v -0.3 0.8 0.2
v -0.3 0.8 0.1
v -0.3 0.8 0
v -0.3 0.8 -0.1
v -0.3 0.9 0.1
v -0.3 0.9 0
v -0.3 0.9 -0.1
v -0.3 0.9 -0.2
v -0.3 1 0
v -0.3 1 -0.1
v -0.3 1 -0.2
v -0.3 1.1 0
v -0.3 1.1 -0.2
v -0.3 1.2 0.2
v -0.3 1.2 -0.2
v -0.1 0.6 0.1
v -0.1 0.6 -0.1
v -0.1 0.7 0.1
v -0.1 0.7 -0.1
v -0.1 0.8 0.3
v -0.1 0.8 0.2
v -0.1 0.9 0.4
v -0.1 0.9 0.3
v -0.1 1 -0.2
v -0.1 1 -0.3
v -0.1 1.1 0.4
v -0.1 1.1 0.3
v -0.1 1.1 -0.2
v -0.1 1.2 0.3
v -0.1 1.2 0.2
v -0.1 1.2 -0.2
v -0.1 1.3 0.2
v -0.1 1.3 0.1
v -0.1 1.3 -0.2
v -0.1 1.3 -0.3
v -0.1 1.4 0.1
v -0.1 1.4 -0.2
v 0.1 0.1 0.1
v 0.1 0.1 -0.1
v 0.1 0.1 -0.3
v 0.1 0.2 0.1
v 0.1 0.2 -0.1
v 0.1 0.2 -0.2
v 0.1 0.3 -0.2
v 0.1 0.3 -0.3
v -0.1 0.1 0.1
v -0.1 0.1 -0.1
v -0.1 0.1 -0.3
v -0.1 0.2 0.1
v -0.1 0.2 -0.1
v -0.1 0.2 -0.2
v -0.1 0.3 -0.2
v -0.1 0.3 -0.3
v 0 0.9 0.4
v 0 0.9 0.3
v 0 1.1 0.4
v 0 1.1 0.3
v 0.1 0.6 0.1
v 0.1 0.6 -0.1
v 0.1 0.7 0.1
v 0.1 0.7 -0.1
v 0.1 0.8 0.3
v 0.1 0.8 0.2
v 0.1 1 -0.2
v 0.1 1 -0.3
v 0.1 1.1 -0.2
v 0.1 1.2 0.3
v 0.1 1.2 0.2
v 0.1 1.2 -0.2
v 0.1 1.3 0.2
v 0.1 1.3 0.1
v 0.1 1.3 -0.2
v 0.1 1.3 -0.3
v 0.1 1.4 0.1
v 0.1 1.4 -0.2
v 0.3 0.1 0.1
v 0.3 0.1 -0.1
v 0.3 0.1 -0.3
v 0.3 0.2 -0.1
v 0.3 0.2 -0.2
v 0.3 0.3 0.1
v 0.3 0.3 -0.1
v 0.3 0.3 -0.2
v 0.3 0.3 -0.3
v 0.3 0.7 0.2
v 0.3 0.7 -0.2
v 0.3 0.8 0.2
v 0.3 0.8 0.1
v 0.3 0.8 0
v 0.3 0.8 -0.1
v 0.3 0.9 0.1
v 0.3 0.9 0
v 0.3 0.9 -0.1
v 0.3 0.9 -0.2
v 0.3 1 0
v 0.3 1 -0.1
v 0.3 1 -0.2
v 0.3 1.1 0
v 0.3 1.1 -0.2
v 0.3 1.2 0.2
v 0.3 1.2 -0.2
v 0.4 0.3 0.1
v 0.4 0.3 -0.1
v 0.4 0.4 0.1
v 0.4 0.4 -0.1
v 0.4 0.5 0.1
v 0.4 0.5 -0.1
v 0.4 0.6 0.1
v 0.4 0.6 -0.1
v 0.4 0.8 0
v 0.4 0.8 -0.1
v 0.4 1 0
v 0.4 1 -0.1
v -0.1 0.9 0.4
v -0.1 1.1 0.4
v 0 0.9 0.4
v 0 1.1 0.4
v -0.1 0.8 0.3
v -0.1 0.9 0.3
v -0.1 1.1 0.3
v -0.1 1.2 0.3
v 0 0.9 0.3
v 0 1.1 0.3
v 0.1 0.8 0.3
v 0.1 1.2 0.3
v -0.3 0.7 0.2
v -0.3 0.8 0.2
v -0.3 1.2 0.2
v -0.1 0.8 0.2
v -0.1 1.2 0.2
v -0.1 1.3 0.2
v 0.1 0.8 0.2
v 0.1 1.2 0.2
v 0.1 1.3 0.2
v 0.3 0.7 0.2
v 0.3 0.8 0.2
v 0.3 1.2 0.2
v -0.4 0.3 0.1
v -0.4 0.4 0.1
v -0.4 0.5 0.1
v -0.4 0.6 0.1
v -0.3 0.1 0.1
v -0.3 0.3 0.1
v -0.3 0.4 0.1
v -0.3 0.5 0.1
v -0.3 0.6 0.1
v -0.1 0.1 0.1
v -0.1 0.2 0.1
v -0.1 0.6 0.1
v -0.1 0.7 0.1
v -0.1 1.3 0.1
v -0.1 1.4 0.1
v 0.1 0.1 0.1
v 0.1 0.2 0.1
v 0.1 0.6 0.1
v 0.1 0.7 0.1
v 0.1 1.3 0.1
v 0.1 1.4 0.1
v 0.3 0.1 0.1
v 0.3 0.3 0.1
v 0.3 0.4 0.1
v 0.3 0.5 0.1
v 0.3 0.6 0.1
v 0.4 0.3 0.1
v 0.4 0.4 0.1
v 0.4 0.5 0.1
v 0.4 0.6 0.1
v -0.4 0.8 0
v -0.4 1 0
v -0.3 0.8 0
v -0.3 0.9 0
v -0.3 1 0
v 0.3 0.8 0
v 0.3 0.9 0
v 0.3 1 0
v 0.4 0.8 0
v 0.4 1 0
v -0.3 0.2 -0.2
v -0.3 0.3 -0.2
v -0.1 0.2 -0.2
v -0.1 0.3 -0.2
v 0.1 0.2 -0.2
v 0.1 0.3 -0.2
v 0.3 0.2 -0.2
v 0.3 0.3 -0.2
v -0.4 0.3 -0.1
v -0.4 0.4 -0.1
v -0.4 0.5 -0.1
v -0.4 0.6 -0.1
v -0.4 0.8 -0.1
v -0.4 1 -0.1
v -0.3 0.2 -0.1
v -0.3 0.3 -0.1
v -0.3 0.4 -0.1
v -0.3 0.5 -0.1
v -0.3 0.6 -0.1
v -0.3 0.8 -0.1
v -0.3 0.9 -0.1
v -0.3 1 -0.1
v -0.1 0.2 -0.1
v -0.1 0.6 -0.1
v -0.1 0.7 -0.1
v 0.1 0.2 -0.1
v 0.1 0.6 -0.1
v 0.1 0.7 -0.1
v 0.3 0.2 -0.1
v 0.3 0.3 -0.1
v 0.3 0.4 -0.1
v 0.3 0.5 -0.1
v 0.3 0.6 -0.1
v 0.3 0.8 -0.1
v 0.3 0.9 -0.1
v 0.3 1 -0.1
v 0.4 0.3 -0.1
v 0.4 0.4 -0.1
v 0.4 0.5 -0.1
v 0.4 0.6 -0.1
v 0.4 0.8 -0.1
v 0.4 1 -0.1
v -0.3 0.7 -0.2
v -0.3 0.9 -0.2
v -0.3 1 -0.2
v -0.3 1.1 -0.2
v -0.3 1.2 -0.2
v -0.2 0.9 -0.2
v -0.2 1 -0.2
v -0.1 0.7 -0.2
v -0.1 0.8 -0.2
v -0.1 0.9 -0.2
v -0.1 1 -0.2
v -0.1 1.1 -0.2
v -0.1 1.2 -0.2
v -0.1 1.3 -0.2
v -0.1 1.4 -0.2
v 0.1 0.7 -0.2
v 0.1 0.8 -0.2
v 0.1 0.9 -0.2
v 0.1 1 -0.2
v 0.1 1.1 -0.2
v 0.1 1.2 -0.2
v 0.1 1.3 -0.2
v 0.1 1.4 -0.2
v 0.2 0.9 -0.2
v 0.2 1 -0.2
v 0.3 0.7 -0.2
v 0.3 0.9 -0.2
v 0.3 1 -0.2
v 0.3 1.1 -0.2
v 0.3 1.2 -0.2
v -0.3 0.1 -0.3
v -0.3 0.3 -0.3
v -0.1 0.1 -0.3
v -0.1 0.3 -0.3
v -0.1 1 -0.3
v -0.1 1.3 -0.3
v 0.1 0.1 -0.3
v 0.1 0.3 -0.3
v 0.1 1 -0.3
v 0.1 1.3 -0.3
v 0.3 0.1 -0.3
v 0.3 0.3 -0.3
v -0.3 0.1 0.1
v -0.1 0.1 0.1
v 0.1 0.1 0.1
v 0.3 0.1 0.1
v -0.3 0.1 -0.1
v -0.1 0.1 -0.1
v 0.1 0.1 -0.1
v 0.3 0.1 -0.1
v -0.3 0.1 -0.3
v -0.1 0.1 -0.3
v 0.1 0.1 -0.3
v 0.3 0.1 -0.3
v -0.1 0.2 0.1
v 0.1 0.2 0.1
v -0.1 0.2 -0.1
v 0.1 0.2 -0.1
v -0.4 0.3 0.1
v -0.3 0.3 0.1
v 0.3 0.3 0.1
v 0.4 0.3 0.1
v -0.4 0.3 -0.1
v -0.3 0.3 -0.1
v 0.3 0.3 -0.1
v 0.4 0.3 -0.1
v -0.3 0.7 0.2
v 0.3 0.7 0.2
v -0.1 0.7 0.1
v 0.1 0.7 0.1
v -0.1 0.7 -0.1
v 0.1 0.7 -0.1
v -0.3 0.7 -0.2
v -0.1 0.7 -0.2
v 0.1 0.7 -0.2
v 0.3 0.7 -0.2
v -0.1 0.8 0.3
v 0.1 0.8 0.3
v -0.1 0.8 0.2
v 0.1 0.8 0.2
v -0.4 0.8 0
v -0.3 0.8 0
v 0.3 0.8 0
v 0.4 0.8 0
v -0.4 0.8 -0.1
v -0.3 0.8 -0.1
v 0.3 0.8 -0.1
v 0.4 0.8 -0.1
v -0.1 0.9 0.4
v 0 0.9 0.4
v -0.1 0.9 0.3
v 0 0.9 0.3
v -0.1 1 -0.2
v 0.1 1 -0.2
v -0.1 1 -0.3
v 0.1 1 -0.3
v -0.3 0.2 -0.1
v -0.1 0.2 -0.1
v 0.1 0.2 -0.1
v 0.3 0.2 -0.1
v -0.3 0.2 -0.2
v -0.1 0.2 -0.2
v 0.1 0.2 -0.2
v 0.3 0.2 -0.2
v -0.3 0.3 -0.2
v -0.1 0.3 -0.2
v 0.1 0.3 -0.2
v 0.3 0.3 -0.2
v -0.3 0.3 -0.3
v -0.1 0.3 -0.3
v 0.1 0.3 -0.3
v 0.3 0.3 -0.3
v -0.4 0.6 0.1
v -0.3 0.6 0.1
v -0.1 0.6 0.1
v 0.1 0.6 0.1
v 0.3 0.6 0.1
v 0.4 0.6 0.1
v -0.4 0.6 -0.1
v -0.3 0.6 -0.1
v -0.1 0.6 -0.1
v 0.1 0.6 -0.1
v 0.3 0.6 -0.1
v 0.4 0.6 -0.1
v -0.4 1 0
v -0.3 1 0
v 0.3 1 0
v 0.4 1 0
v -0.4 1 -0.1
v -0.3 1 -0.1
v 0.3 1 -0.1
v 0.4 1 -0.1
v -0.1 1.1 0.4
v 0 1.1 0.4
v -0.1 1.1 0.3
v 0 1.1 0.3
v -0.1 1.2 0.3
v 0.1 1.2 0.3
v -0.3 1.2 0.2
v -0.1 1.2 0.2
v 0.1 1.2 0.2
v 0.3 1.2 0.2
v -0.3 1.2 -0.2
v -0.1 1.2 -0.2
v 0.1 1.2 -0.2
v 0.3 1.2 -0.2
v -0.1 1.3 0.2
v 0.1 1.3 0.2
v -0.1 1.3 0.1
v 0.1 1.3 0.1
v -0.1 1.3 -0.2
v 0.1 1.3 -0.2
v -0.1 1.3 -0.3
v 0.1 1.3 -0.3
v -0.1 1.4 0.1
v 0.1 1.4 0.1
v -0.1 1.4 -0.2
v 0.1 1.4 -0.2

# faces
f 3/6/1 2/6/1 1/6/1
f 4/6/1 2/6/1 3/6/1
f 5/3/1 4/3/1 3/3/1
f 6/3/1 4/3/1 5/3/1
f 7/1/1 6/1/1 5/1/1
f 8/1/1 6/1/1 7/1/1
f 11/6/1 10/6/1 9/6/1
f 12/6/1 10/6/1 11/6/1
f 16/1/1 14/1/1 13/1/1
f 16/6/1 15/6/1 14/6/1
f 17/6/1 15/6/1 16/6/1
f 18/1/1 16/1/1 13/1/1
f 19/1/1 16/1/1 18/1/1
f 20/6/1 15/6/1 17/6/1
f 21/6/1 15/6/1 20/6/1
f 24/6/1 23/6/1 22/6/1
f 25/6/1 23/6/1 24/6/1
f 26/6/1 23/6/1 25/6/1
f 27/6/1 23/6/1 26/6/1
f 28/2/1 25/2/1 24/2/1
f 28/6/1 26/6/1 25/6/1
f 29/6/1 26/6/1 28/6/1
f 30/6/1 23/6/1 27/6/1
f 31/6/1 23/6/1 30/6/1
f 32/2/1 29/2/1 28/2/1
f 33/7/1 31/7/1 30/7/1
f 34/7/1 31/7/1 33/7/1
f 35/2/1 32/2/1 28/2/1
f 35/6/1 33/6/1 32/6/1
f 35/6/1 34/6/1 33/6/1
f 36/6/1 34/6/1 35/6/1
f 37/2/1 28/2/1 24/2/1
f 37/2/1 35/2/1 28/2/1
f 37/2/1 36/2/1 35/2/1
f 38/2/1 36/2/1 37/2/1
f 41/6/1 40/6/1 39/6/1
f 42/6/1 40/6/1 41/6/1
f 46/5/1 44/5/1 43/5/1
f 49/5/1 46/5/1 45/5/1
f 50/5/1 44/5/1 46/5/1
f 50/5/1 46/5/1 49/5/1
f 51/5/1 48/5/1 47/5/1
f 52/5/1 44/5/1 50/5/1
f 53/5/1 44/5/1 52/5/1
f 54/5/1 48/5/1 51/5/1
f 55/5/1 54/5/1 53/5/1
f 56/5/1 54/5/1 55/5/1
f 57/5/1 48/5/1 54/5/1
f 57/5/1 54/5/1 56/5/1
f 58/5/1 48/5/1 57/5/1
f 59/5/1 57/5/1 56/5/1
f 60/5/1 57/5/1 59/5/1
f 64/1/1 62/1/1 61/1/1
f 65/6/1 63/6/1 62/6/1
f 65/1/1 62/1/1 64/1/1
f 66/6/1 63/6/1 65/6/1
f 67/6/1 63/6/1 66/6/1
f 68/6/1 63/6/1 67/6/1
f 69/1/2 70/1/2 72/1/2
f 70/6/2 71/6/2 73/6/2
f 72/1/2 70/1/2 73/1/2
f 73/6/2 71/6/2 74/6/2
f 74/6/2 71/6/2 75/6/2
f 75/6/2 71/6/2 76/6/2
f 77/5/2 78/5/2 79/5/2
f 79/5/2 78/5/2 80/5/2
f 81/6/2 82/6/2 83/6/2
f 83/6/2 82/6/2 84/6/2
f 87/5/2 88/5/2 89/5/2
f 85/5/2 86/5/2 90/5/2
f 90/5/2 86/5/2 91/5/2
f 89/5/2 88/5/2 92/5/2
f 91/5/2 92/5/2 93/5/2
f 93/5/2 92/5/2 94/5/2
f 92/5/2 88/5/2 95/5/2
f 94/5/2 92/5/2 95/5/2
f 95/5/2 88/5/2 96/5/2
f 94/5/2 95/5/2 97/5/2
f 97/5/2 95/5/2 98/5/2
f 99/1/2 100/1/2 102/1/2
f 100/6/2 101/6/2 102/6/2
f 102/6/2 101/6/2 103/6/2
f 99/1/2 102/1/2 104/1/2
f 104/1/2 102/1/2 105/1/2
f 103/6/2 101/6/2 106/6/2
f 106/6/2 101/6/2 107/6/2
f 108/6/2 109/6/2 110/6/2
f 110/6/2 109/6/2 111/6/2
f 111/6/2 109/6/2 112/6/2
f 112/6/2 109/6/2 113/6/2
f 110/2/2 111/2/2 114/2/2
f 111/6/2 112/6/2 114/6/2
f 114/6/2 112/6/2 115/6/2
f 113/6/2 109/6/2 116/6/2
f 116/6/2 109/6/2 117/6/2
f 114/2/2 115/2/2 118/2/2
f 116/7/2 117/7/2 119/7/2
f 119/7/2 117/7/2 120/7/2
f 114/2/2 118/2/2 121/2/2
f 118/6/2 119/6/2 121/6/2
f 119/6/2 120/6/2 121/6/2
f 121/6/2 120/6/2 122/6/2
f 110/2/2 114/2/2 123/2/2
f 114/2/2 121/2/2 123/2/2
f 121/2/2 122/2/2 123/2/2
f 123/2/2 122/2/2 124/2/2
f 125/6/2 126/6/2 127/6/2
f 127/6/2 126/6/2 128/6/2
f 127/3/2 128/3/2 129/3/2
f 129/3/2 128/3/2 130/3/2
f 129/1/2 130/1/2 131/1/2
f 131/1/2 130/1/2 132/1/2
f 133/6/2 134/6/2 135/6/2
f 135/6/2 134/6/2 136/6/2
f 139/5/3 138/5/3 137/5/3
f 140/5/3 138/5/3 139/5/3
f 145/5/3 142/5/3 141/5/3
f 146/5/3 144/5/3 143/5/3
f 147/5/3 145/5/3 141/5/3
f 147/5/3 146/5/3 145/5/3
f 148/5/3 144/5/3 146/5/3
f 148/5/3 146/5/3 147/5/3
f 152/6/3 150/6/3 149/6/3
f 152/2/3 151/2/3 150/2/3
f 153/2/3 151/2/3 152/2/3
f 155/6/3 152/6/3 149/6/3
f 156/5/3 154/5/3 153/5/3
f 157/5/3 154/5/3 156/5/3
f 158/6/3 155/6/3 149/6/3
f 159/2/3 156/2/3 155/2/3
f 159/6/3 155/6/3 158/6/3
f 160/2/3 156/2/3 159/2/3
f 166/6/3 162/6/3 161/6/3
f 167/3/3 163/3/3 162/3/3
f 167/6/3 162/6/3 166/6/3
f 168/1/3 164/1/3 163/1/3
f 168/3/3 163/3/3 167/3/3
f 169/1/3 164/1/3 168/1/3
f 170/1/3 166/1/3 165/1/3
f 171/1/3 166/1/3 170/1/3
f 172/3/3 169/3/3 168/3/3
f 177/1/3 166/1/3 171/1/3
f 178/3/3 172/3/3 168/3/3
f 178/6/3 173/6/3 172/6/3
f 179/6/3 173/6/3 178/6/3
f 180/5/3 175/5/3 174/5/3
f 181/5/3 175/5/3 180/5/3
f 182/1/3 177/1/3 176/1/3
f 183/3/3 167/3/3 166/3/3
f 183/1/3 177/1/3 182/1/3
f 183/1/3 166/1/3 177/1/3
f 184/1/3 168/1/3 167/1/3
f 184/3/3 167/3/3 183/3/3
f 185/3/3 178/3/3 168/3/3
f 185/1/3 168/1/3 184/1/3
f 186/3/3 178/3/3 185/3/3
f 187/6/3 184/6/3 183/6/3
f 188/3/3 185/3/3 184/3/3
f 188/6/3 184/6/3 187/6/3
f 189/1/3 186/1/3 185/1/3
f 189/3/3 185/3/3 188/3/3
f 190/1/3 186/1/3 189/1/3
f 193/6/3 192/6/3 191/6/3
f 194/6/3 192/6/3 193/6/3
f 195/6/3 192/6/3 194/6/3
f 199/6/3 197/6/3 196/6/3
f 199/6/3 198/6/3 197/6/3
f 200/6/3 198/6/3 199/6/3
f 203/6/3 202/6/3 201/6/3
f 204/6/3 202/6/3 203/6/3
f 207/6/3 206/6/3 205/6/3
f 208/6/3 206/6/3 207/6/3
f 209/6/4 210/6/4 216/6/4
f 210/3/4 211/3/4 217/3/4
f 216/6/4 210/6/4 217/6/4
f 211/1/4 212/1/4 218/1/4
f 217/3/4 211/3/4 218/3/4
f 218/1/4 212/1/4 219/1/4
f 213/6/4 214/6/4 220/6/4
f 220/6/4 214/6/4 221/6/4
f 221/6/4 214/6/4 222/6/4
f 215/1/4 216/1/4 223/1/4
f 218/3/4 219/3/4 224/3/4
f 223/1/4 216/1/4 226/1/4
f 224/6/4 225/6/4 227/6/4
f 218/3/4 224/3/4 227/3/4
f 227/6/4 225/6/4 228/6/4
f 226/1/4 216/1/4 229/1/4
f 216/3/4 217/3/4 230/3/4
f 229/1/4 216/1/4 230/1/4
f 217/1/4 218/1/4 231/1/4
f 230/3/4 217/3/4 231/3/4
f 218/3/4 227/3/4 232/3/4
f 231/1/4 218/1/4 232/1/4
f 232/3/4 227/3/4 233/3/4
f 230/6/4 231/6/4 237/6/4
f 231/3/4 232/3/4 238/3/4
f 237/6/4 231/6/4 238/6/4
f 232/1/4 233/1/4 239/1/4
f 238/3/4 232/3/4 239/3/4
f 239/1/4 233/1/4 240/1/4
f 235/6/4 236/6/4 241/6/4
f 234/6/4 235/6/4 241/6/4
f 241/6/4 236/6/4 242/6/4
f 243/6/4 244/6/4 248/6/4
f 244/7/4 245/7/4 248/7/4
f 245/6/4 246/6/4 249/6/4
f 248/7/4 245/7/4 249/7/4
f 243/6/4 248/6/4 250/6/4
f 250/6/4 248/6/4 251/6/4
f 248/5/4 249/5/4 252/5/4
f 251/6/4 248/6/4 252/6/4
f 249/6/4 246/6/4 253/6/4
f 252/5/4 249/5/4 253/5/4
f 246/2/4 247/2/4 254/2/4
f 253/6/4 246/6/4 254/6/4
f 254/2/4 247/2/4 255/2/4
f 250/4/4 251/4/4 258/4/4
f 252/6/4 253/6/4 259/6/4
f 258/4/4 251/4/4 259/4/4
f 251/6/4 252/6/4 259/6/4
f 259/6/4 253/6/4 260/6/4
f 260/6/4 253/6/4 261/6/4
f 256/5/4 257/5/4 264/5/4
f 264/5/4 257/5/4 265/5/4
f 258/6/4 259/6/4 266/6/4
f 259/6/4 260/6/4 266/6/4
f 260/5/4 261/5/4 266/5/4
f 261/6/4 262/6/4 267/6/4
f 266/5/4 261/5/4 267/5/4
f 258/6/4 266/6/4 268/6/4
f 266/7/4 267/7/4 269/7/4
f 268/6/4 266/6/4 269/6/4
f 267/6/4 262/6/4 270/6/4
f 269/7/4 267/7/4 270/7/4
f 262/2/4 263/2/4 271/2/4
f 270/6/4 262/6/4 271/6/4
f 271/2/4 263/2/4 272/2/4
f 273/6/4 274/6/4 275/6/4
f 275/6/4 274/6/4 276/6/4
f 277/5/4 278/5/4 281/5/4
f 281/5/4 278/5/4 282/5/4
f 279/6/4 280/6/4 283/6/4
f 283/6/4 280/6/4 284/6/4
f 289/1/5 286/1/5 285/1/5
f 290/1/5 286/1/5 289/1/5
f 291/1/5 288/1/5 287/1/5
f 292/1/5 288/1/5 291/1/5
f 293/6/5 290/6/5 289/6/5
f 294/6/5 290/6/5 293/6/5
f 295/6/5 292/6/5 291/6/5
f 296/6/5 292/6/5 295/6/5
f 299/1/5 298/1/5 297/1/5
f 300/1/5 298/1/5 299/1/5
f 305/6/5 302/6/5 301/6/5
f 306/6/5 302/6/5 305/6/5
f 307/6/5 304/6/5 303/6/5
f 308/6/5 304/6/5 307/6/5
f 311/6/5 310/6/5 309/6/5
f 312/6/5 310/6/5 311/6/5
f 313/6/5 311/6/5 309/6/5
f 314/6/5 310/6/5 312/6/5
f 315/6/5 313/6/5 309/6/5
f 316/4/5 314/4/5 313/4/5
f 316/6/5 313/6/5 315/6/5
f 317/6/5 310/6/5 314/6/5
f 317/4/5 314/4/5 316/4/5
f 318/6/5 310/6/5 317/6/5
f 321/5/5 320/5/5 319/5/5
f 322/5/5 320/5/5 321/5/5
f 327/6/5 324/6/5 323/6/5
f 328/6/5 324/6/5 327/6/5
f 329/6/5 326/6/5 325/6/5
f 330/6/5 326/6/5 329/6/5
f 333/5/5 332/5/5 331/5/5
f 334/5/5 332/5/5 333/5/5
f 337/5/5 336/5/5 335/5/5
f 338/5/5 336/5/5 337/5/5
f 339/6/6 340/6/6 343/6/6
f 343/6/6 340/6/6 344/6/6
f 341/6/6 342/6/6 345/6/6
f 345/6/6 342/6/6 346/6/6
f 347/6/6 348/6/6 351/6/6
f 351/6/6 348/6/6 352/6/6
f 349/6/6 350/6/6 353/6/6
f 353/6/6 350/6/6 354/6/6
f 355/1/6 356/1/6 361/1/6
f 356/3/6 357/3/6 362/3/6
f 361/1/6 356/1/6 362/1/6
f 362/3/6 357/3/6 363/3/6
f 358/3/6 359/3/6 364/3/6
f 359/1/6 360/1/6 365/1/6
f 364/3/6 359/3/6 365/3/6
f 365/1/6 360/1/6 366/1/6
f 367/6/6 368/6/6 371/6/6
f 371/6/6 368/6/6 372/6/6
f 369/6/6 370/6/6 373/6/6
f 373/6/6 370/6/6 374/6/6
f 375/5/6 376/5/6 377/5/6
f 377/5/6 376/5/6 378/5/6
f 379/5/6 380/5/6 382/5/6
f 382/5/6 380/5/6 383/5/6
f 381/2/6 382/2/6 385/2/6
f 385/2/6 382/2/6 386/2/6
f 383/2/6 384/2/6 387/2/6
f 387/2/6 384/2/6 388/2/6
f 389/5/6 390/5/6 391/5/6
f 391/5/6 390/5/6 392/5/6
f 393/5/6 394/5/6 395/5/6
f 395/5/6 394/5/6 396/5/6
f 397/5/6 398/5/6 399/5/6
f 399/5/6 398/5/6 400/5/6
