# MagicaVoxel @ Ephtracy

# group
o 

# material
mtllib pagodinho.mtl
usemtl palette

# normals
vn -1 0 0
vn 1 0 0
vn 0 0 1
vn 0 0 -1
vn 0 -1 0
vn 0 1 0

# texcoords
vt 0.00195312 0.5
vt 0.0253906 0.5
vt 0.158203 0.5
vt 0.361328 0.5
vt 0.376953 0.5

# verts
v -0.4 0.3 0.1
v -0.4 0.3 -0.1
v -0.4 0.4 0.1
v -0.4 0.4 -0.1
v -0.4 0.6 0.1
v -0.4 0.6 -0.1
v -0.4 0.9 0.2
v -0.4 0.9 0
v -0.4 0.9 -0.1
v -0.4 1.1 0
v -0.4 1.1 -0.1
v -0.4 1.1 -0.2
v -0.4 1.2 0.2
v -0.4 1.2 -0.2
v -0.3 0 0.1
v -0.3 0 -0.2
v -0.3 0.1 0.1
v -0.3 0.1 -0.1
v -0.3 0.1 -0.2
v -0.3 0.3 0.1
v -0.3 0.3 -0.1
v -0.3 0.3 -0.2
v -0.3 0.4 -0.1
v -0.3 0.6 -0.1
v -0.3 0.6 -0.2
v -0.3 0.7 0.2
v -0.3 0.7 -0.2
v -0.3 0.9 0.3
v -0.3 0.9 0.2
v -0.3 0.9 0
v -0.3 0.9 -0.1
v -0.3 0.9 -0.2
v -0.3 1.1 -0.1
v -0.3 1.1 -0.2
v -0.3 1.2 0.3
v -0.3 1.2 0.2
v -0.3 1.2 -0.1
v -0.3 1.3 0.2
v -0.3 1.3 -0.1
v -0.2 1.3 0.2
v -0.2 1.3 -0.1
v -0.2 1.4 0.2
v -0.2 1.4 -0.1
v -0.1 0.6 0.1
v -0.1 0.6 0
v -0.1 0.6 -0.1
v -0.1 0.7 0.1
v -0.1 0.7 -0.1
v -0.1 1.2 -0.1
v -0.1 1.2 -0.2
v -0.1 1.3 -0.1
v -0.1 1.3 -0.2
v 0.1 0 0.1
v 0.1 0 -0.2
v 0.1 0.1 0.1
v 0.1 0.1 -0.1
v 0.1 0.1 -0.2
v 0.1 0.2 0.1
v 0.1 0.2 -0.1
v 0.1 0.3 -0.1
v 0.1 0.3 -0.2
v 0.1 0.5 -0.1
v 0.1 0.5 -0.2
v 0.2 0.5 -0.1
v 0.2 0.5 -0.2
v 0.2 0.6 -0.1
v 0.2 0.6 -0.2
v -0.2 0.5 -0.1
v -0.2 0.5 -0.2
v -0.2 0.6 -0.1
v -0.2 0.6 -0.2
v -0.1 0 0.1
v -0.1 0 -0.2
v -0.1 0.1 0.1
v -0.1 0.1 -0.1
v -0.1 0.1 -0.2
v -0.1 0.2 0.1
v -0.1 0.2 -0.1
v -0.1 0.3 -0.1
v -0.1 0.3 -0.2
v -0.1 0.5 -0.1
v -0.1 0.5 -0.2
v 0.1 0.6 0.1
v 0.1 0.6 0
v 0.1 0.6 -0.1
v 0.1 0.7 0.1
v 0.1 0.7 -0.1
v 0.1 1.2 -0.1
v 0.1 1.2 -0.2
v 0.1 1.3 -0.1
v 0.1 1.3 -0.2
v 0.2 1.3 0.2
v 0.2 1.3 -0.1
v 0.2 1.4 0.2
v 0.2 1.4 -0.1
v 0.3 0 0.1
v 0.3 0 -0.2
v 0.3 0.1 0.1
v 0.3 0.1 -0.1
v 0.3 0.1 -0.2
v 0.3 0.3 0.1
v 0.3 0.3 -0.1
v 0.3 0.3 -0.2
v 0.3 0.4 -0.1
v 0.3 0.6 -0.1
v 0.3 0.6 -0.2
v 0.3 0.7 0.2
v 0.3 0.7 -0.2
v 0.3 0.9 0.3
v 0.3 0.9 0.2
v 0.3 0.9 0.1
v 0.3 0.9 0
v 0.3 0.9 -0.1
v 0.3 0.9 -0.2
v 0.3 1 0.1
v 0.3 1 0
v 0.3 1.1 -0.1
v 0.3 1.1 -0.2
v 0.3 1.2 0.3
v 0.3 1.2 0.2
v 0.3 1.2 -0.1
v 0.3 1.3 0.2
v 0.3 1.3 -0.1
v 0.4 0.3 0.1
v 0.4 0.3 -0.1
v 0.4 0.4 0.1
v 0.4 0.4 -0.1
v 0.4 0.6 0.1
v 0.4 0.6 -0.1
v 0.4 0.9 0.2
v 0.4 0.9 0.1
v 0.4 0.9 0
v 0.4 0.9 -0.1
v 0.4 1 0.1
v 0.4 1 0
v 0.4 1.1 0
v 0.4 1.1 -0.1
v 0.4 1.1 -0.2
v 0.4 1.2 0.2
v 0.4 1.2 -0.2
v -0.3 0.9 0.3
v -0.3 1.2 0.3
v 0.3 0.9 0.3
v 0.3 1.2 0.3
v -0.4 0.9 0.2
v -0.4 1.2 0.2
v -0.3 0.7 0.2
v -0.3 0.9 0.2
v -0.3 1.2 0.2
v -0.3 1.3 0.2
v -0.2 1.3 0.2
v -0.2 1.4 0.2
v 0.2 1.3 0.2
v 0.2 1.4 0.2
v 0.3 0.7 0.2
v 0.3 0.9 0.2
v 0.3 1.2 0.2
v 0.3 1.3 0.2
v 0.4 0.9 0.2
v 0.4 1.2 0.2
v -0.4 0.3 0.1
v -0.4 0.4 0.1
v -0.4 0.6 0.1
v -0.3 0 0.1
v -0.3 0.1 0.1
v -0.3 0.3 0.1
v -0.3 0.4 0.1
v -0.1 0 0.1
v -0.1 0.1 0.1
v -0.1 0.2 0.1
v -0.1 0.6 0.1
v -0.1 0.7 0.1
v 0.1 0 0.1
v 0.1 0.1 0.1
v 0.1 0.2 0.1
v 0.1 0.6 0.1
v 0.1 0.7 0.1
v 0.3 0 0.1
v 0.3 0.1 0.1
v 0.3 0.3 0.1
v 0.3 0.4 0.1
v 0.4 0.3 0.1
v 0.4 0.4 0.1
v 0.4 0.6 0.1
v 0.3 0.9 0
v 0.3 1 0
v 0.4 0.9 0
v 0.4 1 0
v 0.3 0.9 0.1
v 0.3 1 0.1
v 0.4 0.9 0.1
v 0.4 1 0.1
v -0.4 0.3 -0.1
v -0.4 0.4 -0.1
v -0.4 0.6 -0.1
v -0.4 0.9 -0.1
v -0.4 1.1 -0.1
v -0.3 0.1 -0.1
v -0.3 0.3 -0.1
v -0.3 0.4 -0.1
v -0.3 0.6 -0.1
v -0.3 0.9 -0.1
v -0.3 1.1 -0.1
v -0.3 1.2 -0.1
v -0.3 1.3 -0.1
v -0.2 0.5 -0.1
v -0.2 0.6 -0.1
v -0.2 1.3 -0.1
v -0.2 1.4 -0.1
v -0.1 0.1 -0.1
v -0.1 0.2 -0.1
v -0.1 0.3 -0.1
v -0.1 0.5 -0.1
v -0.1 0.6 -0.1
v -0.1 0.7 -0.1
v -0.1 1.2 -0.1
v -0.1 1.3 -0.1
v 0.1 0.1 -0.1
v 0.1 0.2 -0.1
v 0.1 0.3 -0.1
v 0.1 0.5 -0.1
v 0.1 0.6 -0.1
v 0.1 0.7 -0.1
v 0.1 1.2 -0.1
v 0.1 1.3 -0.1
v 0.2 0.5 -0.1
v 0.2 0.6 -0.1
v 0.2 1.3 -0.1
v 0.2 1.4 -0.1
v 0.3 0.1 -0.1
v 0.3 0.3 -0.1
v 0.3 0.4 -0.1
v 0.3 0.6 -0.1
v 0.3 0.9 -0.1
v 0.3 1.1 -0.1
v 0.3 1.2 -0.1
v 0.3 1.3 -0.1
v 0.4 0.3 -0.1
v 0.4 0.4 -0.1
v 0.4 0.6 -0.1
v 0.4 0.9 -0.1
v 0.4 1.1 -0.1
v -0.4 1.1 -0.2
v -0.4 1.2 -0.2
v -0.3 0 -0.2
v -0.3 0.1 -0.2
v -0.3 0.3 -0.2
v -0.3 0.6 -0.2
v -0.3 0.7 -0.2
v -0.3 0.9 -0.2
v -0.3 1.1 -0.2
v -0.3 1.2 -0.2
v -0.2 0.5 -0.2
v -0.2 0.6 -0.2
v -0.2 0.7 -0.2
v -0.2 0.8 -0.2
v -0.2 0.9 -0.2
v -0.2 1 -0.2
v -0.1 0 -0.2
v -0.1 0.1 -0.2
v -0.1 0.3 -0.2
v -0.1 0.5 -0.2
v -0.1 0.9 -0.2
v -0.1 1 -0.2
v -0.1 1.1 -0.2
v -0.1 1.2 -0.2
v -0.1 1.3 -0.2
v 0.1 0 -0.2
v 0.1 0.1 -0.2
v 0.1 0.3 -0.2
v 0.1 0.5 -0.2
v 0.1 0.9 -0.2
v 0.1 1 -0.2
v 0.1 1.1 -0.2
v 0.1 1.2 -0.2
v 0.1 1.3 -0.2
v 0.2 0.5 -0.2
v 0.2 0.6 -0.2
v 0.2 0.7 -0.2
v 0.2 0.8 -0.2
v 0.2 0.9 -0.2
v 0.2 1 -0.2
v 0.3 0 -0.2
v 0.3 0.1 -0.2
v 0.3 0.3 -0.2
v 0.3 0.6 -0.2
v 0.3 0.7 -0.2
v 0.3 0.9 -0.2
v 0.3 1.1 -0.2
v 0.3 1.2 -0.2
v 0.4 1.1 -0.2
v 0.4 1.2 -0.2
v -0.3 0 0.1
v -0.1 0 0.1
v 0.1 0 0.1
v 0.3 0 0.1
v -0.3 0 -0.2
v -0.1 0 -0.2
v 0.1 0 -0.2
v 0.3 0 -0.2
v -0.1 0.2 0.1
v 0.1 0.2 0.1
v -0.1 0.2 -0.1
v 0.1 0.2 -0.1
v -0.4 0.3 0.1
v -0.3 0.3 0.1
v 0.3 0.3 0.1
v 0.4 0.3 0.1
v -0.4 0.3 -0.1
v -0.3 0.3 -0.1
v -0.1 0.3 -0.1
v 0.1 0.3 -0.1
v 0.3 0.3 -0.1
v 0.4 0.3 -0.1
v -0.3 0.3 -0.2
v -0.1 0.3 -0.2
v 0.1 0.3 -0.2
v 0.3 0.3 -0.2
v -0.3 0.7 0.2
v 0.3 0.7 0.2
v -0.1 0.7 0.1
v 0.1 0.7 0.1
v -0.2 0.7 -0.1
v -0.1 0.7 -0.1
v 0.1 0.7 -0.1
v 0.2 0.7 -0.1
v -0.3 0.7 -0.2
v -0.2 0.7 -0.2
v 0.2 0.7 -0.2
v 0.3 0.7 -0.2
v -0.3 0.9 0.3
v 0.3 0.9 0.3
v -0.4 0.9 0.2
v -0.3 0.9 0.2
v 0.3 0.9 0.2
v 0.4 0.9 0.2
v 0.3 0.9 0.1
v 0.4 0.9 0.1
v -0.4 0.9 0
v -0.3 0.9 0
v 0.3 0.9 0
v 0.4 0.9 0
v -0.4 0.9 -0.1
v -0.3 0.9 -0.1
v 0.3 0.9 -0.1
v 0.4 0.9 -0.1
v 0.3 1 0.1
v 0.4 1 0.1
v 0.3 1 0
v 0.4 1 0
v -0.4 1.1 -0.1
v -0.3 1.1 -0.1
v 0.3 1.1 -0.1
v 0.4 1.1 -0.1
v -0.4 1.1 -0.2
v -0.3 1.1 -0.2
v 0.3 1.1 -0.2
v 0.4 1.1 -0.2
v -0.3 0.1 -0.1
v -0.1 0.1 -0.1
v 0.1 0.1 -0.1
v 0.3 0.1 -0.1
v -0.3 0.1 -0.2
v -0.1 0.1 -0.2
v 0.1 0.1 -0.2
v 0.3 0.1 -0.2
v -0.2 0.5 -0.1
v -0.1 0.5 -0.1
v 0.1 0.5 -0.1
v 0.2 0.5 -0.1
v -0.2 0.5 -0.2
v -0.1 0.5 -0.2
v 0.1 0.5 -0.2
v 0.2 0.5 -0.2
v -0.4 0.6 0.1
v -0.1 0.6 0.1
v 0.1 0.6 0.1
v 0.4 0.6 0.1
v -0.2 0.6 0
v -0.1 0.6 0
v 0.1 0.6 0
v 0.2 0.6 0
v -0.4 0.6 -0.1
v -0.3 0.6 -0.1
v -0.2 0.6 -0.1
v -0.1 0.6 -0.1
v 0.1 0.6 -0.1
v 0.2 0.6 -0.1
v 0.3 0.6 -0.1
v 0.4 0.6 -0.1
v -0.3 0.6 -0.2
v -0.2 0.6 -0.2
v 0.2 0.6 -0.2
v 0.3 0.6 -0.2
v -0.3 1.2 0.3
v 0.3 1.2 0.3
v -0.4 1.2 0.2
v -0.3 1.2 0.2
v 0.3 1.2 0.2
v 0.4 1.2 0.2
v -0.3 1.2 -0.1
v -0.1 1.2 -0.1
v 0.1 1.2 -0.1
v 0.3 1.2 -0.1
v -0.4 1.2 -0.2
v -0.3 1.2 -0.2
v -0.1 1.2 -0.2
v 0.1 1.2 -0.2
v 0.3 1.2 -0.2
v 0.4 1.2 -0.2
v -0.3 1.3 0.2
v -0.2 1.3 0.2
v 0.2 1.3 0.2
v 0.3 1.3 0.2
v -0.3 1.3 -0.1
v -0.2 1.3 -0.1
v -0.1 1.3 -0.1
v 0.1 1.3 -0.1
v 0.2 1.3 -0.1
v 0.3 1.3 -0.1
v -0.1 1.3 -0.2
v 0.1 1.3 -0.2
v -0.2 1.4 0.2
v 0.2 1.4 0.2
v -0.2 1.4 -0.1
v 0.2 1.4 -0.1

# faces
f 3/2/1 2/2/1 1/2/1
f 4/2/1 2/2/1 3/2/1
f 5/1/1 4/1/1 3/1/1
f 6/1/1 4/1/1 5/1/1
f 10/3/1 8/3/1 7/3/1
f 10/2/1 9/2/1 8/2/1
f 11/2/1 9/2/1 10/2/1
f 13/3/1 11/3/1 10/3/1
f 13/3/1 12/3/1 11/3/1
f 13/3/1 10/3/1 7/3/1
f 14/3/1 12/3/1 13/3/1
f 17/2/1 16/2/1 15/2/1
f 18/2/1 16/2/1 17/2/1
f 19/2/1 16/2/1 18/2/1
f 20/4/1 18/4/1 17/4/1
f 21/4/1 18/4/1 20/4/1
f 23/1/1 22/1/1 21/1/1
f 24/1/1 22/1/1 23/1/1
f 25/1/1 22/1/1 24/1/1
f 29/2/1 27/2/1 26/2/1
f 30/2/1 27/2/1 29/2/1
f 31/2/1 27/2/1 30/2/1
f 32/2/1 27/2/1 31/2/1
f 33/5/1 32/5/1 31/5/1
f 34/5/1 32/5/1 33/5/1
f 35/3/1 29/3/1 28/3/1
f 36/3/1 29/3/1 35/3/1
f 38/3/1 37/3/1 36/3/1
f 39/3/1 37/3/1 38/3/1
f 42/3/1 41/3/1 40/3/1
f 43/3/1 41/3/1 42/3/1
f 47/2/1 45/2/1 44/2/1
f 47/2/1 46/2/1 45/2/1
f 48/2/1 46/2/1 47/2/1
f 51/3/1 50/3/1 49/3/1
f 52/3/1 50/3/1 51/3/1
f 55/2/1 54/2/1 53/2/1
f 56/2/1 54/2/1 55/2/1
f 57/2/1 54/2/1 56/2/1
f 58/4/1 56/4/1 55/4/1
f 59/4/1 56/4/1 58/4/1
f 62/1/1 61/1/1 60/1/1
f 63/1/1 61/1/1 62/1/1
f 66/1/1 65/1/1 64/1/1
f 67/1/1 65/1/1 66/1/1
f 68/1/2 69/1/2 70/1/2
f 70/1/2 69/1/2 71/1/2
f 72/2/2 73/2/2 74/2/2
f 74/2/2 73/2/2 75/2/2
f 75/2/2 73/2/2 76/2/2
f 74/4/2 75/4/2 77/4/2
f 77/4/2 75/4/2 78/4/2
f 79/1/2 80/1/2 81/1/2
f 81/1/2 80/1/2 82/1/2
f 83/2/2 84/2/2 86/2/2
f 84/2/2 85/2/2 86/2/2
f 86/2/2 85/2/2 87/2/2
f 88/3/2 89/3/2 90/3/2
f 90/3/2 89/3/2 91/3/2
f 92/3/2 93/3/2 94/3/2
f 94/3/2 93/3/2 95/3/2
f 96/2/2 97/2/2 98/2/2
f 98/2/2 97/2/2 99/2/2
f 99/2/2 97/2/2 100/2/2
f 98/4/2 99/4/2 101/4/2
f 101/4/2 99/4/2 102/4/2
f 102/1/2 103/1/2 104/1/2
f 104/1/2 103/1/2 105/1/2
f 105/1/2 103/1/2 106/1/2
f 107/2/2 108/2/2 110/2/2
f 110/2/2 108/2/2 111/2/2
f 111/2/2 108/2/2 112/2/2
f 112/2/2 108/2/2 113/2/2
f 113/2/2 108/2/2 114/2/2
f 111/2/2 112/2/2 115/2/2
f 115/2/2 112/2/2 116/2/2
f 113/5/2 114/5/2 117/5/2
f 117/5/2 114/5/2 118/5/2
f 109/3/2 110/3/2 119/3/2
f 119/3/2 110/3/2 120/3/2
f 120/3/2 121/3/2 122/3/2
f 122/3/2 121/3/2 123/3/2
f 124/2/2 125/2/2 126/2/2
f 126/2/2 125/2/2 127/2/2
f 126/1/2 127/1/2 128/1/2
f 128/1/2 127/1/2 129/1/2
f 130/3/2 131/3/2 134/3/2
f 132/2/2 133/2/2 135/2/2
f 135/2/2 133/2/2 136/2/2
f 134/3/2 135/3/2 136/3/2
f 136/2/2 133/2/2 137/2/2
f 136/3/2 137/3/2 139/3/2
f 137/3/2 138/3/2 139/3/2
f 134/3/2 136/3/2 139/3/2
f 130/3/2 134/3/2 139/3/2
f 139/3/2 138/3/2 140/3/2
f 143/3/3 142/3/3 141/3/3
f 144/3/3 142/3/3 143/3/3
f 148/3/3 146/3/3 145/3/3
f 149/3/3 146/3/3 148/3/3
f 151/3/3 150/3/3 149/3/3
f 153/3/3 151/3/3 149/3/3
f 153/3/3 152/3/3 151/3/3
f 154/3/3 152/3/3 153/3/3
f 155/2/3 148/2/3 147/2/3
f 156/2/3 148/2/3 155/2/3
f 157/3/3 153/3/3 149/3/3
f 158/3/3 153/3/3 157/3/3
f 159/3/3 157/3/3 156/3/3
f 160/3/3 157/3/3 159/3/3
f 166/2/3 162/2/3 161/2/3
f 167/1/3 163/1/3 162/1/3
f 167/2/3 162/2/3 166/2/3
f 168/2/3 165/2/3 164/2/3
f 169/4/3 166/4/3 165/4/3
f 169/2/3 165/2/3 168/2/3
f 170/4/3 166/4/3 169/4/3
f 171/1/3 163/1/3 167/1/3
f 171/1/3 167/1/3 166/1/3
f 175/4/3 166/4/3 170/4/3
f 176/2/3 172/2/3 171/2/3
f 176/1/3 171/1/3 166/1/3
f 177/2/3 172/2/3 176/2/3
f 178/2/3 174/2/3 173/2/3
f 179/4/3 175/4/3 174/4/3
f 179/2/3 174/2/3 178/2/3
f 180/4/3 166/4/3 175/4/3
f 180/4/3 175/4/3 179/4/3
f 180/1/3 176/1/3 166/1/3
f 181/1/3 176/1/3 180/1/3
f 182/2/3 181/2/3 180/2/3
f 183/1/3 176/1/3 181/1/3
f 183/2/3 181/2/3 182/2/3
f 184/1/3 176/1/3 183/1/3
f 187/2/3 186/2/3 185/2/3
f 188/2/3 186/2/3 187/2/3
f 189/3/4 190/3/4 191/3/4
f 191/3/4 190/3/4 192/3/4
f 193/2/4 194/2/4 199/2/4
f 194/1/4 195/1/4 200/1/4
f 199/2/4 194/2/4 200/2/4
f 200/1/4 195/1/4 201/1/4
f 196/2/4 197/2/4 202/2/4
f 202/2/4 197/2/4 203/2/4
f 204/3/4 205/3/4 208/3/4
f 198/4/4 199/4/4 210/4/4
f 210/4/4 199/4/4 211/4/4
f 211/4/4 199/4/4 212/4/4
f 206/5/4 207/5/4 213/5/4
f 213/5/4 207/5/4 214/5/4
f 208/3/4 209/3/4 216/3/4
f 204/3/4 208/3/4 216/3/4
f 216/3/4 209/3/4 217/3/4
f 211/4/4 212/4/4 219/4/4
f 213/5/4 214/5/4 220/5/4
f 212/5/4 213/5/4 220/5/4
f 219/4/4 212/4/4 220/4/4
f 220/5/4 214/5/4 221/5/4
f 214/2/4 215/2/4 222/2/4
f 221/5/4 214/5/4 222/5/4
f 222/2/4 215/2/4 223/2/4
f 217/3/4 209/3/4 225/3/4
f 221/5/4 222/5/4 226/5/4
f 226/5/4 222/5/4 227/5/4
f 224/3/4 225/3/4 228/3/4
f 225/3/4 209/3/4 228/3/4
f 228/3/4 209/3/4 229/3/4
f 218/4/4 219/4/4 230/4/4
f 219/4/4 220/4/4 230/4/4
f 230/4/4 220/4/4 231/4/4
f 224/3/4 228/3/4 236/3/4
f 236/3/4 228/3/4 237/3/4
f 231/2/4 232/2/4 238/2/4
f 232/1/4 233/1/4 239/1/4
f 238/2/4 232/2/4 239/2/4
f 239/1/4 233/1/4 240/1/4
f 234/2/4 235/2/4 241/2/4
f 241/2/4 235/2/4 242/2/4
f 243/3/4 244/3/4 251/3/4
f 251/3/4 244/3/4 252/3/4
f 247/1/4 248/1/4 253/1/4
f 253/1/4 248/1/4 254/1/4
f 249/2/4 250/2/4 255/2/4
f 255/2/4 250/2/4 256/2/4
f 250/5/4 251/5/4 257/5/4
f 256/2/4 250/2/4 257/2/4
f 257/5/4 251/5/4 258/5/4
f 245/2/4 246/2/4 259/2/4
f 259/2/4 246/2/4 260/2/4
f 247/1/4 253/1/4 261/1/4
f 261/1/4 253/1/4 262/1/4
f 257/1/4 258/1/4 263/1/4
f 256/5/4 257/5/4 263/5/4
f 258/5/4 251/5/4 264/5/4
f 263/1/4 258/1/4 264/1/4
f 251/1/4 252/1/4 265/1/4
f 264/5/4 251/5/4 265/5/4
f 265/1/4 252/1/4 266/1/4
f 256/5/4 263/5/4 272/5/4
f 265/2/4 266/2/4 272/2/4
f 263/2/4 264/2/4 272/2/4
f 264/2/4 265/2/4 272/2/4
f 272/2/4 266/2/4 273/2/4
f 273/2/4 266/2/4 274/2/4
f 266/3/4 267/3/4 275/3/4
f 274/2/4 266/2/4 275/2/4
f 275/3/4 267/3/4 276/3/4
f 270/1/4 271/1/4 277/1/4
f 255/3/4 256/3/4 279/3/4
f 256/5/4 272/5/4 280/5/4
f 279/3/4 256/3/4 280/3/4
f 272/1/4 273/1/4 281/1/4
f 280/5/4 272/5/4 281/5/4
f 273/5/4 274/5/4 282/5/4
f 281/1/4 273/1/4 282/1/4
f 268/2/4 269/2/4 283/2/4
f 283/2/4 269/2/4 284/2/4
f 277/1/4 278/1/4 285/1/4
f 270/1/4 277/1/4 285/1/4
f 285/1/4 278/1/4 286/1/4
f 280/2/4 281/2/4 287/2/4
f 279/2/4 280/2/4 287/2/4
f 281/5/4 282/5/4 288/5/4
f 287/2/4 281/2/4 288/2/4
f 282/5/4 274/5/4 289/5/4
f 288/5/4 282/5/4 289/5/4
f 274/1/4 275/1/4 289/1/4
f 289/1/4 275/1/4 290/1/4
f 289/3/4 290/3/4 291/3/4
f 291/3/4 290/3/4 292/3/4
f 297/2/5 294/2/5 293/2/5
f 298/2/5 294/2/5 297/2/5
f 299/2/5 296/2/5 295/2/5
f 300/2/5 296/2/5 299/2/5
f 303/4/5 302/4/5 301/4/5
f 304/4/5 302/4/5 303/4/5
f 309/2/5 306/2/5 305/2/5
f 310/2/5 306/2/5 309/2/5
f 313/2/5 308/2/5 307/2/5
f 314/2/5 308/2/5 313/2/5
f 315/1/5 311/1/5 310/1/5
f 316/1/5 311/1/5 315/1/5
f 317/1/5 313/1/5 312/1/5
f 318/1/5 313/1/5 317/1/5
f 321/2/5 320/2/5 319/2/5
f 322/2/5 320/2/5 321/2/5
f 323/2/5 321/2/5 319/2/5
f 324/2/5 321/2/5 323/2/5
f 325/2/5 320/2/5 322/2/5
f 326/2/5 320/2/5 325/2/5
f 327/2/5 323/2/5 319/2/5
f 328/3/5 324/3/5 323/3/5
f 328/2/5 323/2/5 327/2/5
f 328/3/5 325/3/5 324/3/5
f 328/3/5 326/3/5 325/3/5
f 329/2/5 320/2/5 326/2/5
f 329/3/5 326/3/5 328/3/5
f 330/2/5 320/2/5 329/2/5
f 334/3/5 332/3/5 331/3/5
f 335/3/5 332/3/5 334/3/5
f 337/3/5 336/3/5 335/3/5
f 338/3/5 336/3/5 337/3/5
f 339/3/5 334/3/5 333/3/5
f 340/3/5 334/3/5 339/3/5
f 343/2/5 340/2/5 339/2/5
f 344/2/5 340/2/5 343/2/5
f 345/2/5 342/2/5 341/2/5
f 346/2/5 342/2/5 345/2/5
f 349/3/5 348/3/5 347/3/5
f 350/3/5 348/3/5 349/3/5
f 355/3/5 352/3/5 351/3/5
f 356/3/5 352/3/5 355/3/5
f 357/3/5 354/3/5 353/3/5
f 358/3/5 354/3/5 357/3/5
f 359/2/6 360/2/6 363/2/6
f 363/2/6 360/2/6 364/2/6
f 361/2/6 362/2/6 365/2/6
f 365/2/6 362/2/6 366/2/6
f 367/1/6 368/1/6 371/1/6
f 371/1/6 368/1/6 372/1/6
f 369/1/6 370/1/6 373/1/6
f 373/1/6 370/1/6 374/1/6
f 375/1/6 376/1/6 379/1/6
f 379/1/6 376/1/6 380/1/6
f 377/1/6 378/1/6 381/1/6
f 381/1/6 378/1/6 382/1/6
f 375/1/6 379/1/6 383/1/6
f 383/1/6 379/1/6 384/1/6
f 379/5/6 380/5/6 385/5/6
f 384/1/6 379/1/6 385/1/6
f 385/5/6 380/5/6 386/5/6
f 381/5/6 382/5/6 387/5/6
f 382/1/6 378/1/6 388/1/6
f 387/5/6 382/5/6 388/5/6
f 388/1/6 378/1/6 389/1/6
f 389/1/6 378/1/6 390/1/6
f 384/1/6 385/1/6 391/1/6
f 391/1/6 385/1/6 392/1/6
f 388/1/6 389/1/6 393/1/6
f 393/1/6 389/1/6 394/1/6
f 395/3/6 396/3/6 398/3/6
f 398/3/6 396/3/6 399/3/6
f 397/3/6 398/3/6 401/3/6
f 399/3/6 400/3/6 404/3/6
f 397/3/6 401/3/6 405/3/6
f 401/1/6 402/1/6 406/1/6
f 405/3/6 401/3/6 406/3/6
f 406/1/6 402/1/6 407/1/6
f 403/1/6 404/1/6 408/1/6
f 404/3/6 400/3/6 409/3/6
f 408/1/6 404/1/6 409/1/6
f 409/3/6 400/3/6 410/3/6
f 411/3/6 412/3/6 415/3/6
f 415/3/6 412/3/6 416/3/6
f 413/3/6 414/3/6 419/3/6
f 419/3/6 414/3/6 420/3/6
f 417/3/6 418/3/6 421/3/6
f 421/3/6 418/3/6 422/3/6
f 423/3/6 424/3/6 425/3/6
f 425/3/6 424/3/6 426/3/6
