# MagicaVoxel @ Ephtracy

# group
o 

# material
mtllib crianca2.mtl
usemtl palette

# normals
vn -1 0 0
vn 1 0 0
vn 0 0 1
vn 0 0 -1
vn 0 -1 0
vn 0 1 0

# texcoords
vt 0.158203 0.5
vt 0.169922 0.5
vt 0.189453 0.5
vt 0.240234 0.5
vt 0.322266 0.5
vt 0.369141 0.5
vt 0.376953 0.5

# verts
v -0.7 0.8 0.2
v -0.7 0.8 0
v -0.7 0.9 0
v -0.7 0.9 -0.1
v -0.7 1 0.2
v -0.7 1 -0.1
v -0.7 1.1 0.2
v -0.7 1.1 -0.1
v -0.6 1.1 0.2
v -0.6 1.1 -0.1
v -0.6 1.2 0.2
v -0.6 1.2 -0.1
v -0.5 1.1 0.3
v -0.5 1.1 0.2
v -0.5 1.2 0.2
v -0.5 1.2 -0.1
v -0.5 1.2 -0.2
v -0.5 1.3 0.3
v -0.5 1.3 -0.2
v -0.4 0.3 0.1
v -0.4 0.3 -0.1
v -0.4 0.6 0.1
v -0.4 0.6 -0.1
v -0.4 0.9 0.3
v -0.4 0.9 0.2
v -0.4 0.9 0
v -0.4 0.9 -0.1
v -0.4 1 0.2
v -0.4 1 0
v -0.4 1.1 0.3
v -0.4 1.1 0.2
v -0.4 1.1 0
v -0.4 1.1 -0.1
v -0.4 1.1 -0.3
v -0.4 1.2 -0.1
v -0.4 1.2 -0.2
v -0.4 1.3 0.1
v -0.4 1.3 -0.1
v -0.4 1.3 -0.2
v -0.4 1.3 -0.3
v -0.4 1.4 0.1
v -0.4 1.4 -0.1
v -0.3 0 0.1
v -0.3 0 -0.2
v -0.3 0.1 -0.1
v -0.3 0.1 -0.2
v -0.3 0.2 0.1
v -0.3 0.2 -0.1
v -0.3 0.3 0.1
v -0.3 0.3 -0.1
v -0.3 0.7 0.1
v -0.3 0.7 -0.2
v -0.3 0.8 0.2
v -0.3 0.8 0.1
v -0.3 0.9 0.2
v -0.3 0.9 0
v -0.3 0.9 -0.1
v -0.3 0.9 -0.2
v -0.3 1 0.4
v -0.3 1 0.3
v -0.3 1 0.2
v -0.3 1 0.1
v -0.3 1 0
v -0.3 1 -0.1
v -0.3 1 -0.2
v -0.3 1 -0.3
v -0.3 1.1 -0.1
v -0.3 1.1 -0.3
v -0.3 1.3 0.4
v -0.3 1.3 0.3
v -0.3 1.3 0.1
v -0.3 1.3 -0.1
v -0.3 1.3 -0.3
v -0.3 1.4 0.3
v -0.3 1.4 0.1
v -0.3 1.4 -0.1
v -0.3 1.4 -0.3
v -0.1 0.6 0.1
v -0.1 0.6 -0.1
v -0.1 0.7 0.1
v -0.1 0.7 -0.1
v 0.1 0 0.1
v 0.1 0 -0.2
v 0.1 0.1 -0.1
v 0.1 0.1 -0.2
v 0.1 0.2 0.1
v 0.1 0.2 -0.1
v 0.1 1.1 -0.2
v 0.1 1.1 -0.3
v 0.1 1.2 0
v 0.1 1.2 -0.1
v 0.1 1.2 -0.2
v 0.1 1.2 -0.3
v 0.1 1.3 0
v 0.1 1.3 -0.1
v 0.2 1 -0.2
v 0.2 1 -0.3
v 0.2 1.1 -0.2
v 0.2 1.1 -0.3
v 0.5 0.9 0
v 0.5 0.9 -0.2
v 0.5 1 0
v 0.5 1 -0.1
v 0.5 1 -0.2
v 0.5 1.1 -0.1
v 0.5 1.1 -0.2
v 0.6 0.8 0
v 0.6 0.8 -0.1
v 0.6 0.9 0
v 0.6 0.9 -0.1
v -0.6 0.8 0.2
v -0.6 0.8 0
v -0.6 0.9 0.2
v -0.6 0.9 0.1
v -0.6 0.9 0
v -0.5 0.9 0.2
v -0.5 0.9 0.1
v -0.5 0.9 0
v -0.5 0.9 -0.1
v -0.5 1 0.2
v -0.5 1 0.1
v -0.5 1 0
v -0.5 1 -0.1
v -0.5 1.1 0
v -0.5 1.1 -0.1
v -0.2 1 -0.2
v -0.2 1 -0.3
v -0.2 1.1 -0.2
v -0.2 1.1 -0.3
v -0.1 0 0.1
v -0.1 0 -0.2
v -0.1 0.1 -0.1
v -0.1 0.1 -0.2
v -0.1 0.2 0.1
v -0.1 0.2 -0.1
v -0.1 1.1 -0.2
v -0.1 1.1 -0.3
v -0.1 1.2 -0.2
v -0.1 1.2 -0.3
v 0 1.2 0
v 0 1.2 -0.1
v 0 1.3 0
v 0 1.3 -0.1
v 0.1 0.6 0.1
v 0.1 0.6 -0.1
v 0.1 0.7 0.1
v 0.1 0.7 -0.1
v 0.3 0 0.1
v 0.3 0 -0.2
v 0.3 0.1 -0.1
v 0.3 0.1 -0.2
v 0.3 0.2 0.1
v 0.3 0.2 -0.1
v 0.3 0.3 0.1
v 0.3 0.3 -0.1
v 0.3 0.7 0.1
v 0.3 0.7 -0.2
v 0.3 0.8 0.2
v 0.3 0.8 0.1
v 0.3 0.9 0.3
v 0.3 0.9 0.2
v 0.3 0.9 0
v 0.3 0.9 -0.1
v 0.3 0.9 -0.2
v 0.3 1 0.4
v 0.3 1 0.3
v 0.3 1 0.1
v 0.3 1 0
v 0.3 1 -0.1
v 0.3 1 -0.2
v 0.3 1 -0.3
v 0.3 1.1 -0.1
v 0.3 1.1 -0.3
v 0.3 1.3 0.4
v 0.3 1.3 0.3
v 0.3 1.3 0.1
v 0.3 1.3 -0.1
v 0.3 1.3 -0.3
v 0.3 1.4 0.3
v 0.3 1.4 0.1
v 0.3 1.4 -0.1
v 0.3 1.4 -0.3
v 0.4 0.3 0.1
v 0.4 0.3 -0.1
v 0.4 0.6 0.1
v 0.4 0.6 -0.1
v 0.4 0.9 0
v 0.4 0.9 -0.1
v 0.4 1 0.3
v 0.4 1 0.2
v 0.4 1 0
v 0.4 1 -0.1
v 0.4 1.1 0.3
v 0.4 1.1 0.2
v 0.4 1.1 -0.2
v 0.4 1.1 -0.3
v 0.4 1.3 0.1
v 0.4 1.3 -0.1
v 0.4 1.3 -0.2
v 0.4 1.3 -0.3
v 0.4 1.4 0.1
v 0.4 1.4 -0.1
v 0.5 1 0.2
v 0.5 1 0.1
v 0.5 1.1 0.3
v 0.5 1.1 0.2
v 0.5 1.1 0.1
v 0.5 1.1 0
v 0.5 1.2 0
v 0.5 1.2 -0.2
v 0.5 1.3 0.3
v 0.5 1.3 -0.2
v 0.6 1 0.1
v 0.6 1 0
v 0.6 1.1 0.1
v 0.6 1.1 0
v 0.6 1.1 -0.2
v 0.6 1.2 0
v 0.6 1.2 -0.2
v 0.7 0.8 0
v 0.7 0.8 -0.1
v 0.7 0.9 -0.1
v 0.7 0.9 -0.2
v 0.7 1 0
v 0.7 1 -0.2
v 0.7 1.1 0
v 0.7 1.1 -0.2
v -0.3 1 0.4
v -0.3 1.3 0.4
v 0.3 1 0.4
v 0.3 1.3 0.4
v -0.5 1.1 0.3
v -0.5 1.3 0.3
v -0.4 0.9 0.3
v -0.4 1.1 0.3
v -0.3 1 0.3
v -0.3 1.3 0.3
v -0.3 1.4 0.3
v 0.3 0.9 0.3
v 0.3 1 0.3
v 0.3 1.3 0.3
v 0.3 1.4 0.3
v 0.4 1 0.3
v 0.4 1.1 0.3
v 0.5 1.1 0.3
v 0.5 1.3 0.3
v -0.7 0.8 0.2
v -0.7 1 0.2
v -0.7 1.1 0.2
v -0.6 0.8 0.2
v -0.6 0.9 0.2
v -0.6 1 0.2
v -0.6 1.1 0.2
v -0.6 1.2 0.2
v -0.5 0.9 0.2
v -0.5 1 0.2
v -0.5 1.1 0.2
v -0.5 1.2 0.2
v -0.4 1 0.2
v -0.4 1.1 0.2
v -0.3 0.8 0.2
v -0.3 0.9 0.2
v 0.3 0.8 0.2
v 0.3 0.9 0.2
v 0.4 1 0.2
v 0.4 1.1 0.2
v 0.5 1 0.2
v 0.5 1.1 0.2
v -0.4 0.3 0.1
v -0.4 0.6 0.1
v -0.4 1.3 0.1
v -0.4 1.4 0.1
v -0.3 0 0.1
v -0.3 0.2 0.1
v -0.3 0.3 0.1
v -0.3 0.4 0.1
v -0.3 0.6 0.1
v -0.3 0.7 0.1
v -0.3 0.8 0.1
v -0.3 1.3 0.1
v -0.3 1.4 0.1
v -0.2 0.5 0.1
v -0.2 0.6 0.1
v -0.1 0 0.1
v -0.1 0.2 0.1
v -0.1 0.6 0.1
v -0.1 0.7 0.1
v 0.1 0 0.1
v 0.1 0.2 0.1
v 0.1 0.6 0.1
v 0.1 0.7 0.1
v 0.2 0.5 0.1
v 0.2 0.6 0.1
v 0.3 0 0.1
v 0.3 0.2 0.1
v 0.3 0.3 0.1
v 0.3 0.4 0.1
v 0.3 0.6 0.1
v 0.3 0.7 0.1
v 0.3 0.8 0.1
v 0.3 1.3 0.1
v 0.3 1.4 0.1
v 0.4 0.3 0.1
v 0.4 0.6 0.1
v 0.4 1.3 0.1
v 0.4 1.4 0.1
v 0.5 1 0.1
v 0.5 1.1 0.1
v 0.6 1 0.1
v 0.6 1.1 0.1
v -0.4 0.9 0
v -0.4 1 0
v -0.3 0.9 0
v -0.3 1 0
v 0.3 0.9 0
v 0.3 1 0
v 0.4 0.9 0
v 0.4 1 0
v 0.5 0.9 0
v 0.5 1 0
v 0.5 1.1 0
v 0.5 1.2 0
v 0.6 0.8 0
v 0.6 0.9 0
v 0.6 1 0
v 0.6 1.1 0
v 0.6 1.2 0
v 0.7 0.8 0
v 0.7 1 0
v 0.7 1.1 0
v 0 1.2 -0.1
v 0 1.3 -0.1
v 0.1 1.2 -0.1
v 0.1 1.3 -0.1
v -0.4 0.9 0.2
v -0.4 1 0.2
v -0.3 0.9 0.2
v -0.3 1 0.2
v -0.7 0.8 0
v -0.7 0.9 0
v -0.6 0.8 0
v -0.6 0.9 0
v -0.5 1 0
v -0.5 1.1 0
v -0.4 1 0
v -0.4 1.1 0
v 0 1.2 0
v 0 1.3 0
v 0.1 1.2 0
v 0.1 1.3 0
v -0.7 0.9 -0.1
v -0.7 1 -0.1
v -0.7 1.1 -0.1
v -0.6 0.9 -0.1
v -0.6 1 -0.1
v -0.6 1.1 -0.1
v -0.6 1.2 -0.1
v -0.5 0.9 -0.1
v -0.5 1 -0.1
v -0.5 1.1 -0.1
v -0.5 1.2 -0.1
v -0.4 0.3 -0.1
v -0.4 0.6 -0.1
v -0.4 0.9 -0.1
v -0.4 1.1 -0.1
v -0.4 1.2 -0.1
v -0.4 1.3 -0.1
v -0.4 1.4 -0.1
v -0.3 0.1 -0.1
v -0.3 0.2 -0.1
v -0.3 0.3 -0.1
v -0.3 0.4 -0.1
v -0.3 0.6 -0.1
v -0.3 0.9 -0.1
v -0.3 1 -0.1
v -0.3 1.1 -0.1
v -0.3 1.3 -0.1
v -0.3 1.4 -0.1
v -0.2 0.5 -0.1
v -0.2 0.6 -0.1
v -0.1 0.1 -0.1
v -0.1 0.2 -0.1
v -0.1 0.6 -0.1
v -0.1 0.7 -0.1
v 0.1 0.1 -0.1
v 0.1 0.2 -0.1
v 0.1 0.6 -0.1
v 0.1 0.7 -0.1
v 0.2 0.5 -0.1
v 0.2 0.6 -0.1
v 0.3 0.1 -0.1
v 0.3 0.2 -0.1
v 0.3 0.3 -0.1
v 0.3 0.4 -0.1
v 0.3 0.6 -0.1
v 0.3 0.9 -0.1
v 0.3 1 -0.1
v 0.3 1.1 -0.1
v 0.3 1.3 -0.1
v 0.3 1.4 -0.1
v 0.4 0.3 -0.1
v 0.4 0.6 -0.1
v 0.4 0.9 -0.1
v 0.4 1 -0.1
v 0.4 1.1 -0.1
v 0.4 1.3 -0.1
v 0.4 1.4 -0.1
v 0.5 1 -0.1
v 0.5 1.1 -0.1
v 0.6 0.8 -0.1
v 0.6 0.9 -0.1
v 0.7 0.8 -0.1
v 0.7 0.9 -0.1
v -0.5 1.2 -0.2
v -0.5 1.3 -0.2
v -0.4 1.2 -0.2
v -0.4 1.3 -0.2
v -0.3 0 -0.2
v -0.3 0.1 -0.2
v -0.3 0.7 -0.2
v -0.3 0.9 -0.2
v -0.3 1 -0.2
v -0.2 0.9 -0.2
v -0.2 1 -0.2
v -0.2 1.1 -0.2
v -0.1 0 -0.2
v -0.1 0.1 -0.2
v -0.1 0.7 -0.2
v -0.1 0.8 -0.2
v -0.1 0.9 -0.2
v -0.1 1 -0.2
v -0.1 1.1 -0.2
v -0.1 1.2 -0.2
v 0.1 0 -0.2
v 0.1 0.1 -0.2
v 0.1 0.7 -0.2
v 0.1 0.8 -0.2
v 0.1 0.9 -0.2
v 0.1 1 -0.2
v 0.1 1.1 -0.2
v 0.1 1.2 -0.2
v 0.2 0.9 -0.2
v 0.2 1 -0.2
v 0.2 1.1 -0.2
v 0.3 0 -0.2
v 0.3 0.1 -0.2
v 0.3 0.7 -0.2
v 0.3 0.9 -0.2
v 0.3 1 -0.2
v 0.4 1.1 -0.2
v 0.4 1.3 -0.2
v 0.5 0.9 -0.2
v 0.5 1 -0.2
v 0.5 1.1 -0.2
v 0.5 1.2 -0.2
v 0.5 1.3 -0.2
v 0.6 0.9 -0.2
v 0.6 1 -0.2
v 0.6 1.1 -0.2
v 0.6 1.2 -0.2
v 0.7 0.9 -0.2
v 0.7 1 -0.2
v 0.7 1.1 -0.2
v -0.4 1.1 -0.3
v -0.4 1.3 -0.3
v -0.3 1 -0.3
v -0.3 1.1 -0.3
v -0.3 1.3 -0.3
v -0.3 1.4 -0.3
v -0.2 1 -0.3
v -0.2 1.1 -0.3
v -0.1 1.1 -0.3
v -0.1 1.2 -0.3
v 0.1 1.1 -0.3
v 0.1 1.2 -0.3
v 0.2 1 -0.3
v 0.2 1.1 -0.3
v 0.3 1 -0.3
v 0.3 1.1 -0.3
v 0.3 1.3 -0.3
v 0.3 1.4 -0.3
v 0.4 1.1 -0.3
v 0.4 1.3 -0.3
v -0.3 0 0.1
v -0.1 0 0.1
v 0.1 0 0.1
v 0.3 0 0.1
v -0.3 0 -0.2
v -0.1 0 -0.2
v 0.1 0 -0.2
v 0.3 0 -0.2
v -0.1 0.2 0.1
v 0.1 0.2 0.1
v -0.1 0.2 -0.1
v 0.1 0.2 -0.1
v -0.4 0.3 0.1
v -0.3 0.3 0.1
v 0.3 0.3 0.1
v 0.4 0.3 0.1
v -0.4 0.3 -0.1
v -0.3 0.3 -0.1
v 0.3 0.3 -0.1
v 0.4 0.3 -0.1
v -0.3 0.7 0.1
v -0.1 0.7 0.1
v 0.1 0.7 0.1
v 0.3 0.7 0.1
v -0.1 0.7 -0.1
v 0.1 0.7 -0.1
v -0.3 0.7 -0.2
v -0.1 0.7 -0.2
v 0.1 0.7 -0.2
v 0.3 0.7 -0.2
v -0.7 0.8 0.2
v -0.6 0.8 0.2
v -0.3 0.8 0.2
v 0.3 0.8 0.2
v -0.3 0.8 0.1
v 0.3 0.8 0.1
v -0.7 0.8 0
v -0.6 0.8 0
v 0.6 0.8 0
v 0.7 0.8 0
v 0.6 0.8 -0.1
v 0.7 0.8 -0.1
v -0.4 0.9 0.3
v 0.3 0.9 0.3
v -0.6 0.9 0.2
v -0.5 0.9 0.2
v -0.4 0.9 0.2
v -0.3 0.9 0.2
v 0.3 0.9 0.2
v -0.6 0.9 0.1
v -0.5 0.9 0.1
v -0.7 0.9 0
v -0.6 0.9 0
v -0.5 0.9 0
v -0.4 0.9 0
v -0.3 0.9 0
v 0.3 0.9 0
v 0.4 0.9 0
v 0.5 0.9 0
v 0.6 0.9 0
v -0.7 0.9 -0.1
v -0.6 0.9 -0.1
v -0.5 0.9 -0.1
v -0.4 0.9 -0.1
v -0.3 0.9 -0.1
v 0.3 0.9 -0.1
v 0.4 0.9 -0.1
v 0.6 0.9 -0.1
v 0.7 0.9 -0.1
v 0.5 0.9 -0.2
v 0.6 0.9 -0.2
v 0.7 0.9 -0.2
v -0.3 1 0.4
v 0.3 1 0.4
v -0.3 1 0.3
v 0.3 1 0.3
v 0.4 1 0.3
v -0.5 1 0.2
v -0.4 1 0.2
v -0.3 1 0.2
v 0.4 1 0.2
v 0.5 1 0.2
v -0.5 1 0.1
v -0.3 1 0.1
v 0.3 1 0.1
v 0.5 1 0.1
v 0.6 1 0.1
v -0.5 1 0
v -0.4 1 0
v -0.3 1 0
v 0.3 1 0
v 0.4 1 0
v 0.5 1 0
v 0.6 1 0
v 0.4 1 -0.1
v 0.5 1 -0.1
v -0.3 1 -0.2
v -0.2 1 -0.2
v 0.2 1 -0.2
v 0.3 1 -0.2
v -0.3 1 -0.3
v -0.2 1 -0.3
v 0.2 1 -0.3
v 0.3 1 -0.3
v -0.5 1.1 0.3
v -0.4 1.1 0.3
v 0.4 1.1 0.3
v 0.5 1.1 0.3
v -0.5 1.1 0.2
v -0.4 1.1 0.2
v 0.4 1.1 0.2
v 0.5 1.1 0.2
v -0.5 1.1 0
v -0.4 1.1 0
v -0.5 1.1 -0.1
v -0.4 1.1 -0.1
v -0.3 1.1 -0.1
v 0.3 1.1 -0.1
v 0.4 1.1 -0.1
v 0.5 1.1 -0.1
v -0.2 1.1 -0.2
v -0.1 1.1 -0.2
v 0.1 1.1 -0.2
v 0.2 1.1 -0.2
v 0.4 1.1 -0.2
v 0.5 1.1 -0.2
v -0.4 1.1 -0.3
v -0.3 1.1 -0.3
v -0.2 1.1 -0.3
v -0.1 1.1 -0.3
v 0.1 1.1 -0.3
v 0.2 1.1 -0.3
v 0.3 1.1 -0.3
v 0.4 1.1 -0.3
v -0.5 1.2 -0.1
v -0.4 1.2 -0.1
v -0.5 1.2 -0.2
v -0.4 1.2 -0.2
v -0.1 1.2 -0.2
v 0.1 1.2 -0.2
v -0.1 1.2 -0.3
v 0.1 1.2 -0.3
v 0 1.3 0
v 0.1 1.3 0
v 0 1.3 -0.1
v 0.1 1.3 -0.1
v -0.3 0.1 -0.1
v -0.1 0.1 -0.1
v 0.1 0.1 -0.1
v 0.3 0.1 -0.1
v -0.3 0.1 -0.2
v -0.1 0.1 -0.2
v 0.1 0.1 -0.2
v 0.3 0.1 -0.2
v -0.4 0.6 0.1
v -0.3 0.6 0.1
v -0.2 0.6 0.1
v -0.1 0.6 0.1
v 0.1 0.6 0.1
v 0.2 0.6 0.1
v 0.3 0.6 0.1
v 0.4 0.6 0.1
v -0.4 0.6 -0.1
v -0.3 0.6 -0.1
v -0.2 0.6 -0.1
v -0.1 0.6 -0.1
v 0.1 0.6 -0.1
v 0.2 0.6 -0.1
v 0.3 0.6 -0.1
v 0.4 0.6 -0.1
v -0.7 1.1 0.2
v -0.6 1.1 0.2
v 0.5 1.1 0.1
v 0.6 1.1 0.1
v 0.5 1.1 0
v 0.6 1.1 0
v 0.7 1.1 0
v -0.7 1.1 -0.1
v -0.6 1.1 -0.1
v 0.6 1.1 -0.2
v 0.7 1.1 -0.2
v -0.6 1.2 0.2
v -0.5 1.2 0.2
v 0 1.2 0
v 0.1 1.2 0
v 0.5 1.2 0
v 0.6 1.2 0
v -0.6 1.2 -0.1
v -0.5 1.2 -0.1
v 0 1.2 -0.1
v 0.1 1.2 -0.1
v 0.5 1.2 -0.2
v 0.6 1.2 -0.2
v -0.3 1.3 0.4
v 0.3 1.3 0.4
v -0.5 1.3 0.3
v -0.3 1.3 0.3
v 0.3 1.3 0.3
v 0.5 1.3 0.3
v -0.4 1.3 0.1
v -0.3 1.3 0.1
v 0.3 1.3 0.1
v 0.4 1.3 0.1
v -0.4 1.3 -0.1
v -0.3 1.3 -0.1
v 0.3 1.3 -0.1
v 0.4 1.3 -0.1
v -0.5 1.3 -0.2
v -0.4 1.3 -0.2
v 0.4 1.3 -0.2
v 0.5 1.3 -0.2
v -0.4 1.3 -0.3
v -0.3 1.3 -0.3
v 0.3 1.3 -0.3
v 0.4 1.3 -0.3
v -0.3 1.4 0.3
v 0.3 1.4 0.3
v -0.4 1.4 0.1
v -0.3 1.4 0.1
v 0.3 1.4 0.1
v 0.4 1.4 0.1
v -0.4 1.4 -0.1
v -0.3 1.4 -0.1
v 0.3 1.4 -0.1
v 0.4 1.4 -0.1
v -0.3 1.4 -0.3
v 0.3 1.4 -0.3

# faces
f 3/3/1 2/3/1 1/3/1
f 5/3/1 3/3/1 1/3/1
f 5/3/1 4/3/1 3/3/1
f 6/3/1 4/3/1 5/3/1
f 7/6/1 6/6/1 5/6/1
f 8/6/1 6/6/1 7/6/1
f 11/3/1 10/3/1 9/3/1
f 12/3/1 10/3/1 11/3/1
f 15/3/1 14/3/1 13/3/1
f 18/3/1 15/3/1 13/3/1
f 18/3/1 17/3/1 16/3/1
f 18/3/1 16/3/1 15/3/1
f 19/3/1 17/3/1 18/3/1
f 22/5/1 21/5/1 20/5/1
f 23/5/1 21/5/1 22/5/1
f 28/3/1 25/3/1 24/3/1
f 29/5/1 27/5/1 26/5/1
f 30/3/1 28/3/1 24/3/1
f 31/3/1 28/3/1 30/3/1
f 32/5/1 27/5/1 29/5/1
f 33/5/1 27/5/1 32/5/1
f 35/3/1 34/3/1 33/3/1
f 36/3/1 34/3/1 35/3/1
f 39/3/1 34/3/1 36/3/1
f 40/3/1 34/3/1 39/3/1
f 41/3/1 38/3/1 37/3/1
f 42/3/1 38/3/1 41/3/1
f 45/5/1 44/5/1 43/5/1
f 46/5/1 44/5/1 45/5/1
f 47/5/1 45/5/1 43/5/1
f 48/5/1 45/5/1 47/5/1
f 49/4/1 48/4/1 47/4/1
f 50/4/1 48/4/1 49/4/1
f 54/5/1 52/5/1 51/5/1
f 55/3/1 54/3/1 53/3/1
f 56/5/1 52/5/1 54/5/1
f 57/5/1 52/5/1 56/5/1
f 58/5/1 52/5/1 57/5/1
f 61/3/1 54/3/1 55/3/1
f 62/5/1 56/5/1 54/5/1
f 62/3/1 54/3/1 61/3/1
f 63/5/1 56/5/1 62/5/1
f 64/7/1 58/7/1 57/7/1
f 65/7/1 58/7/1 64/7/1
f 67/3/1 65/3/1 64/3/1
f 67/3/1 66/3/1 65/3/1
f 68/3/1 66/3/1 67/3/1
f 69/3/1 60/3/1 59/3/1
f 70/3/1 60/3/1 69/3/1
f 74/3/1 71/3/1 70/3/1
f 75/3/1 71/3/1 74/3/1
f 76/3/1 73/3/1 72/3/1
f 77/3/1 73/3/1 76/3/1
f 80/5/1 79/5/1 78/5/1
f 81/5/1 79/5/1 80/5/1
f 84/5/1 83/5/1 82/5/1
f 85/5/1 83/5/1 84/5/1
f 86/5/1 84/5/1 82/5/1
f 87/5/1 84/5/1 86/5/1
f 92/3/1 89/3/1 88/3/1
f 93/3/1 89/3/1 92/3/1
f 94/3/1 91/3/1 90/3/1
f 95/3/1 91/3/1 94/3/1
f 98/3/1 97/3/1 96/3/1
f 99/3/1 97/3/1 98/3/1
f 102/6/1 101/6/1 100/6/1
f 103/6/1 101/6/1 102/6/1
f 104/6/1 101/6/1 103/6/1
f 105/3/1 104/3/1 103/3/1
f 106/3/1 104/3/1 105/3/1
f 109/3/1 108/3/1 107/3/1
f 110/3/1 108/3/1 109/3/1
f 111/3/2 112/3/2 113/3/2
f 113/3/2 112/3/2 114/3/2
f 114/3/2 112/3/2 115/3/2
f 116/6/2 117/6/2 120/6/2
f 117/3/2 118/3/2 121/3/2
f 120/6/2 117/6/2 121/6/2
f 118/6/2 119/6/2 122/6/2
f 121/3/2 118/3/2 122/3/2
f 122/6/2 119/6/2 123/6/2
f 122/3/2 123/3/2 124/3/2
f 124/3/2 123/3/2 125/3/2
f 126/3/2 127/3/2 128/3/2
f 128/3/2 127/3/2 129/3/2
f 130/5/2 131/5/2 132/5/2
f 132/5/2 131/5/2 133/5/2
f 130/5/2 132/5/2 134/5/2
f 134/5/2 132/5/2 135/5/2
f 136/3/2 137/3/2 138/3/2
f 138/3/2 137/3/2 139/3/2
f 140/3/2 141/3/2 142/3/2
f 142/3/2 141/3/2 143/3/2
f 144/5/2 145/5/2 146/5/2
f 146/5/2 145/5/2 147/5/2
f 148/5/2 149/5/2 150/5/2
f 150/5/2 149/5/2 151/5/2
f 148/5/2 150/5/2 152/5/2
f 152/5/2 150/5/2 153/5/2
f 152/4/2 153/4/2 154/4/2
f 154/4/2 153/4/2 155/4/2
f 156/5/2 157/5/2 159/5/2
f 158/3/2 159/3/2 161/3/2
f 159/5/2 157/5/2 162/5/2
f 162/5/2 157/5/2 163/5/2
f 163/5/2 157/5/2 164/5/2
f 160/3/2 161/3/2 166/3/2
f 161/3/2 159/3/2 167/3/2
f 159/5/2 162/5/2 167/5/2
f 166/3/2 161/3/2 167/3/2
f 167/5/2 162/5/2 168/5/2
f 163/7/2 164/7/2 169/7/2
f 169/7/2 164/7/2 170/7/2
f 169/3/2 170/3/2 172/3/2
f 170/3/2 171/3/2 172/3/2
f 172/3/2 171/3/2 173/3/2
f 165/3/2 166/3/2 174/3/2
f 174/3/2 166/3/2 175/3/2
f 175/3/2 176/3/2 179/3/2
f 179/3/2 176/3/2 180/3/2
f 177/3/2 178/3/2 181/3/2
f 181/3/2 178/3/2 182/3/2
f 183/5/2 184/5/2 185/5/2
f 185/5/2 184/5/2 186/5/2
f 187/5/2 188/5/2 191/5/2
f 191/5/2 188/5/2 192/5/2
f 189/3/2 190/3/2 193/3/2
f 193/3/2 190/3/2 194/3/2
f 195/3/2 196/3/2 199/3/2
f 199/3/2 196/3/2 200/3/2
f 197/3/2 198/3/2 201/3/2
f 201/3/2 198/3/2 202/3/2
f 203/3/2 204/3/2 206/3/2
f 206/3/2 204/3/2 207/3/2
f 205/3/2 206/3/2 209/3/2
f 207/3/2 208/3/2 209/3/2
f 206/3/2 207/3/2 209/3/2
f 205/3/2 209/3/2 211/3/2
f 209/3/2 210/3/2 211/3/2
f 211/3/2 210/3/2 212/3/2
f 213/3/2 214/3/2 215/3/2
f 215/3/2 214/3/2 216/3/2
f 216/3/2 217/3/2 218/3/2
f 218/3/2 217/3/2 219/3/2
f 220/3/2 221/3/2 222/3/2
f 220/3/2 222/3/2 224/3/2
f 222/3/2 223/3/2 224/3/2
f 224/3/2 223/3/2 225/3/2
f 224/6/2 225/6/2 226/6/2
f 226/6/2 225/6/2 227/6/2
f 230/3/3 229/3/3 228/3/3
f 231/3/3 229/3/3 230/3/3
f 235/3/3 233/3/3 232/3/3
f 236/3/3 235/3/3 234/3/3
f 237/3/3 233/3/3 235/3/3
f 237/3/3 235/3/3 236/3/3
f 239/3/3 236/3/3 234/3/3
f 240/3/3 236/3/3 239/3/3
f 241/3/3 238/3/3 237/3/3
f 242/3/3 238/3/3 241/3/3
f 243/3/3 241/3/3 240/3/3
f 244/3/3 241/3/3 243/3/3
f 245/3/3 241/3/3 244/3/3
f 246/3/3 241/3/3 245/3/3
f 250/3/3 248/3/3 247/3/3
f 251/3/3 248/3/3 250/3/3
f 252/6/3 249/6/3 248/6/3
f 252/3/3 248/3/3 251/3/3
f 253/6/3 249/6/3 252/6/3
f 255/6/3 252/6/3 251/6/3
f 256/3/3 254/3/3 253/3/3
f 256/6/3 252/6/3 255/6/3
f 256/3/3 253/3/3 252/3/3
f 257/3/3 254/3/3 256/3/3
f 258/3/3 254/3/3 257/3/3
f 259/3/3 257/3/3 256/3/3
f 260/3/3 257/3/3 259/3/3
f 263/3/3 262/3/3 261/3/3
f 264/3/3 262/3/3 263/3/3
f 267/3/3 266/3/3 265/3/3
f 268/3/3 266/3/3 267/3/3
f 275/5/3 270/5/3 269/5/3
f 276/5/3 270/5/3 275/5/3
f 277/5/3 270/5/3 276/5/3
f 280/3/3 272/3/3 271/3/3
f 281/3/3 272/3/3 280/3/3
f 282/6/3 277/6/3 276/6/3
f 283/6/3 277/6/3 282/6/3
f 284/5/3 274/5/3 273/5/3
f 285/4/3 275/4/3 274/4/3
f 285/5/3 274/5/3 284/5/3
f 285/4/3 276/4/3 275/4/3
f 286/5/3 283/5/3 282/5/3
f 287/5/3 279/5/3 278/5/3
f 289/4/3 276/4/3 285/4/3
f 290/5/3 286/5/3 282/5/3
f 290/5/3 287/5/3 286/5/3
f 291/5/3 279/5/3 287/5/3
f 291/5/3 287/5/3 290/5/3
f 292/5/3 290/5/3 282/5/3
f 292/6/3 282/6/3 276/6/3
f 293/5/3 290/5/3 292/5/3
f 294/5/3 289/5/3 288/5/3
f 295/4/3 276/4/3 289/4/3
f 295/5/3 289/5/3 294/5/3
f 296/4/3 276/4/3 295/4/3
f 297/6/3 292/6/3 276/6/3
f 297/4/3 276/4/3 296/4/3
f 297/6/3 293/6/3 292/6/3
f 298/6/3 293/6/3 297/6/3
f 299/5/3 279/5/3 291/5/3
f 300/5/3 279/5/3 299/5/3
f 303/5/3 298/5/3 297/5/3
f 303/5/3 297/5/3 296/5/3
f 304/5/3 298/5/3 303/5/3
f 305/3/3 302/3/3 301/3/3
f 306/3/3 302/3/3 305/3/3
f 309/3/3 308/3/3 307/3/3
f 310/3/3 308/3/3 309/3/3
f 313/5/3 312/5/3 311/5/3
f 314/5/3 312/5/3 313/5/3
f 317/5/3 316/5/3 315/5/3
f 318/5/3 316/5/3 317/5/3
f 324/6/3 320/6/3 319/6/3
f 325/6/3 320/6/3 324/6/3
f 326/3/3 322/3/3 321/3/3
f 327/3/3 322/3/3 326/3/3
f 328/3/3 325/3/3 324/3/3
f 328/3/3 324/3/3 323/3/3
f 329/6/3 326/6/3 325/6/3
f 329/3/3 325/3/3 328/3/3
f 330/6/3 326/6/3 329/6/3
f 333/3/3 332/3/3 331/3/3
f 334/3/3 332/3/3 333/3/3
f 335/3/4 336/3/4 337/3/4
f 337/3/4 336/3/4 338/3/4
f 339/3/4 340/3/4 341/3/4
f 341/3/4 340/3/4 342/3/4
f 343/3/4 344/3/4 345/3/4
f 345/3/4 344/3/4 346/3/4
f 347/3/4 348/3/4 349/3/4
f 349/3/4 348/3/4 350/3/4
f 351/3/4 352/3/4 354/3/4
f 352/6/4 353/6/4 355/6/4
f 354/3/4 352/3/4 355/3/4
f 355/6/4 353/6/4 356/6/4
f 354/6/4 355/6/4 358/6/4
f 356/3/4 357/3/4 359/3/4
f 358/6/4 355/6/4 359/6/4
f 355/3/4 356/3/4 359/3/4
f 359/3/4 357/3/4 360/3/4
f 360/3/4 357/3/4 361/3/4
f 360/3/4 361/3/4 365/3/4
f 365/3/4 361/3/4 366/3/4
f 362/5/4 363/5/4 371/5/4
f 371/5/4 363/5/4 372/5/4
f 372/5/4 363/5/4 373/5/4
f 364/5/4 365/5/4 374/5/4
f 374/5/4 365/5/4 375/5/4
f 375/5/4 365/5/4 376/5/4
f 367/3/4 368/3/4 377/3/4
f 377/3/4 368/3/4 378/3/4
f 372/6/4 373/6/4 379/6/4
f 379/6/4 373/6/4 380/6/4
f 369/5/4 370/5/4 381/5/4
f 370/4/4 371/4/4 382/4/4
f 381/5/4 370/5/4 382/5/4
f 371/4/4 372/4/4 382/4/4
f 379/5/4 380/5/4 383/5/4
f 382/4/4 372/4/4 386/4/4
f 379/5/4 383/5/4 387/5/4
f 383/5/4 384/5/4 387/5/4
f 387/5/4 384/5/4 388/5/4
f 372/6/4 379/6/4 389/6/4
f 379/5/4 387/5/4 389/5/4
f 389/5/4 387/5/4 390/5/4
f 385/5/4 386/5/4 391/5/4
f 386/4/4 372/4/4 392/4/4
f 391/5/4 386/5/4 392/5/4
f 392/4/4 372/4/4 393/4/4
f 372/6/4 389/6/4 394/6/4
f 393/4/4 372/4/4 394/4/4
f 389/6/4 390/6/4 394/6/4
f 394/6/4 390/6/4 395/6/4
f 394/5/4 395/5/4 401/5/4
f 393/5/4 394/5/4 401/5/4
f 401/5/4 395/5/4 402/5/4
f 397/5/4 398/5/4 403/5/4
f 396/5/4 397/5/4 403/5/4
f 403/5/4 398/5/4 404/5/4
f 404/5/4 398/5/4 405/5/4
f 399/3/4 400/3/4 406/3/4
f 406/3/4 400/3/4 407/3/4
f 404/3/4 405/3/4 408/3/4
f 408/3/4 405/3/4 409/3/4
f 410/3/4 411/3/4 412/3/4
f 412/3/4 411/3/4 413/3/4
f 414/3/4 415/3/4 416/3/4
f 416/3/4 415/3/4 417/3/4
f 420/5/4 421/5/4 423/5/4
f 421/7/4 422/7/4 423/7/4
f 423/7/4 422/7/4 424/7/4
f 418/5/4 419/5/4 426/5/4
f 426/5/4 419/5/4 427/5/4
f 420/5/4 423/5/4 428/5/4
f 428/5/4 423/5/4 429/5/4
f 423/1/4 424/1/4 430/1/4
f 429/5/4 423/5/4 430/5/4
f 424/5/4 425/5/4 431/5/4
f 430/1/4 424/1/4 431/1/4
f 431/5/4 425/5/4 432/5/4
f 428/2/4 429/2/4 436/2/4
f 429/5/4 430/5/4 437/5/4
f 436/2/4 429/2/4 437/2/4
f 432/5/4 433/5/4 437/5/4
f 431/5/4 432/5/4 437/5/4
f 430/5/4 431/5/4 437/5/4
f 437/5/4 433/5/4 438/5/4
f 438/5/4 433/5/4 439/5/4
f 439/5/4 433/5/4 440/5/4
f 440/5/4 433/5/4 441/5/4
f 436/5/4 437/5/4 442/5/4
f 437/5/4 438/5/4 442/5/4
f 438/1/4 439/1/4 442/1/4
f 439/5/4 440/5/4 443/5/4
f 442/1/4 439/1/4 443/1/4
f 443/5/4 440/5/4 444/5/4
f 434/5/4 435/5/4 445/5/4
f 445/5/4 435/5/4 446/5/4
f 436/5/4 442/5/4 447/5/4
f 442/7/4 443/7/4 448/7/4
f 447/5/4 442/5/4 448/5/4
f 448/7/4 443/7/4 449/7/4
f 450/3/4 451/3/4 454/3/4
f 454/3/4 451/3/4 455/3/4
f 455/3/4 451/3/4 456/3/4
f 452/6/4 453/6/4 457/6/4
f 453/3/4 454/3/4 458/3/4
f 457/6/4 453/6/4 458/6/4
f 454/3/4 455/3/4 458/3/4
f 458/3/4 455/3/4 459/3/4
f 459/3/4 455/3/4 460/3/4
f 457/3/4 458/3/4 461/3/4
f 458/6/4 459/6/4 462/6/4
f 461/3/4 458/3/4 462/3/4
f 462/6/4 459/6/4 463/6/4
f 464/3/4 465/3/4 467/3/4
f 467/3/4 465/3/4 468/3/4
f 466/3/4 467/3/4 470/3/4
f 468/3/4 469/3/4 470/3/4
f 467/3/4 468/3/4 470/3/4
f 470/3/4 469/3/4 471/3/4
f 471/3/4 469/3/4 472/3/4
f 472/3/4 469/3/4 473/3/4
f 473/3/4 469/3/4 475/3/4
f 474/3/4 475/3/4 477/3/4
f 476/3/4 477/3/4 478/3/4
f 477/3/4 475/3/4 479/3/4
f 478/3/4 477/3/4 479/3/4
f 475/3/4 469/3/4 480/3/4
f 479/3/4 475/3/4 480/3/4
f 480/3/4 469/3/4 481/3/4
f 479/3/4 480/3/4 482/3/4
f 482/3/4 480/3/4 483/3/4
f 488/5/5 485/5/5 484/5/5
f 489/5/5 485/5/5 488/5/5
f 490/5/5 487/5/5 486/5/5
f 491/5/5 487/5/5 490/5/5
f 494/4/5 493/4/5 492/4/5
f 495/4/5 493/4/5 494/4/5
f 500/5/5 497/5/5 496/5/5
f 501/5/5 497/5/5 500/5/5
f 502/5/5 499/5/5 498/5/5
f 503/5/5 499/5/5 502/5/5
f 508/5/5 505/5/5 504/5/5
f 509/5/5 507/5/5 506/5/5
f 510/5/5 508/5/5 504/5/5
f 511/2/5 509/2/5 508/2/5
f 511/5/5 508/5/5 510/5/5
f 512/5/5 507/5/5 509/5/5
f 512/2/5 509/2/5 511/2/5
f 513/5/5 507/5/5 512/5/5
f 518/3/5 517/3/5 516/3/5
f 519/3/5 517/3/5 518/3/5
f 520/3/5 515/3/5 514/3/5
f 521/3/5 515/3/5 520/3/5
f 524/3/5 523/3/5 522/3/5
f 525/3/5 523/3/5 524/3/5
f 530/3/5 527/3/5 526/3/5
f 531/3/5 527/3/5 530/3/5
f 532/3/5 527/3/5 531/3/5
f 533/6/5 529/6/5 528/6/5
f 534/6/5 529/6/5 533/6/5
f 536/3/5 534/3/5 533/3/5
f 537/3/5 534/3/5 536/3/5
f 544/3/5 536/3/5 535/3/5
f 545/6/5 537/6/5 536/6/5
f 545/3/5 536/3/5 544/3/5
f 546/6/5 537/6/5 545/6/5
f 547/5/5 539/5/5 538/5/5
f 548/5/5 539/5/5 547/5/5
f 549/5/5 541/5/5 540/5/5
f 550/5/5 541/5/5 549/5/5
f 551/6/5 543/6/5 542/6/5
f 553/6/5 551/6/5 542/6/5
f 554/3/5 552/3/5 551/3/5
f 554/6/5 551/6/5 553/6/5
f 555/3/5 552/3/5 554/3/5
f 558/3/5 557/3/5 556/3/5
f 559/3/5 557/3/5 558/3/5
f 564/3/5 560/3/5 559/3/5
f 566/3/5 563/3/5 562/3/5
f 566/3/5 562/3/5 561/3/5
f 567/3/5 563/3/5 566/3/5
f 568/3/5 565/3/5 564/3/5
f 568/3/5 564/3/5 559/3/5
f 569/3/5 565/3/5 568/3/5
f 571/3/5 567/3/5 566/3/5
f 572/3/5 567/3/5 571/3/5
f 573/3/5 567/3/5 572/3/5
f 574/3/5 570/3/5 569/3/5
f 574/3/5 569/3/5 568/3/5
f 575/3/5 570/3/5 574/3/5
f 576/3/5 570/3/5 575/3/5
f 577/3/5 570/3/5 576/3/5
f 578/3/5 576/3/5 575/3/5
f 579/3/5 576/3/5 578/3/5
f 584/3/5 581/3/5 580/3/5
f 585/3/5 581/3/5 584/3/5
f 586/3/5 583/3/5 582/3/5
f 587/3/5 583/3/5 586/3/5
f 592/3/5 589/3/5 588/3/5
f 593/3/5 589/3/5 592/3/5
f 594/3/5 591/3/5 590/3/5
f 595/3/5 591/3/5 594/3/5
f 598/3/5 597/3/5 596/3/5
f 599/3/5 597/3/5 598/3/5
f 608/3/5 603/3/5 602/3/5
f 608/3/5 602/3/5 601/3/5
f 609/3/5 603/3/5 608/3/5
f 610/3/5 600/3/5 599/3/5
f 611/3/5 600/3/5 610/3/5
f 612/3/5 605/3/5 604/3/5
f 613/3/5 605/3/5 612/3/5
f 614/3/5 607/3/5 606/3/5
f 615/3/5 607/3/5 614/3/5
f 616/3/5 608/3/5 601/3/5
f 617/3/5 608/3/5 616/3/5
f 620/3/5 619/3/5 618/3/5
f 621/3/5 619/3/5 620/3/5
f 624/3/5 623/3/5 622/3/5
f 625/3/5 623/3/5 624/3/5
f 628/3/5 627/3/5 626/3/5
f 629/3/5 627/3/5 628/3/5
f 630/5/6 631/5/6 634/5/6
f 634/5/6 631/5/6 635/5/6
f 632/5/6 633/5/6 636/5/6
f 636/5/6 633/5/6 637/5/6
f 638/5/6 639/5/6 646/5/6
f 639/6/6 640/6/6 647/6/6
f 646/5/6 639/5/6 647/5/6
f 640/5/6 641/5/6 648/5/6
f 647/6/6 640/6/6 648/6/6
f 648/5/6 641/5/6 649/5/6
f 642/5/6 643/5/6 650/5/6
f 643/6/6 644/6/6 651/6/6
f 650/5/6 643/5/6 651/5/6
f 644/5/6 645/5/6 652/5/6
f 651/6/6 644/6/6 652/6/6
f 652/5/6 645/5/6 653/5/6
f 656/3/6 657/3/6 658/3/6
f 658/3/6 657/3/6 659/3/6
f 654/6/6 655/6/6 661/6/6
f 661/6/6 655/6/6 662/6/6
f 659/6/6 660/6/6 663/6/6
f 663/6/6 660/6/6 664/6/6
f 665/3/6 666/3/6 671/3/6
f 671/3/6 666/3/6 672/3/6
f 667/5/6 668/5/6 673/5/6
f 673/5/6 668/5/6 674/5/6
f 669/3/6 670/3/6 675/3/6
f 675/3/6 670/3/6 676/3/6
f 677/3/6 678/3/6 680/3/6
f 680/3/6 678/3/6 681/3/6
f 679/3/6 680/3/6 683/3/6
f 683/3/6 680/3/6 684/3/6
f 681/3/6 682/3/6 685/3/6
f 685/3/6 682/3/6 686/3/6
f 679/3/6 683/3/6 687/3/6
f 686/3/6 682/3/6 690/3/6
f 687/3/6 688/3/6 691/3/6
f 679/3/6 687/3/6 691/3/6
f 691/3/6 688/3/6 692/3/6
f 689/3/6 690/3/6 693/3/6
f 690/3/6 682/3/6 693/3/6
f 693/3/6 682/3/6 694/3/6
f 692/3/6 688/3/6 695/3/6
f 695/3/6 688/3/6 696/3/6
f 689/3/6 693/3/6 697/3/6
f 697/3/6 693/3/6 698/3/6
f 699/3/6 700/3/6 702/3/6
f 702/3/6 700/3/6 703/3/6
f 701/3/6 702/3/6 705/3/6
f 703/3/6 704/3/6 705/3/6
f 702/3/6 703/3/6 705/3/6
f 705/3/6 704/3/6 706/3/6
f 706/3/6 704/3/6 707/3/6
f 707/3/6 704/3/6 708/3/6
f 706/3/6 707/3/6 709/3/6
f 709/3/6 707/3/6 710/3/6
