# MagicaVoxel @ Ephtracy

# group
o 

# material
mtllib matinho.mtl
usemtl palette

# normals
vn -1 0 0
vn 1 0 0
vn 0 0 1
vn 0 0 -1
vn 0 -1 0
vn 0 1 0

# texcoords
vt 0.384766 0.5
vt 0.388672 0.5

# verts
v -11.6 0 2.1
v -11.6 0 2
v -11.6 0.2 2.1
v -11.6 0.2 2
v -11.5 0 2.3
v -11.5 0 2.2
v -11.5 0.1 2.3
v -11.5 0.1 2.2
v -11.4 0 2.2
v -11.4 0 2.1
v -11.4 0 2
v -11.4 0 1.9
v -11.4 0.1 2.2
v -11.4 0.2 2
v -11.4 0.2 1.9
v -11.4 0.4 2.2
v -11.4 0.4 2.1
v -11.3 0 2.3
v -11.3 0 2.2
v -11.3 0 2.1
v -11.3 0 2
v -11.3 0.1 2.1
v -11.3 0.1 2
v -11.3 0.2 2.3
v -11.3 0.2 2.2
v -11.5 0 2.1
v -11.5 0 2
v -11.5 0.2 2.1
v -11.5 0.2 2
v -11.4 0 2.3
v -11.4 0 2.2
v -11.4 0.1 2.3
v -11.4 0.1 2.2
v -11.3 0 2.2
v -11.3 0 2.1
v -11.3 0 2
v -11.3 0 1.9
v -11.3 0.1 2.1
v -11.3 0.1 2
v -11.3 0.2 2.2
v -11.3 0.2 2
v -11.3 0.2 1.9
v -11.3 0.4 2.2
v -11.3 0.4 2.1
v -11.2 0 2.3
v -11.2 0 2.2
v -11.2 0 2.1
v -11.2 0 2
v -11.2 0.1 2.1
v -11.2 0.1 2
v -11.2 0.2 2.3
v -11.2 0.2 2.2
v -11.5 0 2.3
v -11.5 0.1 2.3
v -11.4 0 2.3
v -11.4 0.1 2.3
v -11.3 0 2.3
v -11.3 0.2 2.3
v -11.2 0 2.3
v -11.2 0.2 2.3
v -11.4 0 2.2
v -11.4 0.1 2.2
v -11.4 0.4 2.2
v -11.3 0 2.2
v -11.3 0.2 2.2
v -11.3 0.4 2.2
v -11.6 0 2.1
v -11.6 0.2 2.1
v -11.5 0 2.1
v -11.5 0.2 2.1
v -11.3 0 2.1
v -11.3 0.1 2.1
v -11.2 0 2.1
v -11.2 0.1 2.1
v -11.4 0 2
v -11.4 0.2 2
v -11.3 0 2
v -11.3 0.1 2
v -11.3 0.2 2
v -11.5 0 2.2
v -11.5 0.1 2.2
v -11.4 0 2.2
v -11.4 0.1 2.2
v -11.3 0 2.2
v -11.3 0.2 2.2
v -11.2 0 2.2
v -11.2 0.2 2.2
v -11.4 0 2.1
v -11.4 0.4 2.1
v -11.3 0 2.1
v -11.3 0.1 2.1
v -11.3 0.4 2.1
v -11.6 0 2
v -11.6 0.2 2
v -11.5 0 2
v -11.5 0.2 2
v -11.3 0 2
v -11.3 0.1 2
v -11.2 0 2
v -11.2 0.1 2
v -11.4 0 1.9
v -11.4 0.2 1.9
v -11.3 0 1.9
v -11.3 0.2 1.9
v -11.5 0 2.3
v -11.4 0 2.3
v -11.3 0 2.3
v -11.2 0 2.3
v -11.5 0 2.2
v -11.4 0 2.2
v -11.3 0 2.2
v -11.2 0 2.2
v -11.6 0 2.1
v -11.5 0 2.1
v -11.4 0 2.1
v -11.3 0 2.1
v -11.2 0 2.1
v -11.6 0 2
v -11.5 0 2
v -11.4 0 2
v -11.3 0 2
v -11.2 0 2
v -11.4 0 1.9
v -11.3 0 1.9
v -11.5 0.1 2.3
v -11.4 0.1 2.3
v -11.5 0.1 2.2
v -11.4 0.1 2.2
v -11.3 0.1 2.1
v -11.2 0.1 2.1
v -11.3 0.1 2
v -11.2 0.1 2
v -11.3 0.2 2.3
v -11.2 0.2 2.3
v -11.3 0.2 2.2
v -11.2 0.2 2.2
v -11.6 0.2 2.1
v -11.5 0.2 2.1
v -11.6 0.2 2
v -11.5 0.2 2
v -11.4 0.2 2
v -11.3 0.2 2
v -11.4 0.2 1.9
v -11.3 0.2 1.9
v -11.4 0.4 2.2
v -11.3 0.4 2.2
v -11.4 0.4 2.1
v -11.3 0.4 2.1

# faces
f 3/1/1 2/1/1 1/1/1
f 4/1/1 2/1/1 3/1/1
f 7/1/1 6/1/1 5/1/1
f 8/1/1 6/1/1 7/1/1
f 13/2/1 10/2/1 9/2/1
f 14/1/1 12/1/1 11/1/1
f 15/1/1 12/1/1 14/1/1
f 16/2/1 10/2/1 13/2/1
f 17/2/1 10/2/1 16/2/1
f 22/2/1 21/2/1 20/2/1
f 23/2/1 21/2/1 22/2/1
f 24/2/1 19/2/1 18/2/1
f 25/2/1 19/2/1 24/2/1
f 26/1/2 27/1/2 28/1/2
f 28/1/2 27/1/2 29/1/2
f 30/1/2 31/1/2 32/1/2
f 32/1/2 31/1/2 33/1/2
f 34/2/2 35/2/2 38/2/2
f 36/1/2 37/1/2 39/1/2
f 34/2/2 38/2/2 40/2/2
f 39/1/2 37/1/2 41/1/2
f 41/1/2 37/1/2 42/1/2
f 40/2/2 38/2/2 43/2/2
f 43/2/2 38/2/2 44/2/2
f 47/2/2 48/2/2 49/2/2
f 49/2/2 48/2/2 50/2/2
f 45/2/2 46/2/2 51/2/2
f 51/2/2 46/2/2 52/2/2
f 55/1/3 54/1/3 53/1/3
f 56/1/3 54/1/3 55/1/3
f 59/2/3 58/2/3 57/2/3
f 60/2/3 58/2/3 59/2/3
f 64/2/3 62/2/3 61/2/3
f 64/2/3 63/2/3 62/2/3
f 65/2/3 63/2/3 64/2/3
f 66/2/3 63/2/3 65/2/3
f 69/1/3 68/1/3 67/1/3
f 70/1/3 68/1/3 69/1/3
f 73/2/3 72/2/3 71/2/3
f 74/2/3 72/2/3 73/2/3
f 77/1/3 76/1/3 75/1/3
f 78/1/3 76/1/3 77/1/3
f 79/1/3 76/1/3 78/1/3
f 80/1/4 81/1/4 82/1/4
f 82/1/4 81/1/4 83/1/4
f 84/2/4 85/2/4 86/2/4
f 86/2/4 85/2/4 87/2/4
f 88/2/4 89/2/4 90/2/4
f 90/2/4 89/2/4 91/2/4
f 91/2/4 89/2/4 92/2/4
f 93/1/4 94/1/4 95/1/4
f 95/1/4 94/1/4 96/1/4
f 97/2/4 98/2/4 99/2/4
f 99/2/4 98/2/4 100/2/4
f 101/1/4 102/1/4 103/1/4
f 103/1/4 102/1/4 104/1/4
f 109/1/5 106/1/5 105/1/5
f 110/1/5 106/1/5 109/1/5
f 111/2/5 108/2/5 107/2/5
f 112/2/5 108/2/5 111/2/5
f 115/2/5 111/2/5 110/2/5
f 116/2/5 111/2/5 115/2/5
f 118/1/5 114/1/5 113/1/5
f 119/1/5 114/1/5 118/1/5
f 121/2/5 117/2/5 116/2/5
f 122/2/5 117/2/5 121/2/5
f 123/1/5 121/1/5 120/1/5
f 124/1/5 121/1/5 123/1/5
f 125/1/6 126/1/6 127/1/6
f 127/1/6 126/1/6 128/1/6
f 129/2/6 130/2/6 131/2/6
f 131/2/6 130/2/6 132/2/6
f 133/2/6 134/2/6 135/2/6
f 135/2/6 134/2/6 136/2/6
f 137/1/6 138/1/6 139/1/6
f 139/1/6 138/1/6 140/1/6
f 141/1/6 142/1/6 143/1/6
f 143/1/6 142/1/6 144/1/6
f 145/2/6 146/2/6 147/2/6
f 147/2/6 146/2/6 148/2/6
