# MagicaVoxel @ Ephtracy

# group
o 

# material
mtllib boladefutebol.mtl
usemtl palette

# normals
vn 0 0 1
vn 0 0 -1
vn 1 0 0
vn -1 0 0
vn 0 -1 0
vn 0 1 0

# texcoords
vt 0.00195312 0.5
vt 0.376953 0.5

# verts
v 16.6 0.1 -7.8
v 16.4 0.1 -7.8
v 16.7 0.2 -7.8
v 16.6 0.2 -7.8
v 16.4 0.2 -7.8
v 16.3 0.2 -7.8
v 16.7 0.4 -7.8
v 16.6 0.4 -7.8
v 16.4 0.4 -7.8
v 16.3 0.4 -7.8
v 16.6 0.5 -7.8
v 16.4 0.5 -7.8
v 16.6 0 -7.9
v 16.4 0 -7.9
v 16.7 0.1 -7.9
v 16.6 0.1 -7.9
v 16.4 0.1 -7.9
v 16.3 0.1 -7.9
v 16.8 0.2 -7.9
v 16.7 0.2 -7.9
v 16.6 0.2 -7.9
v 16.4 0.2 -7.9
v 16.3 0.2 -7.9
v 16.2 0.2 -7.9
v 16.8 0.4 -7.9
v 16.7 0.4 -7.9
v 16.6 0.4 -7.9
v 16.4 0.4 -7.9
v 16.3 0.4 -7.9
v 16.2 0.4 -7.9
v 16.7 0.5 -7.9
v 16.6 0.5 -7.9
v 16.4 0.5 -7.9
v 16.3 0.5 -7.9
v 16.6 0.6 -7.9
v 16.4 0.6 -7.9
v 16.7 0 -8
v 16.6 0 -8
v 16.4 0 -8
v 16.3 0 -8
v 16.8 0.1 -8
v 16.7 0.1 -8
v 16.6 0.1 -8
v 16.4 0.1 -8
v 16.3 0.1 -8
v 16.2 0.1 -8
v 16.8 0.2 -8
v 16.7 0.2 -8
v 16.3 0.2 -8
v 16.2 0.2 -8
v 16.8 0.4 -8
v 16.7 0.4 -8
v 16.3 0.4 -8
v 16.2 0.4 -8
v 16.8 0.5 -8
v 16.7 0.5 -8
v 16.6 0.5 -8
v 16.4 0.5 -8
v 16.3 0.5 -8
v 16.2 0.5 -8
v 16.7 0.6 -8
v 16.6 0.6 -8
v 16.4 0.6 -8
v 16.3 0.6 -8
v 16.7 0 -8.2
v 16.6 0 -8.2
v 16.4 0 -8.2
v 16.3 0 -8.2
v 16.8 0.1 -8.2
v 16.7 0.1 -8.2
v 16.6 0.1 -8.2
v 16.4 0.1 -8.2
v 16.3 0.1 -8.2
v 16.2 0.1 -8.2
v 16.8 0.2 -8.2
v 16.7 0.2 -8.2
v 16.3 0.2 -8.2
v 16.2 0.2 -8.2
v 16.8 0.4 -8.2
v 16.7 0.4 -8.2
v 16.3 0.4 -8.2
v 16.2 0.4 -8.2
v 16.8 0.5 -8.2
v 16.7 0.5 -8.2
v 16.6 0.5 -8.2
v 16.4 0.5 -8.2
v 16.3 0.5 -8.2
v 16.2 0.5 -8.2
v 16.7 0.6 -8.2
v 16.6 0.6 -8.2
v 16.4 0.6 -8.2
v 16.3 0.6 -8.2
v 16.6 0 -8.3
v 16.4 0 -8.3
v 16.7 0.1 -8.3
v 16.6 0.1 -8.3
v 16.4 0.1 -8.3
v 16.3 0.1 -8.3
v 16.8 0.2 -8.3
v 16.7 0.2 -8.3
v 16.6 0.2 -8.3
v 16.4 0.2 -8.3
v 16.3 0.2 -8.3
v 16.2 0.2 -8.3
v 16.8 0.4 -8.3
v 16.7 0.4 -8.3
v 16.6 0.4 -8.3
v 16.4 0.4 -8.3
v 16.3 0.4 -8.3
v 16.2 0.4 -8.3
v 16.7 0.5 -8.3
v 16.6 0.5 -8.3
v 16.4 0.5 -8.3
v 16.3 0.5 -8.3
v 16.6 0.6 -8.3
v 16.4 0.6 -8.3
v 16.6 0.1 -8.4
v 16.4 0.1 -8.4
v 16.7 0.2 -8.4
v 16.6 0.2 -8.4
v 16.4 0.2 -8.4
v 16.3 0.2 -8.4
v 16.7 0.4 -8.4
v 16.6 0.4 -8.4
v 16.4 0.4 -8.4
v 16.3 0.4 -8.4
v 16.6 0.5 -8.4
v 16.4 0.5 -8.4
v 16.8 0.2 -7.9
v 16.8 0.4 -7.9
v 16.8 0.1 -8
v 16.8 0.2 -8
v 16.8 0.4 -8
v 16.8 0.5 -8
v 16.8 0.1 -8.2
v 16.8 0.2 -8.2
v 16.8 0.4 -8.2
v 16.8 0.5 -8.2
v 16.8 0.2 -8.3
v 16.8 0.4 -8.3
v 16.7 0.2 -7.8
v 16.7 0.4 -7.8
v 16.7 0.1 -7.9
v 16.7 0.2 -7.9
v 16.7 0.4 -7.9
v 16.7 0.5 -7.9
v 16.7 0 -8
v 16.7 0.1 -8
v 16.7 0.2 -8
v 16.7 0.4 -8
v 16.7 0.5 -8
v 16.7 0.6 -8
v 16.7 0 -8.2
v 16.7 0.1 -8.2
v 16.7 0.2 -8.2
v 16.7 0.4 -8.2
v 16.7 0.5 -8.2
v 16.7 0.6 -8.2
v 16.7 0.1 -8.3
v 16.7 0.2 -8.3
v 16.7 0.4 -8.3
v 16.7 0.5 -8.3
v 16.7 0.2 -8.4
v 16.7 0.4 -8.4
v 16.6 0.1 -7.8
v 16.6 0.2 -7.8
v 16.6 0.4 -7.8
v 16.6 0.5 -7.8
v 16.6 0 -7.9
v 16.6 0.1 -7.9
v 16.6 0.2 -7.9
v 16.6 0.4 -7.9
v 16.6 0.5 -7.9
v 16.6 0.6 -7.9
v 16.6 0 -8
v 16.6 0.1 -8
v 16.6 0.5 -8
v 16.6 0.6 -8
v 16.6 0 -8.2
v 16.6 0.1 -8.2
v 16.6 0.5 -8.2
v 16.6 0.6 -8.2
v 16.6 0 -8.3
v 16.6 0.1 -8.3
v 16.6 0.2 -8.3
v 16.6 0.4 -8.3
v 16.6 0.5 -8.3
v 16.6 0.6 -8.3
v 16.6 0.1 -8.4
v 16.6 0.2 -8.4
v 16.6 0.4 -8.4
v 16.6 0.5 -8.4
v 16.4 0.1 -7.8
v 16.4 0.2 -7.8
v 16.4 0.4 -7.8
v 16.4 0.5 -7.8
v 16.4 0 -7.9
v 16.4 0.1 -7.9
v 16.4 0.2 -7.9
v 16.4 0.4 -7.9
v 16.4 0.5 -7.9
v 16.4 0.6 -7.9
v 16.4 0 -8
v 16.4 0.1 -8
v 16.4 0.5 -8
v 16.4 0.6 -8
v 16.4 0 -8.2
v 16.4 0.1 -8.2
v 16.4 0.5 -8.2
v 16.4 0.6 -8.2
v 16.4 0 -8.3
v 16.4 0.1 -8.3
v 16.4 0.2 -8.3
v 16.4 0.4 -8.3
v 16.4 0.5 -8.3
v 16.4 0.6 -8.3
v 16.4 0.1 -8.4
v 16.4 0.2 -8.4
v 16.4 0.4 -8.4
v 16.4 0.5 -8.4
v 16.3 0.2 -7.8
v 16.3 0.4 -7.8
v 16.3 0.1 -7.9
v 16.3 0.2 -7.9
v 16.3 0.4 -7.9
v 16.3 0.5 -7.9
v 16.3 0 -8
v 16.3 0.1 -8
v 16.3 0.2 -8
v 16.3 0.4 -8
v 16.3 0.5 -8
v 16.3 0.6 -8
v 16.3 0 -8.2
v 16.3 0.1 -8.2
v 16.3 0.2 -8.2
v 16.3 0.4 -8.2
v 16.3 0.5 -8.2
v 16.3 0.6 -8.2
v 16.3 0.1 -8.3
v 16.3 0.2 -8.3
v 16.3 0.4 -8.3
v 16.3 0.5 -8.3
v 16.3 0.2 -8.4
v 16.3 0.4 -8.4
v 16.2 0.2 -7.9
v 16.2 0.4 -7.9
v 16.2 0.1 -8
v 16.2 0.2 -8
v 16.2 0.4 -8
v 16.2 0.5 -8
v 16.2 0.1 -8.2
v 16.2 0.2 -8.2
v 16.2 0.4 -8.2
v 16.2 0.5 -8.2
v 16.2 0.2 -8.3
v 16.2 0.4 -8.3
v 16.7 0 -8
v 16.7 0 -8.2
v 16.6 0 -7.9
v 16.6 0 -8
v 16.6 0 -8.2
v 16.6 0 -8.3
v 16.4 0 -7.9
v 16.4 0 -8
v 16.4 0 -8.2
v 16.4 0 -8.3
v 16.3 0 -8
v 16.3 0 -8.2
v 16.8 0.1 -8
v 16.8 0.1 -8.2
v 16.7 0.1 -7.9
v 16.7 0.1 -8
v 16.7 0.1 -8.2
v 16.7 0.1 -8.3
v 16.6 0.1 -7.8
v 16.6 0.1 -7.9
v 16.6 0.1 -8
v 16.6 0.1 -8.2
v 16.6 0.1 -8.3
v 16.6 0.1 -8.4
v 16.4 0.1 -7.8
v 16.4 0.1 -7.9
v 16.4 0.1 -8
v 16.4 0.1 -8.2
v 16.4 0.1 -8.3
v 16.4 0.1 -8.4
v 16.3 0.1 -7.9
v 16.3 0.1 -8
v 16.3 0.1 -8.2
v 16.3 0.1 -8.3
v 16.2 0.1 -8
v 16.2 0.1 -8.2
v 16.8 0.2 -7.9
v 16.8 0.2 -8
v 16.8 0.2 -8.2
v 16.8 0.2 -8.3
v 16.7 0.2 -7.8
v 16.7 0.2 -7.9
v 16.7 0.2 -8
v 16.7 0.2 -8.2
v 16.7 0.2 -8.3
v 16.7 0.2 -8.4
v 16.6 0.2 -7.8
v 16.6 0.2 -7.9
v 16.6 0.2 -8.3
v 16.6 0.2 -8.4
v 16.4 0.2 -7.8
v 16.4 0.2 -7.9
v 16.4 0.2 -8.3
v 16.4 0.2 -8.4
v 16.3 0.2 -7.8
v 16.3 0.2 -7.9
v 16.3 0.2 -8
v 16.3 0.2 -8.2
v 16.3 0.2 -8.3
v 16.3 0.2 -8.4
v 16.2 0.2 -7.9
v 16.2 0.2 -8
v 16.2 0.2 -8.2
v 16.2 0.2 -8.3
v 16.8 0.4 -7.9
v 16.8 0.4 -8
v 16.8 0.4 -8.2
v 16.8 0.4 -8.3
v 16.7 0.4 -7.8
v 16.7 0.4 -7.9
v 16.7 0.4 -8
v 16.7 0.4 -8.2
v 16.7 0.4 -8.3
v 16.7 0.4 -8.4
v 16.6 0.4 -7.8
v 16.6 0.4 -7.9
v 16.6 0.4 -8.3
v 16.6 0.4 -8.4
v 16.4 0.4 -7.8
v 16.4 0.4 -7.9
v 16.4 0.4 -8.3
v 16.4 0.4 -8.4
v 16.3 0.4 -7.8
v 16.3 0.4 -7.9
v 16.3 0.4 -8
v 16.3 0.4 -8.2
v 16.3 0.4 -8.3
v 16.3 0.4 -8.4
v 16.2 0.4 -7.9
v 16.2 0.4 -8
v 16.2 0.4 -8.2
v 16.2 0.4 -8.3
v 16.8 0.5 -8
v 16.8 0.5 -8.2
v 16.7 0.5 -7.9
v 16.7 0.5 -8
v 16.7 0.5 -8.2
v 16.7 0.5 -8.3
v 16.6 0.5 -7.8
v 16.6 0.5 -7.9
v 16.6 0.5 -8
v 16.6 0.5 -8.2
v 16.6 0.5 -8.3
v 16.6 0.5 -8.4
v 16.4 0.5 -7.8
v 16.4 0.5 -7.9
v 16.4 0.5 -8
v 16.4 0.5 -8.2
v 16.4 0.5 -8.3
v 16.4 0.5 -8.4
v 16.3 0.5 -7.9
v 16.3 0.5 -8
v 16.3 0.5 -8.2
v 16.3 0.5 -8.3
v 16.2 0.5 -8
v 16.2 0.5 -8.2
v 16.7 0.6 -8
v 16.7 0.6 -8.2
v 16.6 0.6 -7.9
v 16.6 0.6 -8
v 16.6 0.6 -8.2
v 16.6 0.6 -8.3
v 16.4 0.6 -7.9
v 16.4 0.6 -8
v 16.4 0.6 -8.2
v 16.4 0.6 -8.3
v 16.3 0.6 -8
v 16.3 0.6 -8.2

# faces
f 4/2/1 2/2/1 1/2/1
f 5/2/1 2/2/1 4/2/1
f 7/2/1 4/2/1 3/2/1
f 8/1/1 5/1/1 4/1/1
f 8/2/1 4/2/1 7/2/1
f 9/2/1 6/2/1 5/2/1
f 9/1/1 5/1/1 8/1/1
f 10/2/1 6/2/1 9/2/1
f 11/2/1 9/2/1 8/2/1
f 12/2/1 9/2/1 11/2/1
f 16/2/1 14/2/1 13/2/1
f 17/2/1 14/2/1 16/2/1
f 20/1/1 16/1/1 15/1/1
f 21/1/1 16/1/1 20/1/1
f 22/1/1 18/1/1 17/1/1
f 23/1/1 18/1/1 22/1/1
f 25/2/1 20/2/1 19/2/1
f 26/2/1 20/2/1 25/2/1
f 29/2/1 24/2/1 23/2/1
f 30/2/1 24/2/1 29/2/1
f 31/1/1 27/1/1 26/1/1
f 32/1/1 27/1/1 31/1/1
f 33/1/1 29/1/1 28/1/1
f 34/1/1 29/1/1 33/1/1
f 35/2/1 33/2/1 32/2/1
f 36/2/1 33/2/1 35/2/1
f 42/2/1 38/2/1 37/2/1
f 43/2/1 38/2/1 42/2/1
f 44/2/1 40/2/1 39/2/1
f 45/2/1 40/2/1 44/2/1
f 47/2/1 42/2/1 41/2/1
f 48/2/1 42/2/1 47/2/1
f 49/2/1 46/2/1 45/2/1
f 50/2/1 46/2/1 49/2/1
f 55/2/1 52/2/1 51/2/1
f 56/2/1 52/2/1 55/2/1
f 59/2/1 54/2/1 53/2/1
f 60/2/1 54/2/1 59/2/1
f 61/2/1 57/2/1 56/2/1
f 62/2/1 57/2/1 61/2/1
f 63/2/1 59/2/1 58/2/1
f 64/2/1 59/2/1 63/2/1
f 65/2/2 66/2/2 70/2/2
f 70/2/2 66/2/2 71/2/2
f 67/2/2 68/2/2 72/2/2
f 72/2/2 68/2/2 73/2/2
f 69/2/2 70/2/2 75/2/2
f 75/2/2 70/2/2 76/2/2
f 73/2/2 74/2/2 77/2/2
f 77/2/2 74/2/2 78/2/2
f 79/2/2 80/2/2 83/2/2
f 83/2/2 80/2/2 84/2/2
f 81/2/2 82/2/2 87/2/2
f 87/2/2 82/2/2 88/2/2
f 84/2/2 85/2/2 89/2/2
f 89/2/2 85/2/2 90/2/2
f 86/2/2 87/2/2 91/2/2
f 91/2/2 87/2/2 92/2/2
f 93/2/2 94/2/2 96/2/2
f 96/2/2 94/2/2 97/2/2
f 95/1/2 96/1/2 100/1/2
f 100/1/2 96/1/2 101/1/2
f 97/1/2 98/1/2 102/1/2
f 102/1/2 98/1/2 103/1/2
f 99/2/2 100/2/2 105/2/2
f 105/2/2 100/2/2 106/2/2
f 103/2/2 104/2/2 109/2/2
f 109/2/2 104/2/2 110/2/2
f 106/1/2 107/1/2 111/1/2
f 111/1/2 107/1/2 112/1/2
f 108/1/2 109/1/2 113/1/2
f 113/1/2 109/1/2 114/1/2
f 112/2/2 113/2/2 115/2/2
f 115/2/2 113/2/2 116/2/2
f 117/2/2 118/2/2 120/2/2
f 120/2/2 118/2/2 121/2/2
f 119/2/2 120/2/2 123/2/2
f 120/1/2 121/1/2 124/1/2
f 123/2/2 120/2/2 124/2/2
f 121/2/2 122/2/2 125/2/2
f 124/1/2 121/1/2 125/1/2
f 125/2/2 122/2/2 126/2/2
f 124/2/2 125/2/2 127/2/2
f 127/2/2 125/2/2 128/2/2
f 132/2/3 130/2/3 129/2/3
f 133/2/3 130/2/3 132/2/3
f 135/2/3 132/2/3 131/2/3
f 136/1/3 133/1/3 132/1/3
f 136/2/3 132/2/3 135/2/3
f 137/2/3 134/2/3 133/2/3
f 137/1/3 133/1/3 136/1/3
f 138/2/3 134/2/3 137/2/3
f 139/2/3 137/2/3 136/2/3
f 140/2/3 137/2/3 139/2/3
f 144/2/3 142/2/3 141/2/3
f 145/2/3 142/2/3 144/2/3
f 148/1/3 144/1/3 143/1/3
f 149/1/3 144/1/3 148/1/3
f 150/1/3 146/1/3 145/1/3
f 151/1/3 146/1/3 150/1/3
f 153/2/3 148/2/3 147/2/3
f 154/2/3 148/2/3 153/2/3
f 157/2/3 152/2/3 151/2/3
f 158/2/3 152/2/3 157/2/3
f 159/1/3 155/1/3 154/1/3
f 160/1/3 155/1/3 159/1/3
f 161/1/3 157/1/3 156/1/3
f 162/1/3 157/1/3 161/1/3
f 163/2/3 161/2/3 160/2/3
f 164/2/3 161/2/3 163/2/3
f 170/2/3 166/2/3 165/2/3
f 171/2/3 166/2/3 170/2/3
f 172/2/3 168/2/3 167/2/3
f 173/2/3 168/2/3 172/2/3
f 175/2/3 170/2/3 169/2/3
f 176/2/3 170/2/3 175/2/3
f 177/2/3 174/2/3 173/2/3
f 178/2/3 174/2/3 177/2/3
f 183/2/3 180/2/3 179/2/3
f 184/2/3 180/2/3 183/2/3
f 187/2/3 182/2/3 181/2/3
f 188/2/3 182/2/3 187/2/3
f 189/2/3 185/2/3 184/2/3
f 190/2/3 185/2/3 189/2/3
f 191/2/3 187/2/3 186/2/3
f 192/2/3 187/2/3 191/2/3
f 193/2/4 194/2/4 198/2/4
f 198/2/4 194/2/4 199/2/4
f 195/2/4 196/2/4 200/2/4
f 200/2/4 196/2/4 201/2/4
f 197/2/4 198/2/4 203/2/4
f 203/2/4 198/2/4 204/2/4
f 201/2/4 202/2/4 205/2/4
f 205/2/4 202/2/4 206/2/4
f 207/2/4 208/2/4 211/2/4
f 211/2/4 208/2/4 212/2/4
f 209/2/4 210/2/4 215/2/4
f 215/2/4 210/2/4 216/2/4
f 212/2/4 213/2/4 217/2/4
f 217/2/4 213/2/4 218/2/4
f 214/2/4 215/2/4 219/2/4
f 219/2/4 215/2/4 220/2/4
f 221/2/4 222/2/4 224/2/4
f 224/2/4 222/2/4 225/2/4
f 223/1/4 224/1/4 228/1/4
f 228/1/4 224/1/4 229/1/4
f 225/1/4 226/1/4 230/1/4
f 230/1/4 226/1/4 231/1/4
f 227/2/4 228/2/4 233/2/4
f 233/2/4 228/2/4 234/2/4
f 231/2/4 232/2/4 237/2/4
f 237/2/4 232/2/4 238/2/4
f 234/1/4 235/1/4 239/1/4
f 239/1/4 235/1/4 240/1/4
f 236/1/4 237/1/4 241/1/4
f 241/1/4 237/1/4 242/1/4
f 240/2/4 241/2/4 243/2/4
f 243/2/4 241/2/4 244/2/4
f 245/2/4 246/2/4 248/2/4
f 248/2/4 246/2/4 249/2/4
f 247/2/4 248/2/4 251/2/4
f 248/1/4 249/1/4 252/1/4
f 251/2/4 248/2/4 252/2/4
f 249/2/4 250/2/4 253/2/4
f 252/1/4 249/1/4 253/1/4
f 253/2/4 250/2/4 254/2/4
f 252/2/4 253/2/4 255/2/4
f 255/2/4 253/2/4 256/2/4
f 260/2/5 258/2/5 257/2/5
f 261/2/5 258/2/5 260/2/5
f 263/2/5 260/2/5 259/2/5
f 264/1/5 261/1/5 260/1/5
f 264/2/5 260/2/5 263/2/5
f 265/2/5 262/2/5 261/2/5
f 265/1/5 261/1/5 264/1/5
f 266/2/5 262/2/5 265/2/5
f 267/2/5 265/2/5 264/2/5
f 268/2/5 265/2/5 267/2/5
f 272/2/5 270/2/5 269/2/5
f 273/2/5 270/2/5 272/2/5
f 276/1/5 272/1/5 271/1/5
f 277/1/5 272/1/5 276/1/5
f 278/1/5 274/1/5 273/1/5
f 279/1/5 274/1/5 278/1/5
f 281/2/5 276/2/5 275/2/5
f 282/2/5 276/2/5 281/2/5
f 285/2/5 280/2/5 279/2/5
f 286/2/5 280/2/5 285/2/5
f 287/1/5 283/1/5 282/1/5
f 288/1/5 283/1/5 287/1/5
f 289/1/5 285/1/5 284/1/5
f 290/1/5 285/1/5 289/1/5
f 291/2/5 289/2/5 288/2/5
f 292/2/5 289/2/5 291/2/5
f 298/2/5 294/2/5 293/2/5
f 299/2/5 294/2/5 298/2/5
f 300/2/5 296/2/5 295/2/5
f 301/2/5 296/2/5 300/2/5
f 303/2/5 298/2/5 297/2/5
f 304/2/5 298/2/5 303/2/5
f 305/2/5 302/2/5 301/2/5
f 306/2/5 302/2/5 305/2/5
f 311/2/5 308/2/5 307/2/5
f 312/2/5 308/2/5 311/2/5
f 315/2/5 310/2/5 309/2/5
f 316/2/5 310/2/5 315/2/5
f 317/2/5 313/2/5 312/2/5
f 318/2/5 313/2/5 317/2/5
f 319/2/5 315/2/5 314/2/5
f 320/2/5 315/2/5 319/2/5
f 321/2/6 322/2/6 326/2/6
f 326/2/6 322/2/6 327/2/6
f 323/2/6 324/2/6 328/2/6
f 328/2/6 324/2/6 329/2/6
f 325/2/6 326/2/6 331/2/6
f 331/2/6 326/2/6 332/2/6
f 329/2/6 330/2/6 333/2/6
f 333/2/6 330/2/6 334/2/6
f 335/2/6 336/2/6 339/2/6
f 339/2/6 336/2/6 340/2/6
f 337/2/6 338/2/6 343/2/6
f 343/2/6 338/2/6 344/2/6
f 340/2/6 341/2/6 345/2/6
f 345/2/6 341/2/6 346/2/6
f 342/2/6 343/2/6 347/2/6
f 347/2/6 343/2/6 348/2/6
f 349/2/6 350/2/6 352/2/6
f 352/2/6 350/2/6 353/2/6
f 351/1/6 352/1/6 356/1/6
f 356/1/6 352/1/6 357/1/6
f 353/1/6 354/1/6 358/1/6
f 358/1/6 354/1/6 359/1/6
f 355/2/6 356/2/6 361/2/6
f 361/2/6 356/2/6 362/2/6
f 359/2/6 360/2/6 365/2/6
f 365/2/6 360/2/6 366/2/6
f 362/1/6 363/1/6 367/1/6
f 367/1/6 363/1/6 368/1/6
f 364/1/6 365/1/6 369/1/6
f 369/1/6 365/1/6 370/1/6
f 368/2/6 369/2/6 371/2/6
f 371/2/6 369/2/6 372/2/6
f 373/2/6 374/2/6 376/2/6
f 376/2/6 374/2/6 377/2/6
f 375/2/6 376/2/6 379/2/6
f 376/1/6 377/1/6 380/1/6
f 379/2/6 376/2/6 380/2/6
f 377/2/6 378/2/6 381/2/6
f 380/1/6 377/1/6 381/1/6
f 381/2/6 378/2/6 382/2/6
f 380/2/6 381/2/6 383/2/6
f 383/2/6 381/2/6 384/2/6
