# MagicaVoxel @ Ephtracy

# group
o 

# material
mtllib flamenguista.mtl
usemtl palette

# normals
vn -1 0 0
vn 1 0 0
vn 0 0 1
vn 0 0 -1
vn 0 -1 0
vn 0 1 0

# texcoords
vt 0.00195312 0.5
vt 0.0253906 0.5
vt 0.0644531 0.5
vt 0.0761719 0.5
vt 0.158203 0.5
vt 0.173828 0.5
vt 0.376953 0.5

# verts
v -0.4 0.3 0.1
v -0.4 0.3 -0.1
v -0.4 0.4 0.1
v -0.4 0.4 -0.1
v -0.4 0.5 0.1
v -0.4 0.5 -0.1
v -0.4 0.6 0.1
v -0.4 0.6 -0.1
v -0.4 0.8 0
v -0.4 0.8 -0.1
v -0.4 1 0
v -0.4 1 -0.1
v -0.3 0 0.1
v -0.3 0 -0.2
v -0.3 0.1 0.1
v -0.3 0.1 -0.1
v -0.3 0.1 -0.2
v -0.3 0.3 0.1
v -0.3 0.3 -0.1
v -0.3 0.7 0.2
v -0.3 0.7 -0.2
v -0.3 0.8 0.2
v -0.3 0.8 0.1
v -0.3 0.8 0
v -0.3 0.8 -0.1
v -0.3 0.9 0.1
v -0.3 0.9 0
v -0.3 0.9 -0.1
v -0.3 0.9 -0.2
v -0.3 1 0
v -0.3 1 -0.1
v -0.3 1 -0.2
v -0.3 1.1 0
v -0.3 1.1 -0.2
v -0.3 1.2 0.2
v -0.3 1.2 -0.2
v -0.1 0.6 0.1
v -0.1 0.6 -0.1
v -0.1 0.7 0.1
v -0.1 0.7 -0.1
v -0.1 0.8 0.3
v -0.1 0.8 0.2
v -0.1 0.9 0.4
v -0.1 0.9 0.3
v -0.1 1 -0.2
v -0.1 1 -0.3
v -0.1 1.1 0.4
v -0.1 1.1 0.3
v -0.1 1.1 -0.2
v -0.1 1.2 0.3
v -0.1 1.2 0.2
v -0.1 1.2 -0.2
v -0.1 1.3 0.2
v -0.1 1.3 0.1
v -0.1 1.3 -0.2
v -0.1 1.3 -0.3
v -0.1 1.4 0.1
v -0.1 1.4 -0.2
v 0.1 0 0.1
v 0.1 0 -0.2
v 0.1 0.1 0.1
v 0.1 0.1 -0.1
v 0.1 0.1 -0.2
v 0.1 0.2 0.1
v 0.1 0.2 -0.1
v -0.1 0 0.1
v -0.1 0 -0.2
v -0.1 0.1 0.1
v -0.1 0.1 -0.1
v -0.1 0.1 -0.2
v -0.1 0.2 0.1
v -0.1 0.2 -0.1
v 0 0.9 0.4
v 0 0.9 0.3
v 0 1.1 0.4
v 0 1.1 0.3
v 0.1 0.6 0.1
v 0.1 0.6 -0.1
v 0.1 0.7 0.1
v 0.1 0.7 -0.1
v 0.1 0.8 0.3
v 0.1 0.8 0.2
v 0.1 1 -0.2
v 0.1 1 -0.3
v 0.1 1.1 -0.2
v 0.1 1.2 0.3
v 0.1 1.2 0.2
v 0.1 1.2 -0.2
v 0.1 1.3 0.2
v 0.1 1.3 0.1
v 0.1 1.3 -0.2
v 0.1 1.3 -0.3
v 0.1 1.4 0.1
v 0.1 1.4 -0.2
v 0.3 0 0.1
v 0.3 0 -0.2
v 0.3 0.1 0.1
v 0.3 0.1 -0.1
v 0.3 0.1 -0.2
v 0.3 0.3 0.1
v 0.3 0.3 -0.1
v 0.3 0.7 0.2
v 0.3 0.7 -0.2
v 0.3 0.8 0.2
v 0.3 0.8 0.1
v 0.3 0.8 0
v 0.3 0.8 -0.1
v 0.3 0.9 0.1
v 0.3 0.9 0
v 0.3 0.9 -0.1
v 0.3 0.9 -0.2
v 0.3 1 0
v 0.3 1 -0.1
v 0.3 1 -0.2
v 0.3 1.1 0
v 0.3 1.1 -0.2
v 0.3 1.2 0.2
v 0.3 1.2 -0.2
v 0.4 0.3 0.1
v 0.4 0.3 -0.1
v 0.4 0.4 0.1
v 0.4 0.4 -0.1
v 0.4 0.5 0.1
v 0.4 0.5 -0.1
v 0.4 0.6 0.1
v 0.4 0.6 -0.1
v 0.4 0.8 0
v 0.4 0.8 -0.1
v 0.4 1 0
v 0.4 1 -0.1
v -0.1 0.9 0.4
v -0.1 1.1 0.4
v 0 0.9 0.4
v 0 1.1 0.4
v -0.1 0.8 0.3
v -0.1 0.9 0.3
v -0.1 1.1 0.3
v -0.1 1.2 0.3
v 0 0.9 0.3
v 0 1.1 0.3
v 0.1 0.8 0.3
v 0.1 1.2 0.3
v -0.3 0.7 0.2
v -0.3 0.8 0.2
v -0.3 1.2 0.2
v -0.1 0.8 0.2
v -0.1 1.2 0.2
v -0.1 1.3 0.2
v 0.1 0.8 0.2
v 0.1 1.2 0.2
v 0.1 1.3 0.2
v 0.3 0.7 0.2
v 0.3 0.8 0.2
v 0.3 1.2 0.2
v -0.4 0.3 0.1
v -0.4 0.4 0.1
v -0.4 0.5 0.1
v -0.4 0.6 0.1
v -0.3 0 0.1
v -0.3 0.1 0.1
v -0.3 0.3 0.1
v -0.3 0.4 0.1
v -0.3 0.5 0.1
v -0.3 0.6 0.1
v -0.1 0 0.1
v -0.1 0.1 0.1
v -0.1 0.2 0.1
v -0.1 0.6 0.1
v -0.1 0.7 0.1
v -0.1 1.3 0.1
v -0.1 1.4 0.1
v 0.1 0 0.1
v 0.1 0.1 0.1
v 0.1 0.2 0.1
v 0.1 0.6 0.1
v 0.1 0.7 0.1
v 0.1 1.3 0.1
v 0.1 1.4 0.1
v 0.3 0 0.1
v 0.3 0.1 0.1
v 0.3 0.3 0.1
v 0.3 0.4 0.1
v 0.3 0.5 0.1
v 0.3 0.6 0.1
v 0.4 0.3 0.1
v 0.4 0.4 0.1
v 0.4 0.5 0.1
v 0.4 0.6 0.1
v -0.4 0.8 0
v -0.4 1 0
v -0.3 0.8 0
v -0.3 0.9 0
v -0.3 1 0
v 0.3 0.8 0
v 0.3 0.9 0
v 0.3 1 0
v 0.4 0.8 0
v 0.4 1 0
v -0.4 0.3 -0.1
v -0.4 0.4 -0.1
v -0.4 0.5 -0.1
v -0.4 0.6 -0.1
v -0.4 0.8 -0.1
v -0.4 1 -0.1
v -0.3 0.1 -0.1
v -0.3 0.3 -0.1
v -0.3 0.4 -0.1
v -0.3 0.5 -0.1
v -0.3 0.6 -0.1
v -0.3 0.8 -0.1
v -0.3 0.9 -0.1
v -0.3 1 -0.1
v -0.1 0.1 -0.1
v -0.1 0.2 -0.1
v -0.1 0.6 -0.1
v -0.1 0.7 -0.1
v 0.1 0.1 -0.1
v 0.1 0.2 -0.1
v 0.1 0.6 -0.1
v 0.1 0.7 -0.1
v 0.3 0.1 -0.1
v 0.3 0.3 -0.1
v 0.3 0.4 -0.1
v 0.3 0.5 -0.1
v 0.3 0.6 -0.1
v 0.3 0.8 -0.1
v 0.3 0.9 -0.1
v 0.3 1 -0.1
v 0.4 0.3 -0.1
v 0.4 0.4 -0.1
v 0.4 0.5 -0.1
v 0.4 0.6 -0.1
v 0.4 0.8 -0.1
v 0.4 1 -0.1
v -0.3 0 -0.2
v -0.3 0.1 -0.2
v -0.3 0.7 -0.2
v -0.3 0.9 -0.2
v -0.3 1 -0.2
v -0.3 1.1 -0.2
v -0.3 1.2 -0.2
v -0.2 0.9 -0.2
v -0.2 1 -0.2
v -0.1 0 -0.2
v -0.1 0.1 -0.2
v -0.1 0.7 -0.2
v -0.1 0.8 -0.2
v -0.1 0.9 -0.2
v -0.1 1 -0.2
v -0.1 1.1 -0.2
v -0.1 1.2 -0.2
v -0.1 1.3 -0.2
v -0.1 1.4 -0.2
v 0.1 0 -0.2
v 0.1 0.1 -0.2
v 0.1 0.7 -0.2
v 0.1 0.8 -0.2
v 0.1 0.9 -0.2
v 0.1 1 -0.2
v 0.1 1.1 -0.2
v 0.1 1.2 -0.2
v 0.1 1.3 -0.2
v 0.1 1.4 -0.2
v 0.2 0.9 -0.2
v 0.2 1 -0.2
v 0.3 0 -0.2
v 0.3 0.1 -0.2
v 0.3 0.7 -0.2
v 0.3 0.9 -0.2
v 0.3 1 -0.2
v 0.3 1.1 -0.2
v 0.3 1.2 -0.2
v -0.1 1 -0.3
v -0.1 1.3 -0.3
v 0.1 1 -0.3
v 0.1 1.3 -0.3
v -0.3 0 0.1
v -0.1 0 0.1
v 0.1 0 0.1
v 0.3 0 0.1
v -0.3 0 -0.2
v -0.1 0 -0.2
v 0.1 0 -0.2
v 0.3 0 -0.2
v -0.1 0.2 0.1
v 0.1 0.2 0.1
v -0.1 0.2 -0.1
v 0.1 0.2 -0.1
v -0.4 0.3 0.1
v -0.3 0.3 0.1
v 0.3 0.3 0.1
v 0.4 0.3 0.1
v -0.4 0.3 -0.1
v -0.3 0.3 -0.1
v 0.3 0.3 -0.1
v 0.4 0.3 -0.1
v -0.3 0.7 0.2
v 0.3 0.7 0.2
v -0.1 0.7 0.1
v 0.1 0.7 0.1
v -0.1 0.7 -0.1
v 0.1 0.7 -0.1
v -0.3 0.7 -0.2
v -0.1 0.7 -0.2
v 0.1 0.7 -0.2
v 0.3 0.7 -0.2
v -0.1 0.8 0.3
v 0.1 0.8 0.3
v -0.1 0.8 0.2
v 0.1 0.8 0.2
v -0.4 0.8 0
v -0.3 0.8 0
v 0.3 0.8 0
v 0.4 0.8 0
v -0.4 0.8 -0.1
v -0.3 0.8 -0.1
v 0.3 0.8 -0.1
v 0.4 0.8 -0.1
v -0.1 0.9 0.4
v 0 0.9 0.4
v -0.1 0.9 0.3
v 0 0.9 0.3
v -0.1 1 -0.2
v 0.1 1 -0.2
v -0.1 1 -0.3
v 0.1 1 -0.3
v -0.3 0.1 -0.1
v -0.1 0.1 -0.1
v 0.1 0.1 -0.1
v 0.3 0.1 -0.1
v -0.3 0.1 -0.2
v -0.1 0.1 -0.2
v 0.1 0.1 -0.2
v 0.3 0.1 -0.2
v -0.4 0.6 0.1
v -0.3 0.6 0.1
v -0.1 0.6 0.1
v 0.1 0.6 0.1
v 0.3 0.6 0.1
v 0.4 0.6 0.1
v -0.4 0.6 -0.1
v -0.3 0.6 -0.1
v -0.1 0.6 -0.1
v 0.1 0.6 -0.1
v 0.3 0.6 -0.1
v 0.4 0.6 -0.1
v -0.4 1 0
v -0.3 1 0
v 0.3 1 0
v 0.4 1 0
v -0.4 1 -0.1
v -0.3 1 -0.1
v 0.3 1 -0.1
v 0.4 1 -0.1
v -0.1 1.1 0.4
v 0 1.1 0.4
v -0.1 1.1 0.3
v 0 1.1 0.3
v -0.1 1.2 0.3
v 0.1 1.2 0.3
v -0.3 1.2 0.2
v -0.1 1.2 0.2
v 0.1 1.2 0.2
v 0.3 1.2 0.2
v -0.3 1.2 -0.2
v -0.1 1.2 -0.2
v 0.1 1.2 -0.2
v 0.3 1.2 -0.2
v -0.1 1.3 0.2
v 0.1 1.3 0.2
v -0.1 1.3 0.1
v 0.1 1.3 0.1
v -0.1 1.3 -0.2
v 0.1 1.3 -0.2
v -0.1 1.3 -0.3
v 0.1 1.3 -0.3
v -0.1 1.4 0.1
v 0.1 1.4 0.1
v -0.1 1.4 -0.2
v 0.1 1.4 -0.2

# faces
f 3/6/1 2/6/1 1/6/1
f 4/6/1 2/6/1 3/6/1
f 5/3/1 4/3/1 3/3/1
f 6/3/1 4/3/1 5/3/1
f 7/1/1 6/1/1 5/1/1
f 8/1/1 6/1/1 7/1/1
f 11/6/1 10/6/1 9/6/1
f 12/6/1 10/6/1 11/6/1
f 15/6/1 14/6/1 13/6/1
f 16/6/1 14/6/1 15/6/1
f 17/6/1 14/6/1 16/6/1
f 18/1/1 16/1/1 15/1/1
f 19/1/1 16/1/1 18/1/1
f 22/6/1 21/6/1 20/6/1
f 23/6/1 21/6/1 22/6/1
f 24/6/1 21/6/1 23/6/1
f 25/6/1 21/6/1 24/6/1
f 26/2/1 23/2/1 22/2/1
f 26/6/1 24/6/1 23/6/1
f 27/6/1 24/6/1 26/6/1
f 28/6/1 21/6/1 25/6/1
f 29/6/1 21/6/1 28/6/1
f 30/2/1 27/2/1 26/2/1
f 31/7/1 29/7/1 28/7/1
f 32/7/1 29/7/1 31/7/1
f 33/2/1 30/2/1 26/2/1
f 33/6/1 31/6/1 30/6/1
f 33/6/1 32/6/1 31/6/1
f 34/6/1 32/6/1 33/6/1
f 35/2/1 26/2/1 22/2/1
f 35/2/1 33/2/1 26/2/1
f 35/2/1 34/2/1 33/2/1
f 36/2/1 34/2/1 35/2/1
f 39/6/1 38/6/1 37/6/1
f 40/6/1 38/6/1 39/6/1
f 44/5/1 42/5/1 41/5/1
f 47/5/1 44/5/1 43/5/1
f 48/5/1 42/5/1 44/5/1
f 48/5/1 44/5/1 47/5/1
f 49/5/1 46/5/1 45/5/1
f 50/5/1 42/5/1 48/5/1
f 51/5/1 42/5/1 50/5/1
f 52/5/1 46/5/1 49/5/1
f 53/5/1 52/5/1 51/5/1
f 54/5/1 52/5/1 53/5/1
f 55/5/1 46/5/1 52/5/1
f 55/5/1 52/5/1 54/5/1
f 56/5/1 46/5/1 55/5/1
f 57/5/1 55/5/1 54/5/1
f 58/5/1 55/5/1 57/5/1
f 61/6/1 60/6/1 59/6/1
f 62/6/1 60/6/1 61/6/1
f 63/6/1 60/6/1 62/6/1
f 64/1/1 62/1/1 61/1/1
f 65/1/1 62/1/1 64/1/1
f 66/6/2 67/6/2 68/6/2
f 68/6/2 67/6/2 69/6/2
f 69/6/2 67/6/2 70/6/2
f 68/1/2 69/1/2 71/1/2
f 71/1/2 69/1/2 72/1/2
f 73/5/2 74/5/2 75/5/2
f 75/5/2 74/5/2 76/5/2
f 77/6/2 78/6/2 79/6/2
f 79/6/2 78/6/2 80/6/2
f 83/5/2 84/5/2 85/5/2
f 81/5/2 82/5/2 86/5/2
f 86/5/2 82/5/2 87/5/2
f 85/5/2 84/5/2 88/5/2
f 87/5/2 88/5/2 89/5/2
f 89/5/2 88/5/2 90/5/2
f 88/5/2 84/5/2 91/5/2
f 90/5/2 88/5/2 91/5/2
f 91/5/2 84/5/2 92/5/2
f 90/5/2 91/5/2 93/5/2
f 93/5/2 91/5/2 94/5/2
f 95/6/2 96/6/2 97/6/2
f 97/6/2 96/6/2 98/6/2
f 98/6/2 96/6/2 99/6/2
f 97/1/2 98/1/2 100/1/2
f 100/1/2 98/1/2 101/1/2
f 102/6/2 103/6/2 104/6/2
f 104/6/2 103/6/2 105/6/2
f 105/6/2 103/6/2 106/6/2
f 106/6/2 103/6/2 107/6/2
f 104/2/2 105/2/2 108/2/2
f 105/6/2 106/6/2 108/6/2
f 108/6/2 106/6/2 109/6/2
f 107/6/2 103/6/2 110/6/2
f 110/6/2 103/6/2 111/6/2
f 108/2/2 109/2/2 112/2/2
f 110/7/2 111/7/2 113/7/2
f 113/7/2 111/7/2 114/7/2
f 108/2/2 112/2/2 115/2/2
f 112/6/2 113/6/2 115/6/2
f 113/6/2 114/6/2 115/6/2
f 115/6/2 114/6/2 116/6/2
f 104/2/2 108/2/2 117/2/2
f 108/2/2 115/2/2 117/2/2
f 115/2/2 116/2/2 117/2/2
f 117/2/2 116/2/2 118/2/2
f 119/6/2 120/6/2 121/6/2
f 121/6/2 120/6/2 122/6/2
f 121/3/2 122/3/2 123/3/2
f 123/3/2 122/3/2 124/3/2
f 123/1/2 124/1/2 125/1/2
f 125/1/2 124/1/2 126/1/2
f 127/6/2 128/6/2 129/6/2
f 129/6/2 128/6/2 130/6/2
f 133/5/3 132/5/3 131/5/3
f 134/5/3 132/5/3 133/5/3
f 139/5/3 136/5/3 135/5/3
f 140/5/3 138/5/3 137/5/3
f 141/5/3 139/5/3 135/5/3
f 141/5/3 140/5/3 139/5/3
f 142/5/3 138/5/3 140/5/3
f 142/5/3 140/5/3 141/5/3
f 146/6/3 144/6/3 143/6/3
f 146/2/3 145/2/3 144/2/3
f 147/2/3 145/2/3 146/2/3
f 149/6/3 146/6/3 143/6/3
f 150/5/3 148/5/3 147/5/3
f 151/5/3 148/5/3 150/5/3
f 152/6/3 149/6/3 143/6/3
f 153/2/3 150/2/3 149/2/3
f 153/6/3 149/6/3 152/6/3
f 154/2/3 150/2/3 153/2/3
f 161/6/3 156/6/3 155/6/3
f 162/3/3 157/3/3 156/3/3
f 162/6/3 156/6/3 161/6/3
f 163/1/3 158/1/3 157/1/3
f 163/3/3 157/3/3 162/3/3
f 164/1/3 158/1/3 163/1/3
f 165/6/3 160/6/3 159/6/3
f 166/1/3 161/1/3 160/1/3
f 166/6/3 160/6/3 165/6/3
f 167/1/3 161/1/3 166/1/3
f 168/3/3 164/3/3 163/3/3
f 174/1/3 161/1/3 167/1/3
f 175/3/3 168/3/3 163/3/3
f 175/6/3 169/6/3 168/6/3
f 176/6/3 169/6/3 175/6/3
f 177/5/3 171/5/3 170/5/3
f 178/5/3 171/5/3 177/5/3
f 179/6/3 173/6/3 172/6/3
f 180/1/3 174/1/3 173/1/3
f 180/6/3 173/6/3 179/6/3
f 181/3/3 162/3/3 161/3/3
f 181/1/3 174/1/3 180/1/3
f 181/1/3 161/1/3 174/1/3
f 182/1/3 163/1/3 162/1/3
f 182/3/3 162/3/3 181/3/3
f 183/3/3 175/3/3 163/3/3
f 183/1/3 163/1/3 182/1/3
f 184/3/3 175/3/3 183/3/3
f 185/6/3 182/6/3 181/6/3
f 186/3/3 183/3/3 182/3/3
f 186/6/3 182/6/3 185/6/3
f 187/1/3 184/1/3 183/1/3
f 187/3/3 183/3/3 186/3/3
f 188/1/3 184/1/3 187/1/3
f 191/6/3 190/6/3 189/6/3
f 192/6/3 190/6/3 191/6/3
f 193/6/3 190/6/3 192/6/3
f 197/6/3 195/6/3 194/6/3
f 197/6/3 196/6/3 195/6/3
f 198/6/3 196/6/3 197/6/3
f 199/6/4 200/6/4 206/6/4
f 200/3/4 201/3/4 207/3/4
f 206/6/4 200/6/4 207/6/4
f 201/1/4 202/1/4 208/1/4
f 207/3/4 201/3/4 208/3/4
f 208/1/4 202/1/4 209/1/4
f 203/6/4 204/6/4 210/6/4
f 210/6/4 204/6/4 211/6/4
f 211/6/4 204/6/4 212/6/4
f 205/1/4 206/1/4 213/1/4
f 213/1/4 206/1/4 214/1/4
f 208/3/4 209/3/4 215/3/4
f 214/1/4 206/1/4 218/1/4
f 208/3/4 215/3/4 219/3/4
f 215/6/4 216/6/4 219/6/4
f 219/6/4 216/6/4 220/6/4
f 217/1/4 218/1/4 221/1/4
f 206/3/4 207/3/4 222/3/4
f 221/1/4 218/1/4 222/1/4
f 218/1/4 206/1/4 222/1/4
f 207/1/4 208/1/4 223/1/4
f 222/3/4 207/3/4 223/3/4
f 208/3/4 219/3/4 224/3/4
f 223/1/4 208/1/4 224/1/4
f 224/3/4 219/3/4 225/3/4
f 222/6/4 223/6/4 229/6/4
f 223/3/4 224/3/4 230/3/4
f 229/6/4 223/6/4 230/6/4
f 224/1/4 225/1/4 231/1/4
f 230/3/4 224/3/4 231/3/4
f 231/1/4 225/1/4 232/1/4
f 227/6/4 228/6/4 233/6/4
f 226/6/4 227/6/4 233/6/4
f 233/6/4 228/6/4 234/6/4
f 237/6/4 238/6/4 242/6/4
f 238/7/4 239/7/4 242/7/4
f 239/6/4 240/6/4 243/6/4
f 242/7/4 239/7/4 243/7/4
f 235/6/4 236/6/4 244/6/4
f 244/6/4 236/6/4 245/6/4
f 237/6/4 242/6/4 246/6/4
f 246/6/4 242/6/4 247/6/4
f 242/5/4 243/5/4 248/5/4
f 247/6/4 242/6/4 248/6/4
f 243/6/4 240/6/4 249/6/4
f 248/5/4 243/5/4 249/5/4
f 240/2/4 241/2/4 250/2/4
f 249/6/4 240/6/4 250/6/4
f 250/2/4 241/2/4 251/2/4
f 246/4/4 247/4/4 256/4/4
f 247/6/4 248/6/4 257/6/4
f 256/4/4 247/4/4 257/4/4
f 248/6/4 249/6/4 257/6/4
f 257/6/4 249/6/4 258/6/4
f 258/6/4 249/6/4 259/6/4
f 252/5/4 253/5/4 262/5/4
f 262/5/4 253/5/4 263/5/4
f 256/6/4 257/6/4 264/6/4
f 257/6/4 258/6/4 264/6/4
f 258/5/4 259/5/4 264/5/4
f 259/6/4 260/6/4 265/6/4
f 264/5/4 259/5/4 265/5/4
f 254/6/4 255/6/4 266/6/4
f 266/6/4 255/6/4 267/6/4
f 256/6/4 264/6/4 268/6/4
f 264/7/4 265/7/4 269/7/4
f 268/6/4 264/6/4 269/6/4
f 265/6/4 260/6/4 270/6/4
f 269/7/4 265/7/4 270/7/4
f 260/2/4 261/2/4 271/2/4
f 270/6/4 260/6/4 271/6/4
f 271/2/4 261/2/4 272/2/4
f 273/5/4 274/5/4 275/5/4
f 275/5/4 274/5/4 276/5/4
f 281/6/5 278/6/5 277/6/5
f 282/6/5 278/6/5 281/6/5
f 283/6/5 280/6/5 279/6/5
f 284/6/5 280/6/5 283/6/5
f 287/1/5 286/1/5 285/1/5
f 288/1/5 286/1/5 287/1/5
f 293/6/5 290/6/5 289/6/5
f 294/6/5 290/6/5 293/6/5
f 295/6/5 292/6/5 291/6/5
f 296/6/5 292/6/5 295/6/5
f 299/6/5 298/6/5 297/6/5
f 300/6/5 298/6/5 299/6/5
f 301/6/5 299/6/5 297/6/5
f 302/6/5 298/6/5 300/6/5
f 303/6/5 301/6/5 297/6/5
f 304/4/5 302/4/5 301/4/5
f 304/6/5 301/6/5 303/6/5
f 305/6/5 298/6/5 302/6/5
f 305/4/5 302/4/5 304/4/5
f 306/6/5 298/6/5 305/6/5
f 309/5/5 308/5/5 307/5/5
f 310/5/5 308/5/5 309/5/5
f 315/6/5 312/6/5 311/6/5
f 316/6/5 312/6/5 315/6/5
f 317/6/5 314/6/5 313/6/5
f 318/6/5 314/6/5 317/6/5
f 321/5/5 320/5/5 319/5/5
f 322/5/5 320/5/5 321/5/5
f 325/5/5 324/5/5 323/5/5
f 326/5/5 324/5/5 325/5/5
f 327/6/6 328/6/6 331/6/6
f 331/6/6 328/6/6 332/6/6
f 329/6/6 330/6/6 333/6/6
f 333/6/6 330/6/6 334/6/6
f 335/1/6 336/1/6 341/1/6
f 336/3/6 337/3/6 342/3/6
f 341/1/6 336/1/6 342/1/6
f 342/3/6 337/3/6 343/3/6
f 338/3/6 339/3/6 344/3/6
f 339/1/6 340/1/6 345/1/6
f 344/3/6 339/3/6 345/3/6
f 345/1/6 340/1/6 346/1/6
f 347/6/6 348/6/6 351/6/6
f 351/6/6 348/6/6 352/6/6
f 349/6/6 350/6/6 353/6/6
f 353/6/6 350/6/6 354/6/6
f 355/5/6 356/5/6 357/5/6
f 357/5/6 356/5/6 358/5/6
f 359/5/6 360/5/6 362/5/6
f 362/5/6 360/5/6 363/5/6
f 361/2/6 362/2/6 365/2/6
f 365/2/6 362/2/6 366/2/6
f 363/2/6 364/2/6 367/2/6
f 367/2/6 364/2/6 368/2/6
f 369/5/6 370/5/6 371/5/6
f 371/5/6 370/5/6 372/5/6
f 373/5/6 374/5/6 375/5/6
f 375/5/6 374/5/6 376/5/6
f 377/5/6 378/5/6 379/5/6
f 379/5/6 378/5/6 380/5/6
