# MagicaVoxel @ Ephtracy

# group
o 

# material
mtllib mesa.mtl
usemtl palette

# normals
vn -1 0 0
vn 1 0 0
vn 0 0 1
vn 0 0 -1
vn 0 -1 0
vn 0 1 0

# texcoords
vt 0.427734 0.5
vt 0.533203 0.5

# verts
v -21.8 0 -14.9
v -21.8 0 -15
v -21.8 0 -15.8
v -21.8 0 -15.9
v -21.8 0.7 -15
v -21.8 0.7 -15.8
v -21.8 0.8 -14.9
v -21.8 0.8 -15.9
v -21.7 0 -14.8
v -21.7 0 -14.9
v -21.7 0 -15.9
v -21.7 0 -16
v -21.7 0.8 -14.8
v -21.7 0.8 -14.9
v -21.7 0.8 -15.9
v -21.7 0.8 -16
v -20.8 0 -14.8
v -20.8 0 -14.9
v -20.8 0 -15.9
v -20.8 0 -16
v -20.8 0.7 -14.8
v -20.8 0.7 -14.9
v -20.8 0.7 -15.9
v -20.8 0.7 -16
v -20.7 0 -14.9
v -20.7 0 -15
v -20.7 0 -15.8
v -20.7 0 -15.9
v -20.7 0.7 -14.9
v -20.7 0.7 -15
v -20.7 0.7 -15.8
v -20.7 0.7 -15.9
v -21.7 0 -14.9
v -21.7 0 -15
v -21.7 0 -15.8
v -21.7 0 -15.9
v -21.7 0.7 -14.9
v -21.7 0.7 -15
v -21.7 0.7 -15.8
v -21.7 0.7 -15.9
v -21.6 0 -14.8
v -21.6 0 -14.9
v -21.6 0 -15.9
v -21.6 0 -16
v -21.6 0.7 -14.8
v -21.6 0.7 -14.9
v -21.6 0.7 -15.9
v -21.6 0.7 -16
v -20.7 0 -14.8
v -20.7 0 -14.9
v -20.7 0 -15.9
v -20.7 0 -16
v -20.7 0.8 -14.8
v -20.7 0.8 -14.9
v -20.7 0.8 -15.9
v -20.7 0.8 -16
v -20.6 0 -14.9
v -20.6 0 -15
v -20.6 0 -15.8
v -20.6 0 -15.9
v -20.6 0.7 -15
v -20.6 0.7 -15.8
v -20.6 0.8 -14.9
v -20.6 0.8 -15.9
v -21.7 0 -14.8
v -21.7 0.8 -14.8
v -21.6 0 -14.8
v -21.6 0.7 -14.8
v -20.8 0 -14.8
v -20.8 0.7 -14.8
v -20.7 0 -14.8
v -20.7 0.8 -14.8
v -21.8 0 -14.9
v -21.8 0.8 -14.9
v -21.7 0 -14.9
v -21.7 0.8 -14.9
v -20.7 0 -14.9
v -20.7 0.8 -14.9
v -20.6 0 -14.9
v -20.6 0.8 -14.9
v -21.8 0 -15.8
v -21.8 0.7 -15.8
v -21.7 0 -15.8
v -21.7 0.7 -15.8
v -20.7 0 -15.8
v -20.7 0.7 -15.8
v -20.6 0 -15.8
v -20.6 0.7 -15.8
v -21.7 0 -15.9
v -21.7 0.7 -15.9
v -21.6 0 -15.9
v -21.6 0.7 -15.9
v -20.8 0 -15.9
v -20.8 0.7 -15.9
v -20.7 0 -15.9
v -20.7 0.7 -15.9
v -21.7 0 -14.9
v -21.7 0.7 -14.9
v -21.6 0 -14.9
v -21.6 0.7 -14.9
v -20.8 0 -14.9
v -20.8 0.7 -14.9
v -20.7 0 -14.9
v -20.7 0.7 -14.9
v -21.8 0 -15
v -21.8 0.7 -15
v -21.7 0 -15
v -21.7 0.7 -15
v -20.7 0 -15
v -20.7 0.7 -15
v -20.6 0 -15
v -20.6 0.7 -15
v -21.8 0 -15.9
v -21.8 0.8 -15.9
v -21.7 0 -15.9
v -21.7 0.8 -15.9
v -20.7 0 -15.9
v -20.7 0.8 -15.9
v -20.6 0 -15.9
v -20.6 0.8 -15.9
v -21.7 0 -16
v -21.7 0.8 -16
v -21.6 0 -16
v -21.6 0.7 -16
v -20.8 0 -16
v -20.8 0.7 -16
v -20.7 0 -16
v -20.7 0.8 -16
v -21.7 0 -14.8
v -21.6 0 -14.8
v -20.8 0 -14.8
v -20.7 0 -14.8
v -21.8 0 -14.9
v -21.7 0 -14.9
v -21.6 0 -14.9
v -20.8 0 -14.9
v -20.7 0 -14.9
v -20.6 0 -14.9
v -21.8 0 -15
v -21.7 0 -15
v -20.7 0 -15
v -20.6 0 -15
v -21.8 0 -15.8
v -21.7 0 -15.8
v -20.7 0 -15.8
v -20.6 0 -15.8
v -21.8 0 -15.9
v -21.7 0 -15.9
v -21.6 0 -15.9
v -20.8 0 -15.9
v -20.7 0 -15.9
v -20.6 0 -15.9
v -21.7 0 -16
v -21.6 0 -16
v -20.8 0 -16
v -20.7 0 -16
v -21.6 0.7 -14.8
v -20.8 0.7 -14.8
v -21.7 0.7 -14.9
v -21.6 0.7 -14.9
v -20.8 0.7 -14.9
v -20.7 0.7 -14.9
v -21.8 0.7 -15
v -21.7 0.7 -15
v -20.7 0.7 -15
v -20.6 0.7 -15
v -21.3 0.7 -15.3
v -21.1 0.7 -15.3
v -21.3 0.7 -15.5
v -21.1 0.7 -15.5
v -21.8 0.7 -15.8
v -21.7 0.7 -15.8
v -20.7 0.7 -15.8
v -20.6 0.7 -15.8
v -21.7 0.7 -15.9
v -21.6 0.7 -15.9
v -20.8 0.7 -15.9
v -20.7 0.7 -15.9
v -21.6 0.7 -16
v -20.8 0.7 -16
v -21.7 0.8 -14.8
v -20.7 0.8 -14.8
v -21.8 0.8 -14.9
v -21.7 0.8 -14.9
v -20.7 0.8 -14.9
v -20.6 0.8 -14.9
v -21.3 0.8 -15.3
v -21.1 0.8 -15.3
v -21.3 0.8 -15.5
v -21.1 0.8 -15.5
v -21.8 0.8 -15.9
v -21.7 0.8 -15.9
v -20.7 0.8 -15.9
v -20.6 0.8 -15.9
v -21.7 0.8 -16
v -20.7 0.8 -16

# faces
f 5/1/1 2/1/1 1/1/1
f 6/1/1 4/1/1 3/1/1
f 7/1/1 5/1/1 1/1/1
f 7/1/1 6/1/1 5/1/1
f 8/1/1 4/1/1 6/1/1
f 8/1/1 6/1/1 7/1/1
f 13/1/1 10/1/1 9/1/1
f 14/1/1 10/1/1 13/1/1
f 15/1/1 12/1/1 11/1/1
f 16/1/1 12/1/1 15/1/1
f 21/1/1 18/1/1 17/1/1
f 22/1/1 18/1/1 21/1/1
f 23/1/1 20/1/1 19/1/1
f 24/1/1 20/1/1 23/1/1
f 29/1/1 26/1/1 25/1/1
f 30/1/1 26/1/1 29/1/1
f 31/1/1 28/1/1 27/1/1
f 32/1/1 28/1/1 31/1/1
f 33/1/2 34/1/2 37/1/2
f 37/1/2 34/1/2 38/1/2
f 35/1/2 36/1/2 39/1/2
f 39/1/2 36/1/2 40/1/2
f 41/1/2 42/1/2 45/1/2
f 45/1/2 42/1/2 46/1/2
f 43/1/2 44/1/2 47/1/2
f 47/1/2 44/1/2 48/1/2
f 49/1/2 50/1/2 53/1/2
f 53/1/2 50/1/2 54/1/2
f 51/1/2 52/1/2 55/1/2
f 55/1/2 52/1/2 56/1/2
f 57/1/2 58/1/2 61/1/2
f 59/1/2 60/1/2 62/1/2
f 57/1/2 61/1/2 63/1/2
f 61/1/2 62/1/2 63/1/2
f 62/1/2 60/1/2 64/1/2
f 63/1/2 62/1/2 64/1/2
f 67/1/3 66/1/3 65/1/3
f 68/1/3 66/1/3 67/1/3
f 70/1/3 66/1/3 68/1/3
f 71/1/3 70/1/3 69/1/3
f 72/1/3 66/1/3 70/1/3
f 72/1/3 70/1/3 71/1/3
f 75/1/3 74/1/3 73/1/3
f 76/1/3 74/1/3 75/1/3
f 79/1/3 78/1/3 77/1/3
f 80/1/3 78/1/3 79/1/3
f 83/1/3 82/1/3 81/1/3
f 84/1/3 82/1/3 83/1/3
f 87/1/3 86/1/3 85/1/3
f 88/1/3 86/1/3 87/1/3
f 91/1/3 90/1/3 89/1/3
f 92/1/3 90/1/3 91/1/3
f 95/1/3 94/1/3 93/1/3
f 96/1/3 94/1/3 95/1/3
f 97/1/4 98/1/4 99/1/4
f 99/1/4 98/1/4 100/1/4
f 101/1/4 102/1/4 103/1/4
f 103/1/4 102/1/4 104/1/4
f 105/1/4 106/1/4 107/1/4
f 107/1/4 106/1/4 108/1/4
f 109/1/4 110/1/4 111/1/4
f 111/1/4 110/1/4 112/1/4
f 113/1/4 114/1/4 115/1/4
f 115/1/4 114/1/4 116/1/4
f 117/1/4 118/1/4 119/1/4
f 119/1/4 118/1/4 120/1/4
f 121/1/4 122/1/4 123/1/4
f 123/1/4 122/1/4 124/1/4
f 124/1/4 122/1/4 126/1/4
f 125/1/4 126/1/4 127/1/4
f 126/1/4 122/1/4 128/1/4
f 127/1/4 126/1/4 128/1/4
f 134/1/5 130/1/5 129/1/5
f 135/1/5 130/1/5 134/1/5
f 136/1/5 132/1/5 131/1/5
f 137/1/5 132/1/5 136/1/5
f 139/1/5 134/1/5 133/1/5
f 140/1/5 134/1/5 139/1/5
f 141/1/5 138/1/5 137/1/5
f 142/1/5 138/1/5 141/1/5
f 147/1/5 144/1/5 143/1/5
f 148/1/5 144/1/5 147/1/5
f 151/1/5 146/1/5 145/1/5
f 152/1/5 146/1/5 151/1/5
f 153/1/5 149/1/5 148/1/5
f 154/1/5 149/1/5 153/1/5
f 155/1/5 151/1/5 150/1/5
f 156/1/5 151/1/5 155/1/5
f 160/1/5 158/1/5 157/1/5
f 161/1/5 158/1/5 160/1/5
f 164/1/5 160/1/5 159/1/5
f 164/1/5 162/1/5 161/1/5
f 164/1/5 161/1/5 160/1/5
f 165/1/5 162/1/5 164/1/5
f 167/1/5 164/1/5 163/1/5
f 167/1/5 166/1/5 165/1/5
f 167/1/5 165/1/5 164/1/5
f 168/1/5 166/1/5 167/1/5
f 169/1/5 167/1/5 163/1/5
f 169/2/5 168/2/5 167/2/5
f 170/1/5 166/1/5 168/1/5
f 170/2/5 168/2/5 169/2/5
f 171/1/5 169/1/5 163/1/5
f 171/1/5 170/1/5 169/1/5
f 172/1/5 170/1/5 171/1/5
f 173/1/5 166/1/5 170/1/5
f 173/1/5 170/1/5 172/1/5
f 174/1/5 166/1/5 173/1/5
f 175/1/5 173/1/5 172/1/5
f 176/1/5 173/1/5 175/1/5
f 177/1/5 173/1/5 176/1/5
f 178/1/5 173/1/5 177/1/5
f 179/1/5 177/1/5 176/1/5
f 180/1/5 177/1/5 179/1/5
f 181/1/6 182/1/6 184/1/6
f 184/1/6 182/1/6 185/1/6
f 183/1/6 184/1/6 187/1/6
f 185/1/6 186/1/6 187/1/6
f 184/1/6 185/1/6 187/1/6
f 187/1/6 186/1/6 188/1/6
f 183/1/6 187/1/6 189/1/6
f 187/2/6 188/2/6 189/2/6
f 188/1/6 186/1/6 190/1/6
f 189/2/6 188/2/6 190/2/6
f 183/1/6 189/1/6 191/1/6
f 189/1/6 190/1/6 191/1/6
f 191/1/6 190/1/6 192/1/6
f 190/1/6 186/1/6 193/1/6
f 192/1/6 190/1/6 193/1/6
f 193/1/6 186/1/6 194/1/6
f 192/1/6 193/1/6 195/1/6
f 195/1/6 193/1/6 196/1/6
