# MagicaVoxel @ Ephtracy

# group
o 

# material
mtllib baú.mtl
usemtl palette

# normals
vn 1 0 0
vn -1 0 0
vn 0 0 -1
vn 0 0 1
vn 0 -1 0
vn 0 1 0

# texcoords
vt 0.392578 0.5
vt 0.400391 0.5
vt 0.404297 0.5

# verts
v -6.4 0 -2
v -6.4 0 -1.2
v -6.4 0.1 -1.8
v -6.4 0.1 -1.4
v -6.4 0.2 -1.9
v -6.4 0.2 -1.8
v -6.4 0.2 -1.4
v -6.4 0.2 -1.3
v -6.4 0.4 -1.9
v -6.4 0.4 -1.3
v -6.4 0.5 -1.9
v -6.4 0.5 -1.3
v -6.4 0.6 -2
v -6.4 0.6 -1.9
v -6.4 0.6 -1.8
v -6.4 0.6 -1.4
v -6.4 0.6 -1.3
v -6.4 0.6 -1.2
v -6.4 0.7 -1.9
v -6.4 0.7 -1.8
v -6.4 0.7 -1.4
v -6.4 0.7 -1.3
v -6.4 0.8 -1.8
v -6.4 0.8 -1.4
v -7.2 0 -2
v -7.2 0 -1.2
v -7.2 0.1 -1.8
v -7.2 0.1 -1.4
v -7.2 0.2 -1.9
v -7.2 0.2 -1.8
v -7.2 0.2 -1.4
v -7.2 0.2 -1.3
v -7.2 0.4 -1.9
v -7.2 0.4 -1.3
v -7.2 0.5 -1.9
v -7.2 0.5 -1.3
v -7.2 0.6 -2
v -7.2 0.6 -1.9
v -7.2 0.6 -1.8
v -7.2 0.6 -1.4
v -7.2 0.6 -1.3
v -7.2 0.6 -1.2
v -7.2 0.7 -1.9
v -7.2 0.7 -1.8
v -7.2 0.7 -1.4
v -7.2 0.7 -1.3
v -7.2 0.8 -1.8
v -7.2 0.8 -1.4
v -6.4 0 -2
v -6.4 0.6 -2
v -6.5 0.2 -2
v -6.5 0.4 -2
v -6.5 0.5 -2
v -6.5 0.6 -2
v -6.6 0.1 -2
v -6.6 0.2 -2
v -6.6 0.3 -2
v -6.6 0.4 -2
v -6.7 0.4 -2
v -6.7 0.5 -2
v -6.9 0.4 -2
v -6.9 0.5 -2
v -7 0.1 -2
v -7 0.2 -2
v -7 0.3 -2
v -7 0.4 -2
v -7.1 0.2 -2
v -7.1 0.4 -2
v -7.1 0.5 -2
v -7.1 0.6 -2
v -7.2 0 -2
v -7.2 0.6 -2
v -6.4 0.6 -1.9
v -6.4 0.7 -1.9
v -6.5 0.6 -1.9
v -6.5 0.7 -1.9
v -7.1 0.6 -1.9
v -7.1 0.7 -1.9
v -7.2 0.6 -1.9
v -7.2 0.7 -1.9
v -6.4 0.7 -1.8
v -6.4 0.8 -1.8
v -6.5 0.7 -1.8
v -6.5 0.8 -1.8
v -7.1 0.7 -1.8
v -7.1 0.8 -1.8
v -7.2 0.7 -1.8
v -7.2 0.8 -1.8
v -6.4 0.7 -1.4
v -6.4 0.8 -1.4
v -6.5 0.7 -1.4
v -6.5 0.8 -1.4
v -7.1 0.7 -1.4
v -7.1 0.8 -1.4
v -7.2 0.7 -1.4
v -7.2 0.8 -1.4
v -6.4 0.6 -1.3
v -6.4 0.7 -1.3
v -6.5 0.6 -1.3
v -6.5 0.7 -1.3
v -7.1 0.6 -1.3
v -7.1 0.7 -1.3
v -7.2 0.6 -1.3
v -7.2 0.7 -1.3
v -6.4 0 -1.2
v -6.4 0.6 -1.2
v -6.5 0.2 -1.2
v -6.5 0.4 -1.2
v -6.5 0.5 -1.2
v -6.5 0.6 -1.2
v -6.6 0.1 -1.2
v -6.6 0.2 -1.2
v -7 0.1 -1.2
v -7 0.2 -1.2
v -7.1 0.2 -1.2
v -7.1 0.4 -1.2
v -7.1 0.5 -1.2
v -7.1 0.6 -1.2
v -7.2 0 -1.2
v -7.2 0.6 -1.2
v -6.4 0 -2
v -7.2 0 -2
v -6.5 0 -1.9
v -7.1 0 -1.9
v -6.5 0 -1.3
v -7.1 0 -1.3
v -6.4 0 -1.2
v -7.2 0 -1.2
v -6.4 0.6 -2
v -6.5 0.6 -2
v -7.1 0.6 -2
v -7.2 0.6 -2
v -6.4 0.6 -1.9
v -6.5 0.6 -1.9
v -7.1 0.6 -1.9
v -7.2 0.6 -1.9
v -6.4 0.6 -1.3
v -6.5 0.6 -1.3
v -7.1 0.6 -1.3
v -7.2 0.6 -1.3
v -6.4 0.6 -1.2
v -6.5 0.6 -1.2
v -7.1 0.6 -1.2
v -7.2 0.6 -1.2
v -6.4 0.7 -1.9
v -6.5 0.7 -1.9
v -7.1 0.7 -1.9
v -7.2 0.7 -1.9
v -6.4 0.7 -1.8
v -6.5 0.7 -1.8
v -7.1 0.7 -1.8
v -7.2 0.7 -1.8
v -6.4 0.7 -1.4
v -6.5 0.7 -1.4
v -7.1 0.7 -1.4
v -7.2 0.7 -1.4
v -6.4 0.7 -1.3
v -6.5 0.7 -1.3
v -7.1 0.7 -1.3
v -7.2 0.7 -1.3
v -6.4 0.8 -1.8
v -6.5 0.8 -1.8
v -7.1 0.8 -1.8
v -7.2 0.8 -1.8
v -6.4 0.8 -1.4
v -6.5 0.8 -1.4
v -7.1 0.8 -1.4
v -7.2 0.8 -1.4

# faces
f 3/1/1 2/1/1 1/1/1
f 4/1/1 2/1/1 3/1/1
f 5/1/1 3/1/1 1/1/1
f 6/3/1 4/3/1 3/3/1
f 6/1/1 3/1/1 5/1/1
f 7/1/1 2/1/1 4/1/1
f 7/3/1 4/3/1 6/3/1
f 8/1/1 2/1/1 7/1/1
f 9/3/1 6/3/1 5/3/1
f 9/1/1 5/1/1 1/1/1
f 9/3/1 8/3/1 7/3/1
f 9/3/1 7/3/1 6/3/1
f 10/1/1 2/1/1 8/1/1
f 10/3/1 8/3/1 9/3/1
f 11/1/1 9/1/1 1/1/1
f 11/1/1 10/1/1 9/1/1
f 12/1/1 2/1/1 10/1/1
f 12/1/1 10/1/1 11/1/1
f 13/1/1 11/1/1 1/1/1
f 14/3/1 12/3/1 11/3/1
f 14/1/1 11/1/1 13/1/1
f 15/3/1 12/3/1 14/3/1
f 16/3/1 12/3/1 15/3/1
f 17/1/1 2/1/1 12/1/1
f 17/3/1 12/3/1 16/3/1
f 18/1/1 2/1/1 17/1/1
f 19/1/1 15/1/1 14/1/1
f 20/3/1 16/3/1 15/3/1
f 20/1/1 15/1/1 19/1/1
f 21/1/1 17/1/1 16/1/1
f 21/3/1 16/3/1 20/3/1
f 22/1/1 17/1/1 21/1/1
f 23/1/1 21/1/1 20/1/1
f 24/1/1 21/1/1 23/1/1
f 25/1/2 26/1/2 27/1/2
f 27/1/2 26/1/2 28/1/2
f 25/1/2 27/1/2 29/1/2
f 27/3/2 28/3/2 30/3/2
f 29/1/2 27/1/2 30/1/2
f 28/1/2 26/1/2 31/1/2
f 30/3/2 28/3/2 31/3/2
f 31/1/2 26/1/2 32/1/2
f 29/3/2 30/3/2 33/3/2
f 25/1/2 29/1/2 33/1/2
f 31/3/2 32/3/2 33/3/2
f 30/3/2 31/3/2 33/3/2
f 32/1/2 26/1/2 34/1/2
f 33/3/2 32/3/2 34/3/2
f 25/1/2 33/1/2 35/1/2
f 33/1/2 34/1/2 35/1/2
f 34/1/2 26/1/2 36/1/2
f 35/1/2 34/1/2 36/1/2
f 25/1/2 35/1/2 37/1/2
f 35/3/2 36/3/2 38/3/2
f 37/1/2 35/1/2 38/1/2
f 38/3/2 36/3/2 39/3/2
f 39/3/2 36/3/2 40/3/2
f 36/1/2 26/1/2 41/1/2
f 40/3/2 36/3/2 41/3/2
f 41/1/2 26/1/2 42/1/2
f 38/1/2 39/1/2 43/1/2
f 39/3/2 40/3/2 44/3/2
f 43/1/2 39/1/2 44/1/2
f 40/1/2 41/1/2 45/1/2
f 44/3/2 40/3/2 45/3/2
f 45/1/2 41/1/2 46/1/2
f 44/1/2 45/1/2 47/1/2
f 47/1/2 45/1/2 48/1/2
f 51/1/3 50/1/3 49/1/3
f 52/1/3 50/1/3 51/1/3
f 53/1/3 50/1/3 52/1/3
f 54/1/3 50/1/3 53/1/3
f 55/1/3 51/1/3 49/1/3
f 56/3/3 52/3/3 51/3/3
f 56/1/3 51/1/3 55/1/3
f 57/3/3 52/3/3 56/3/3
f 58/1/3 53/1/3 52/1/3
f 58/3/3 52/3/3 57/3/3
f 59/2/3 58/2/3 57/2/3
f 59/1/3 53/1/3 58/1/3
f 60/3/3 54/3/3 53/3/3
f 60/1/3 53/1/3 59/1/3
f 61/2/3 59/2/3 57/2/3
f 61/2/3 60/2/3 59/2/3
f 62/3/3 54/3/3 60/3/3
f 62/2/3 60/2/3 61/2/3
f 63/1/3 55/1/3 49/1/3
f 63/3/3 57/3/3 56/3/3
f 63/3/3 56/3/3 55/3/3
f 64/3/3 57/3/3 63/3/3
f 65/2/3 61/2/3 57/2/3
f 65/3/3 57/3/3 64/3/3
f 66/1/3 62/1/3 61/1/3
f 66/2/3 61/2/3 65/2/3
f 67/3/3 65/3/3 64/3/3
f 67/1/3 64/1/3 63/1/3
f 67/3/3 66/3/3 65/3/3
f 68/1/3 62/1/3 66/1/3
f 68/3/3 66/3/3 67/3/3
f 69/3/3 54/3/3 62/3/3
f 69/1/3 62/1/3 68/1/3
f 70/3/3 54/3/3 69/3/3
f 71/1/3 68/1/3 67/1/3
f 71/1/3 67/1/3 63/1/3
f 71/1/3 70/1/3 69/1/3
f 71/1/3 69/1/3 68/1/3
f 71/1/3 63/1/3 49/1/3
f 72/1/3 70/1/3 71/1/3
f 75/1/3 74/1/3 73/1/3
f 76/1/3 74/1/3 75/1/3
f 77/3/3 76/3/3 75/3/3
f 78/3/3 76/3/3 77/3/3
f 79/1/3 78/1/3 77/1/3
f 80/1/3 78/1/3 79/1/3
f 83/1/3 82/1/3 81/1/3
f 84/1/3 82/1/3 83/1/3
f 85/3/3 84/3/3 83/3/3
f 86/3/3 84/3/3 85/3/3
f 87/1/3 86/1/3 85/1/3
f 88/1/3 86/1/3 87/1/3
f 89/1/4 90/1/4 91/1/4
f 91/1/4 90/1/4 92/1/4
f 91/3/4 92/3/4 93/3/4
f 93/3/4 92/3/4 94/3/4
f 93/1/4 94/1/4 95/1/4
f 95/1/4 94/1/4 96/1/4
f 97/1/4 98/1/4 99/1/4
f 99/1/4 98/1/4 100/1/4
f 99/3/4 100/3/4 101/3/4
f 101/3/4 100/3/4 102/3/4
f 101/1/4 102/1/4 103/1/4
f 103/1/4 102/1/4 104/1/4
f 105/1/4 106/1/4 107/1/4
f 107/1/4 106/1/4 108/1/4
f 108/1/4 106/1/4 109/1/4
f 109/1/4 106/1/4 110/1/4
f 105/1/4 107/1/4 111/1/4
f 107/3/4 108/3/4 112/3/4
f 111/1/4 107/1/4 112/1/4
f 105/1/4 111/1/4 113/1/4
f 111/3/4 112/3/4 113/3/4
f 112/3/4 108/3/4 114/3/4
f 113/3/4 112/3/4 114/3/4
f 113/1/4 114/1/4 115/1/4
f 114/3/4 108/3/4 115/3/4
f 108/1/4 109/1/4 116/1/4
f 115/3/4 108/3/4 116/3/4
f 109/3/4 110/3/4 117/3/4
f 116/1/4 109/1/4 117/1/4
f 117/3/4 110/3/4 118/3/4
f 105/1/4 113/1/4 119/1/4
f 113/1/4 115/1/4 119/1/4
f 117/1/4 118/1/4 119/1/4
f 116/1/4 117/1/4 119/1/4
f 115/1/4 116/1/4 119/1/4
f 119/1/4 118/1/4 120/1/4
f 123/1/5 122/1/5 121/1/5
f 124/1/5 122/1/5 123/1/5
f 125/1/5 123/1/5 121/1/5
f 125/3/5 124/3/5 123/3/5
f 126/1/5 122/1/5 124/1/5
f 126/3/5 124/3/5 125/3/5
f 127/1/5 125/1/5 121/1/5
f 127/1/5 126/1/5 125/1/5
f 128/1/5 122/1/5 126/1/5
f 128/1/5 126/1/5 127/1/5
f 129/1/6 130/1/6 133/1/6
f 130/3/6 131/3/6 134/3/6
f 133/1/6 130/1/6 134/1/6
f 131/1/6 132/1/6 135/1/6
f 134/3/6 131/3/6 135/3/6
f 135/1/6 132/1/6 136/1/6
f 137/1/6 138/1/6 141/1/6
f 138/3/6 139/3/6 142/3/6
f 141/1/6 138/1/6 142/1/6
f 139/1/6 140/1/6 143/1/6
f 142/3/6 139/3/6 143/3/6
f 143/1/6 140/1/6 144/1/6
f 145/1/6 146/1/6 149/1/6
f 146/3/6 147/3/6 150/3/6
f 149/1/6 146/1/6 150/1/6
f 147/1/6 148/1/6 151/1/6
f 150/3/6 147/3/6 151/3/6
f 151/1/6 148/1/6 152/1/6
f 153/1/6 154/1/6 157/1/6
f 154/3/6 155/3/6 158/3/6
f 157/1/6 154/1/6 158/1/6
f 155/1/6 156/1/6 159/1/6
f 158/3/6 155/3/6 159/3/6
f 159/1/6 156/1/6 160/1/6
f 161/1/6 162/1/6 165/1/6
f 162/3/6 163/3/6 166/3/6
f 165/1/6 162/1/6 166/1/6
f 163/1/6 164/1/6 167/1/6
f 166/3/6 163/3/6 167/3/6
f 167/1/6 164/1/6 168/1/6
